<?xml version="1.0" standalone="no"?>
<!DOCTYPE svg PUBLIC "-//W3C//DTD SVG 1.1//EN" "http://www.w3.org/Graphics/SVG/1.1/DTD/svg11.dtd" >
<svg>
<metadata>
Created by FontForge 20110222 at Sat Sep 20 02:01:39 2014
 By Orthosie Webhosting
Copyright (c) 2000 Adobe Systems Incorporated. All Rights Reserved.
</metadata>
<defs>
<font id="LithosProBlack" horiz-adv-x="902" >
  <font-face 
    font-family="LithosProBlack"
    font-weight="850"
    font-stretch="normal"
    units-per-em="1000"
    panose-1="4 2 9 5 4 14 2 2 10 4"
    ascent="727"
    descent="-273"
    x-height="612"
    cap-height="710"
    bbox="-183 -323 1475 972"
    underline-thickness="50"
    underline-position="-50"
    unicode-range="U+0020-FB02"
  />
<missing-glyph horiz-adv-x="500" 
d="M0 0v700h500v-700h-500zM250 395l170 255h-340zM280 350l170 -255v510zM80 50h340l-170 255zM50 605v-510l170 255z" />
    <glyph glyph-name=".notdef" horiz-adv-x="500" 
d="M0 0v700h500v-700h-500zM250 395l170 255h-340zM280 350l170 -255v510zM80 50h340l-170 255zM50 605v-510l170 255z" />
    <glyph glyph-name=".null" horiz-adv-x="0" 
 />
    <glyph glyph-name="nonmarkingreturn" horiz-adv-x="333" 
 />
    <glyph glyph-name="space" unicode=" " horiz-adv-x="250" 
 />
    <glyph glyph-name="exclam" unicode="!" horiz-adv-x="330" 
d="M220 245l-134 -9q-1 17 -19.5 213.5t-22.5 268.5l243 -9q-5 -43 -33 -223t-34 -241zM68 0v151h167v-151h-167z" />
    <glyph glyph-name="quotedbl" unicode="&#x22;" horiz-adv-x="390" 
d="M36 726h129l-26 -228h-77zM226 726h129l-26 -228h-77z" />
    <glyph glyph-name="numbersign" unicode="#" horiz-adv-x="695" 
d="M635 376h-107l-16 -98h84v-127h-110l-25 -151h-121l27 151h-101l-26 -151h-120l27 151h-87v127h112l18 98h-90v127h111l28 147h118l-28 -147h103l27 147h119l-27 -147h84v-127zM409 376h-101l-16 -98h100z" />
    <glyph glyph-name="dollar" unicode="$" horiz-adv-x="817" 
d="M356 800h129l-4 -105q65 18 117 20l10 -164q-84 0 -140.5 -16.5t-56.5 -45.5q0 -16 19.5 -30.5t70.5 -37.5q133 -60 133 -159q0 -66 -48 -115t-105 -78l4 -153h-129l4 125q-19 -7 -76.5 -16.5t-82.5 -11.5l-15 161q80 1 150.5 22t70.5 46q0 23 -19 38.5t-68 38.5
q-137 65 -137 161q0 55 49 103t128 76z" />
    <glyph glyph-name="percent" unicode="%" horiz-adv-x="1039" 
d="M255 321q-108 0 -161.5 51.5t-53.5 130.5q0 81 60 144t172 63q209 0 209 -199q0 -26 -11 -56t-35 -61.5t-71 -52t-109 -20.5zM257 422q35 0 56.5 23t21.5 69q0 49 -20.5 72t-51.5 23q-37 0 -57.5 -27.5t-20.5 -70.5q0 -42 21 -65.5t51 -23.5zM773 0q-108 0 -161.5 51.5
t-53.5 130.5q0 81 60.5 144t171.5 63q209 0 209 -199q0 -26 -11 -56t-35 -61.5t-71 -52t-109 -20.5zM775 97q31 0 54.5 23.5t23.5 68.5q0 46 -21 70.5t-50 24.5q-37 0 -58 -27.5t-21 -70.5t20 -66t52 -23zM366 -21l-97 62q11 19 46.5 77t79 131t85.5 143q33 55 83 136.5
t79.5 130.5t42.5 72l100 -61q-73 -98 -205 -321q-94 -158 -214 -370z" />
    <glyph glyph-name="ampersand" unicode="&#x26;" horiz-adv-x="740" 
d="M298 127q54 0 99 37q-50 33 -146 118q-34 -43 -33 -93q0 -23 23.5 -42.5t56.5 -19.5zM756 131l-118 -155q-65 43 -130 94q-106 -86 -257 -86q-112 0 -172.5 45t-60.5 124q0 110 138 220q-54 54 -54 115q0 80 103.5 147t298.5 87l18 -167q-211 -3 -211 -67q0 -22 21 -43
t81 -69q36 -29 110 -83q27 42 72 129l148 -92q-42 -59 -99 -122q15 -10 34.5 -24t43.5 -30t34 -23z" />
    <glyph glyph-name="quotesingle" unicode="'" horiz-adv-x="230" 
d="M49 726h132l-28 -225h-77z" />
    <glyph glyph-name="parenleft" unicode="(" horiz-adv-x="380" 
d="M243 786l94 -108q-20 -18 -29 -27t-33 -41.5t-37.5 -64t-25 -85.5t-11.5 -115q0 -65 18 -124t45.5 -98t46.5 -59.5t33 -31.5l-101 -112q-32 21 -65.5 56t-67.5 86.5t-55.5 123t-21.5 149.5q0 84 21.5 162t55.5 134t67.5 95t65.5 60z" />
    <glyph glyph-name="parenright" unicode=")" horiz-adv-x="380" 
d="M137 -78l-94 109q18 16 28.5 26.5t34 41.5t37 63.5t25 86t11.5 114.5q0 65 -18 124t-45.5 98t-46 59.5t-33.5 32.5l101 111q32 -21 65.5 -56t67.5 -86.5t55.5 -123t21.5 -149.5q0 -84 -21.5 -162t-55.5 -134t-67.5 -95t-65.5 -60z" />
    <glyph glyph-name="asterisk" unicode="*" horiz-adv-x="380" 
d="M341 627l2 -93q-96 16 -102 19l-2 -2q3 -3 16.5 -18.5t31 -35t23.5 -26.5l-88 -43q-3 14 -16 82l-12 68q17 5 77 25.5t70 23.5zM71 681l78 58q4 -9 21.5 -55.5t19.5 -50.5q1 3 8 23t16 45.5t13 36.5l78 -52q-9 -8 -35 -31.5t-54 -47.5l-27 -24q-11 11 -61 51.5t-57 46.5z
M156 428l-83 37q7 11 36 47t32 39l-2 2q-2 -1 -23 -6t-48 -11t-32 -7l4 99q109 -34 144 -50q-3 -13 -14 -74.5t-14 -75.5z" />
    <glyph glyph-name="plus" unicode="+" horiz-adv-x="596" 
d="M234 532h128v-205h194v-120h-194v-207h-128v207h-194v120h194v205z" />
    <glyph glyph-name="comma" unicode="," horiz-adv-x="310" 
d="M49 -101l65 263l148 -67l-143 -228z" />
    <glyph glyph-name="hyphen" unicode="-" horiz-adv-x="420" 
d="M44 280l-5 155q213 -4 339 -2l3 -141q-37 1 -168.5 -4t-168.5 -8z" />
    <glyph glyph-name="period" unicode="." horiz-adv-x="310" 
d="M72 0v155h166v-155h-166z" />
    <glyph glyph-name="slash" unicode="/" horiz-adv-x="506" 
d="M510 647q-14 -17 -76.5 -112t-124.5 -198q-52 -85 -212 -357l-93 65q15 22 206 334q34 55 82.5 132t78 125t42.5 70z" />
    <glyph glyph-name="zero" unicode="0" horiz-adv-x="817" 
d="M405 17q-169 0 -272 85.5t-103 238.5t109 253t288 100q165 0 262.5 -92.5t97.5 -233.5q0 -70 -24.5 -132.5t-70.5 -111.5t-120 -78t-167 -29zM411 180q57 0 101 45t44 138q0 90 -43 129t-98 39q-27 0 -52 -8.5t-49.5 -27.5t-39 -56.5t-14.5 -89.5q1 -90 46 -129.5
t105 -39.5z" />
    <glyph glyph-name="one" unicode="1" horiz-adv-x="817" 
d="M560 0h-228q4 104 4 286v204q-24 -9 -111 -50l-51 129q11 5 71 32t147 66.5t151 69.5l20 -12q-5 -245 -5 -307v-153q0 -234 2 -265z" />
    <glyph glyph-name="two" unicode="2" horiz-adv-x="817" 
d="M647 178v-186q-20 3 -177 5q-142 3 -328 3h-37l-15 35q6 6 44.5 39t63 55.5t63 62.5t61.5 71.5t41 70t18 70.5q0 46 -24.5 78.5t-65.5 48.5t-78 22.5t-78 7.5l32 166q227 -19 338 -95.5t111 -180.5q0 -28 -7 -55t-16 -48t-26 -44t-29 -37t-33 -32.5t-29.5 -25
t-28.5 -21.5l-20 -14v-8z" />
    <glyph glyph-name="three" unicode="3" horiz-adv-x="817" 
d="M204 574l13 156q88 -1 162.5 -13t133 -34.5t91.5 -59t33 -82.5q0 -52 -42.5 -98t-95.5 -66v-6q73 -15 117.5 -53t44.5 -96q0 -106 -134.5 -176.5t-338.5 -72.5l-7 158q40 -4 92 3.5t96.5 32.5t44.5 62q0 26 -20.5 44t-51 25t-54.5 10t-44 2l-6 91q19 0 43.5 4t52.5 14
t47 30t19 48q0 21 -19.5 37t-50.5 24t-63 12t-63 4z" />
    <glyph glyph-name="four" unicode="4" horiz-adv-x="817" 
d="M719 258l-7 -148l-106 4v-29q0 -27 2 -85h-207q0 9 2.5 42t2.5 53v18h-315l-33 89l429 535l120 -26v-457zM412 252v185h-2q-10 -18 -70.5 -97.5t-66.5 -87.5h139z" />
    <glyph glyph-name="five" unicode="5" horiz-adv-x="817" 
d="M361 555l-12 -71q85 -7 144 -26t88.5 -48t41.5 -59t12 -69q0 -103 -128.5 -192.5t-336.5 -114.5l-28 166q39 2 78.5 9.5t78.5 20.5t63 34.5t24 48.5q0 41 -54 61t-166 23l46 372q190 2 415 14l-1 -181z" />
    <glyph glyph-name="six" unicode="6" horiz-adv-x="817" 
d="M467 749l104 -155q-116 -58 -171 -139q138 0 225 -64t85 -158q-2 -109 -89 -179t-222 -70q-128 0 -204 57q-87 66 -87 189q0 143 107 292t252 227zM411 121q33 0 55.5 26t22.5 67q0 54 -35.5 87.5t-99.5 34.5q-24 -48 -24 -122q0 -39 22.5 -66t58.5 -27z" />
    <glyph glyph-name="seven" unicode="7" horiz-adv-x="817" 
d="M151 539l-4 181q507 -11 553 -10l11 -16q-14 -38 -142.5 -358.5t-144.5 -367.5l-206 88q7 14 66 130.5t113.5 226t61.5 126.5h-308z" />
    <glyph glyph-name="eight" unicode="8" horiz-adv-x="817" 
d="M413 613q-41 0 -65.5 -25t-24.5 -71q0 -40 25 -66t57 -26q34 0 60 24.5t26 73.5q0 50 -23 70t-55 20zM401 -16q-157 0 -227.5 53t-70.5 140q0 58 34.5 109t90.5 79q-54 24 -85.5 68t-31.5 94q0 80 77.5 140t230.5 59q141 0 213 -47.5t72 -130.5q0 -48 -30.5 -96.5
t-91.5 -77.5q132 -51 132 -179q0 -37 -16 -71.5t-50 -67t-98 -52.5t-149 -20zM406 97q37 0 65 25.5t28 80.5q0 51 -26.5 77.5t-60.5 26.5q-45 0 -70.5 -30.5t-25.5 -78.5q0 -49 27.5 -75t62.5 -26z" />
    <glyph glyph-name="nine" unicode="9" horiz-adv-x="817" 
d="M351 -39l-100 157q109 57 161 131q-136 0 -218.5 64.5t-80.5 157.5q2 106 89.5 181t214.5 74q138 -2 209 -63q79 -68 79 -186q0 -138 -106.5 -286t-247.5 -230zM414 588q-36 0 -59 -27t-23 -72q0 -55 34.5 -88t100.5 -34q24 48 24 122q0 44 -21 71.5t-56 27.5z" />
    <glyph glyph-name="colon" unicode=":" horiz-adv-x="310" 
d="M75 0v150h161v-150h-161zM75 345v150h161v-150h-161z" />
    <glyph glyph-name="semicolon" unicode=";" horiz-adv-x="310" 
d="M40 -101l65 258l138 -63l-143 -227zM76 345v150h161v-150h-161z" />
    <glyph glyph-name="less" unicode="&#x3c;" horiz-adv-x="596" 
d="M54 202v129l488 202v-128l-366 -137v-2l366 -138v-128z" />
    <glyph glyph-name="equal" unicode="=" horiz-adv-x="596" 
d="M556 325h-516v120h516v-120zM556 89h-516v120h516v-120z" />
    <glyph glyph-name="greater" unicode="&#x3e;" horiz-adv-x="596" 
d="M542 323v-114l-488 -209v129l348 136v2l-348 136v129z" />
    <glyph glyph-name="question" unicode="?" horiz-adv-x="530" 
d="M38 578l23 152q196 -22 306 -81.5t110 -150.5q0 -56 -28.5 -104.5t-76.5 -83t-103.5 -58.5t-117.5 -38l-38 120q19 5 39 13.5t42.5 23.5t36.5 39.5t14 54.5q0 53 -64.5 81.5t-142.5 31.5zM127 0v151h167v-151h-167z" />
    <glyph glyph-name="at" unicode="@" horiz-adv-x="787" 
d="M350 318l87 2q-4 8 -23 44t-21 40q-4 -7 -22 -43.5t-21 -42.5zM594 31q-91 -50 -204 -50q-152 0 -251.5 93t-99.5 239q0 152 104.5 260t257.5 108q150 0 248 -94.5t98 -238.5q0 -84 -42 -139q-39 -53 -106 -53q-65 0 -104 51q-17 24 -25 37l-146 -3l-10 -20t-17 -35
t-12 -25l-88 47q13 21 55 98.5t83.5 154t45.5 83.5h23q27 -44 92 -157t68 -117q23 -35 43 -35q51 0 51 107q0 110 -75 188t-183 78q-115 0 -190.5 -82t-75.5 -207q0 -119 73.5 -191.5t183.5 -72.5q83 0 169 51z" />
    <glyph glyph-name="A" unicode="A" horiz-adv-x="845" 
d="M190 -32l-190 106q292 496 404 673h10q48 -72 150.5 -230.5t182.5 -282t98 -148.5l-198 -117q-17 29 -53 91t-37 64l-301 -17q-5 -9 -66 -139zM320 255l169 9q-7 15 -40.5 80t-43.5 89q-33 -66 -85 -178z" />
    <glyph glyph-name="B" unicode="B" horiz-adv-x="730" 
d="M108 370v111q0 194 -5 229q213 0 309 -12q236 -30 236 -165q0 -90 -126 -148v-6q62 -12 109.5 -51t47.5 -104q0 -93 -124.5 -161.5t-356.5 -68.5h-95q5 55 5 376zM316 312v-195q45 0 91.5 30.5t46.5 70.5q0 46 -41 71t-97 23zM316 597v-188q38 0 75.5 31.5t37.5 81.5
q0 44 -36 61t-77 14z" />
    <glyph glyph-name="C" unicode="C" horiz-adv-x="645" 
d="M592 175l10 -183q-70 -8 -118 -8q-95 0 -172.5 18.5t-128 48.5t-84.5 70t-49 81t-15 83q0 64 30 129t88 125.5t156 110t222 76.5l44 -192q-150 -27 -223 -87.5t-73 -136.5q0 -59 60 -99.5t157 -40.5q36 0 96 5z" />
    <glyph glyph-name="D" unicode="D" horiz-adv-x="840" 
d="M108 316v124q0 235 -5 270q255 0 384 -18q75 -10 132.5 -32.5t90.5 -48.5t54 -58.5t28 -59.5t7 -54q0 -91 -41.5 -166.5t-110.5 -126t-160.5 -85.5t-188 -50.5t-196.5 -15.5q6 69 6 321zM328 550v-373q39 6 78 23t75 43.5t58 68.5t22 92q0 146 -233 146z" />
    <glyph glyph-name="E" unicode="E" horiz-adv-x="622" 
d="M550 162l4 -172q-16 0 -218.5 5t-230.5 5q3 53 3 290v134q0 199 -3 286q39 0 218.5 7.5t210.5 10.5l4 -165q-21 0 -113 -2.5t-99 -2.5v-132q80 0 179 9l3 -160q-14 0 -93 2t-89 2v-119q200 0 224 2z" />
    <glyph glyph-name="F" unicode="F" horiz-adv-x="600" 
d="M327 0h-223q4 53 4 291v133q0 228 -4 286q44 0 438 15l4 -165l-220 -5v-154q8 0 34.5 1.5t72.5 4t94 3.5l3 -158l-204 2v-85q0 -8 0.5 -85t0.5 -84z" />
    <glyph glyph-name="G" unicode="G" horiz-adv-x="740" 
d="M667 228v-73q0 -21 1 -80.5t1 -67.5q-87 -24 -221 -23q-207 3 -310 86.5t-103 210.5q0 40 13.5 85t50.5 99t92.5 102t149 91.5t210.5 69.5l46 -196q-53 -7 -108 -26.5t-105 -48.5t-81.5 -72.5t-31.5 -92.5q0 -46 30 -79t70 -45.5t81 -11.5l1 80q0 15 -1 42.5t-1 41.5h217
q-1 -39 -1 -92z" />
    <glyph glyph-name="H" unicode="H" horiz-adv-x="926" 
d="M337 0h-232q3 66 3 304v108q0 238 -5 298h235q-5 -45 -5 -229v-40l260 19v42q0 164 -4 208h233q-4 -96 -4 -328v-100q0 -244 4 -282h-233q4 136 4 215v76l-260 -19v-36q0 -144 4 -236z" />
    <glyph glyph-name="I" unicode="I" horiz-adv-x="441" 
d="M333 410v-108q0 -210 4 -302h-232q3 66 3 304v108q0 8 -1.5 146.5t-1.5 151.5h232q-4 -72 -4 -300z" />
    <glyph glyph-name="J" unicode="J" horiz-adv-x="462" 
d="M362 460v-156q0 -156 -65 -254t-193 -166l-107 173q25 14 38 22t35.5 29.5t34.5 45t22 63t10 89.5v156q0 188 -5 248h235q-5 -45 -5 -250z" />
    <glyph glyph-name="K" unicode="K" horiz-adv-x="794" 
d="M337 -10h-233q4 116 4 312v106q0 51 -2 179.5t-2 132.5h233q-5 -80 -5 -302v-26h2q132 170 267 335l166 -146q-16 -17 -99.5 -102t-112.5 -116q36 -40 220 -233l-176 -154q-26 32 -124.5 161.5t-140.5 190.5h-2v-18q0 -272 5 -320z" />
    <glyph glyph-name="L" unicode="L" horiz-adv-x="585" 
d="M104 710h234q-5 -115 -5 -355v-183q142 0 222 4l1 -186q-5 0 -204.5 5t-246.5 5q3 53 3 291v133q0 248 -4 286z" />
    <glyph glyph-name="M" unicode="M" horiz-adv-x="1088" 
d="M207 -31l-197 73q5 11 63.5 160.5t123 311.5t90.5 218h10q27 -44 78 -128t103.5 -170.5t58.5 -96.5q17 26 62 99t99.5 163t71.5 117h10q36 -76 160 -353t137 -304l-202 -90q-18 45 -76 198.5t-62 162.5q-190 -285 -215 -320h-10q-54 81 -119.5 186t-78.5 130
q-6 -17 -51.5 -173.5t-55.5 -183.5z" />
    <glyph glyph-name="N" unicode="N" horiz-adv-x="895" 
d="M278 -7l-204 7q3 33 19 339t21 377l10 6q63 -46 178 -132t213.5 -160.5t106.5 -80.5q0 13 -1.5 177t-0.5 189l204 -5q-5 -66 -24 -373q-11 -194 -18 -352l-10 -5q-54 35 -180.5 131t-205.5 158t-110 87q0 -297 2 -363z" />
    <glyph glyph-name="O" unicode="O" 
d="M426 -16q-96 0 -172.5 30.5t-121.5 81t-68.5 109.5t-23.5 121q0 74 27 144t79 128t137.5 93t191.5 35q179 0 283 -94t104 -258q0 -49 -12.5 -99t-45 -103.5t-80 -94.5t-125 -67t-173.5 -26zM437 139q83 0 131 59t49 169q1 96 -40.5 150t-114.5 54q-82 0 -130 -67
t-48 -163t44 -149t109 -53z" />
    <glyph glyph-name="P" unicode="P" horiz-adv-x="715" 
d="M328 0h-223q3 129 3 355v110q0 13 -1.5 126t-1.5 119q292 0 396 -25q83 -21 135.5 -69.5t52.5 -127.5q0 -104 -95.5 -193.5t-267.5 -117.5v-27q0 -129 2 -150zM326 570v-252q50 8 93 46.5t43 95.5q0 100 -136 110z" />
    <glyph glyph-name="Q" unicode="Q" 
d="M896 58l-22 -169q-310 72 -354 81q-78 15 -102 15q-27 0 -64 5t-100.5 28t-106.5 62q-107 97 -107 248q0 167 119 282.5t314 115.5q180 0 284.5 -93.5t104.5 -251.5q0 -108 -52 -189t-130 -121v-7q42 -2 216 -6zM284 337q0 -58 14.5 -100t38 -63t48 -30t50.5 -9
q32 0 62 11.5t58 37t45 73.5t17 113q0 107 -45 154t-107 47q-85 0 -133 -66t-48 -168z" />
    <glyph glyph-name="R" unicode="R" horiz-adv-x="775" 
d="M326 572v-266q0 -269 5 -306h-223q2 12 2 362v82q0 234 -5 266q261 0 366 -14q111 -14 169.5 -57t58.5 -112q0 -109 -129 -200q12 -14 103.5 -108.5t105.5 -112.5l-183 -138q-11 19 -120.5 180t-123.5 183q44 26 79.5 64.5t35.5 83.5q0 40 -33 66t-108 27z" />
    <glyph glyph-name="S" unicode="S" horiz-adv-x="547" 
d="M93 -18l-27 171q78 -2 140.5 17.5t62.5 53.5q0 15 -18 29t-80 49q-61 35 -98.5 74.5t-37.5 95.5q0 89 110.5 164.5t291.5 91.5l27 -167q-188 0 -188 -62q0 -16 19.5 -29.5t77.5 -41.5q27 -13 45.5 -24.5t43 -31.5t37.5 -46.5t13 -58.5q0 -43 -23.5 -86.5t-71 -84
t-131.5 -71t-193 -43.5z" />
    <glyph glyph-name="T" unicode="T" horiz-adv-x="660" 
d="M446 0h-231q3 39 3 277v262q-35 0 -221 -6v175q90 -8 293 -8h87q188 0 286 8v-175q-114 6 -220 6v-278q0 -231 3 -261z" />
    <glyph glyph-name="U" unicode="U" horiz-adv-x="848" 
d="M301 531v-68q0 -125 9 -184.5t37 -92.5q31 -36 85 -36q58 0 89 47q20 30 24.5 82.5t4.5 227.5v38q0 31 -1 65t-2.5 66.5t-1.5 43.5h229q0 -4 0.5 -67t0.5 -110v-46q0 -159 -17 -248t-70 -153q-92 -112 -269 -112q-194 0 -280 125q-38 57 -52 135t-14 255v54
q0 26 0.5 84.5t0.5 67.5h233q-6 -39 -6 -174z" />
    <glyph glyph-name="V" unicode="V" horiz-adv-x="807" 
d="M611 731l211 -109q-18 -27 -199 -316t-220 -348h-10q-46 70 -135.5 221t-168 285t-88.5 150l215 117q6 -14 91.5 -194.5t103.5 -219.5q17 38 106 220t94 194z" />
    <glyph glyph-name="W" unicode="W" horiz-adv-x="1065" 
d="M877 710l204 -80q-4 -8 -146.5 -311.5t-164.5 -344.5h-10q-16 20 -222 308q-30 -43 -118.5 -171t-112.5 -161h-10q-17 33 -77 176t-129 313.5t-83 202.5l212 78q88 -297 126 -402q6 12 34 56.5t73.5 118.5t84.5 139h10q49 -75 117 -174t83 -122h3q11 29 64 189t62 185z
" />
    <glyph glyph-name="X" unicode="X" horiz-adv-x="800" 
d="M179 -41l-153 153q9 10 111.5 120.5t117.5 127.5q-29 32 -115.5 128t-91.5 101l171 156q173 -222 188 -239q8 9 91 109t107 130l160 -148l-111 -111t-114 -116q85 -89 230 -250l-170 -159q-13 16 -103 126.5t-109 133.5q-12 -14 -106 -132.5t-103 -129.5z" />
    <glyph glyph-name="Y" unicode="Y" horiz-adv-x="785" 
d="M499 0h-235q5 115 5 142v44q0 94 -36 169t-94 113q-51 35 -113 52l77 206q124 -41 188 -105q66 -66 97 -167h8q29 88 110 166q78 74 188 106l63 -206q-82 -17 -151 -75q-48 -39 -80 -107.5t-32 -149.5v-65q0 -73 5 -123z" />
    <glyph glyph-name="Z" unicode="Z" horiz-adv-x="725" 
d="M72 554l4 175q26 -4 310 -14t293 -11l4 -10q-17 -31 -164 -270.5t-159 -258.5q261 0 310 7l-4 -182q-10 0 -307.5 5t-321.5 5l-5 10q71 110 331 535q-18 0 -147.5 4.5t-143.5 4.5z" />
    <glyph glyph-name="bracketleft" unicode="[" horiz-adv-x="380" 
d="M81 774l292 22l5 -110l-134 -5q-4 -56 -4 -207v-138q0 -210 4 -314l129 2l5 -110l-297 8q4 133 4 400v92q0 240 -4 360z" />
    <glyph glyph-name="backslash" unicode="\" horiz-adv-x="506" 
d="M497 45l-93 -65q-160 272 -212 357q-62 103 -124.5 198t-76.5 112l97 59q13 -22 42.5 -70t78 -125t82.5 -132q191 -312 206 -334z" />
    <glyph glyph-name="bracketright" unicode="]" horiz-adv-x="380" 
d="M299 -64l-292 -22l-5 110l134 5q4 56 4 207v128q0 220 -4 324l-129 -2l-5 110l297 -8q-4 -133 -4 -410v-82q0 -240 4 -360z" />
    <glyph glyph-name="asciicircum" unicode="^" horiz-adv-x="596" 
d="M563 172h-136l-130 335l-130 -335h-134l208 478h114z" />
    <glyph glyph-name="underscore" unicode="_" horiz-adv-x="500" 
d="M0 -125v50h500v-50h-500z" />
    <glyph glyph-name="grave" unicode="`" 
d="M356 952l165 -118l-43 -69l-184 86z" />
    <glyph glyph-name="a" unicode="a" horiz-adv-x="769" 
d="M180 -29l-180 92q2 3 54.5 88t103.5 167t112 177t93 140h19q59 -82 214.5 -311t172.5 -251l-184 -101q-15 23 -46 73.5t-34 54.5l-267 -13zM294 217l150 7q-12 24 -39 73t-36 67q-69 -134 -75 -147z" />
    <glyph glyph-name="b" unicode="b" horiz-adv-x="668" 
d="M92 315v94q0 159 -4 195q215 0 296 -10q215 -26 215 -141q0 -31 -29.5 -68t-94.5 -58v-5q59 -4 105.5 -39.5t46.5 -92.5q0 -81 -109.5 -138t-328.5 -57h-101q4 47 4 320zM292 261v-158q44 0 82 24t38 58q0 41 -33 60t-87 16zM292 504v-152q34 0 65.5 23t31.5 69
q0 37 -31.5 50t-65.5 10z" />
    <glyph glyph-name="c" unicode="c" horiz-adv-x="591" 
d="M543 155l9 -162q-56 -7 -108 -7q-107 0 -189.5 23t-129 61t-70 81.5t-23.5 90.5q0 55 27.5 111t81 108t143.5 94t203 62l40 -168q-133 -22 -197.5 -72t-64.5 -113q0 -51 50.5 -82t139.5 -31q44 0 88 4z" />
    <glyph glyph-name="d" unicode="d" horiz-adv-x="762" 
d="M94 269v105q0 198 -4 230q244 0 351 -14q68 -9 120.5 -28t82.5 -41.5t48.5 -50.5t24.5 -51t6 -46q0 -99 -56.5 -175.5t-149.5 -120t-202.5 -64t-225.5 -17.5q5 65 5 273zM306 464v-310q73 10 132 59t59 130q0 38 -15.5 63t-45 37t-60 16.5t-70.5 4.5z" />
    <glyph glyph-name="e" unicode="e" horiz-adv-x="569" 
d="M507 144l3 -153q-16 0 -202.5 4.5t-215.5 4.5q2 45 2 247v113q0 6 -1 118t-1 126q41 0 205.5 6.5t194.5 8.5l4 -146q-19 0 -103 -2.5t-90 -2.5v-103q83 0 163 8l2 -142q-12 0 -83.5 1.5t-81.5 1.5v-92q183 0 204 2z" />
    <glyph glyph-name="f" unicode="f" horiz-adv-x="551" 
d="M307 0h-216q3 45 3 247v113q0 169 -3 244q3 0 411 12l4 -146l-200 -4v-123q8 0 31 1t66.5 3t85.5 4l2 -141l-185 2v-68q0 -7 0.5 -72.5t0.5 -71.5z" />
    <glyph glyph-name="g" unicode="g" horiz-adv-x="680" 
d="M617 194v-62q0 -18 1 -68.5t1 -57.5q-90 -20 -205 -20q-191 0 -286.5 72t-95.5 181q0 34 13 73t47.5 86t86.5 87.5t138.5 77t195.5 56.5l42 -176q-70 -8 -134 -30.5t-112 -66t-48 -98.5q0 -57 47.5 -85t105.5 -26v64q0 11 -1 36.5t-1 41.5h206q-1 -40 -1 -85z" />
    <glyph glyph-name="h" unicode="h" horiz-adv-x="843" 
d="M316 0h-222q2 74 2 258v92q0 212 -4 254h225q-5 -40 -5 -195v-30l219 16v32q0 139 -4 177h224q-4 -84 -4 -279v-85q0 -208 4 -240h-224q4 116 4 183v59l-219 -16v-25q0 -121 4 -201z" />
    <glyph glyph-name="i" unicode="i" horiz-adv-x="401" 
d="M308 349v-92q0 -177 4 -257h-222q2 74 2 258v92q0 7 -1 125t-1 129h222q-4 -64 -4 -255z" />
    <glyph glyph-name="j" unicode="j" horiz-adv-x="420" 
d="M335 391v-133q0 -132 -61 -217.5t-179 -143.5l-105 155q25 12 36 18.5t32.5 24.5t32 37t19.5 52.5t9 75.5v133q0 159 -5 211h226q-5 -40 -5 -213z" />
    <glyph glyph-name="k" unicode="k" horiz-adv-x="727" 
d="M315 -9h-224q3 75 3 266v90q0 44 -1.5 153t-1.5 112h224q-5 -70 -5 -242v-25h2q166 202 230 276l153 -135q-37 -35 -182 -177q22 -22 194 -190l-173 -144q-12 13 -99 127t-123 163h-2v-15q0 -216 5 -259z" />
    <glyph glyph-name="l" unicode="l" horiz-adv-x="532" 
d="M91 604h224q-5 -100 -5 -302v-149q129 0 202 4l1 -166q-7 0 -191.5 4.5t-229.5 4.5q2 45 2 247v113q0 193 -3 244z" />
    <glyph glyph-name="m" unicode="m" horiz-adv-x="990" 
d="M191 -26l-182 62q1 3 109 262.5t140 323.5h14q25 -37 71.5 -108t92 -140.5t53.5 -81.5q19 28 104 156.5t106 160.5h14q35 -71 146.5 -306t120.5 -253l-188 -76q-23 55 -69.5 170t-51.5 131q-92 -134 -193 -266h-14q-147 206 -178 261q-70 -238 -95 -296z" />
    <glyph glyph-name="n" unicode="n" horiz-adv-x="797" 
d="M258 -6l-197 6q3 30 17.5 291t19.5 318l16 5q97 -63 254.5 -173t171.5 -125q0 15 -0.5 88t-0.5 122.5v81.5l196 -4q-11 -125 -22 -318q-14 -251 -16 -299l-16 -4q-61 37 -224 153t-200 146q0 -263 1 -288z" />
    <glyph glyph-name="o" unicode="o" horiz-adv-x="825" 
d="M390 -14q-88 0 -157.5 26t-110.5 69t-62.5 93t-21.5 103q0 63 24.5 122.5t72 108.5t125 79t174.5 30q164 0 258 -79.5t94 -219.5q0 -41 -11.5 -83.5t-40.5 -88t-72 -80.5t-113.5 -57.5t-158.5 -22.5zM400 124q71 0 112 48t41 140q0 81 -34 124t-97 43q-71 0 -111 -54.5
t-40 -134.5t36.5 -123t92.5 -43z" />
    <glyph glyph-name="p" unicode="p" horiz-adv-x="669" 
d="M305 0h-214q0 16 1 142t1 160v93q0 11 -1 107t-1 102q283 0 376 -22q76 -17 123.5 -58.5t47.5 -108.5q0 -93 -89 -169.5t-245 -99.5v-22q0 -106 1 -124zM304 480v-208q43 2 80 33.5t37 85.5q0 39 -26 61.5t-91 27.5z" />
    <glyph glyph-name="q" unicode="q" horiz-adv-x="825" 
d="M817 55l-20 -154q-38 8 -151 33.5t-171 37.5q-70 15 -93 15q-151 0 -246 81q-98 83 -98 211q0 142 108.5 240t285.5 98q164 0 259 -79.5t95 -213.5q0 -91 -45.5 -160t-110.5 -100v-6q28 -1 89.5 -1.5t97.5 -1.5zM270 286q0 -84 40.5 -124.5t91.5 -40.5q63 0 107 46
t44 148q0 86 -37.5 125t-91.5 39q-72 0 -113 -54.5t-41 -138.5z" />
    <glyph glyph-name="r" unicode="r" horiz-adv-x="705" 
d="M304 481v-221q0 -234 4 -260h-215q3 15 3 239v138q0 193 -4 227q263 0 342 -10q101 -13 154 -50.5t53 -95.5q0 -100 -114 -170q13 -14 91.5 -89t91.5 -89l-178 -129q-5 7 -56 81t-98 142.5t-58 84.5q100 49 100 128q0 73 -116 74z" />
    <glyph glyph-name="s" unicode="s" horiz-adv-x="510" 
d="M78 -17l-23 152q81 -2 141 12t60 43q0 14 -18 26.5t-75 37.5q-27 12 -46.5 23.5t-41.5 29.5t-34 42t-12 52q0 82 107 147t281 74l24 -154q-99 0 -143 -9t-44 -35q0 -21 86 -54l6 -3q26 -10 43.5 -18.5t42 -25.5t38 -41.5t13.5 -54.5q0 -40 -24 -79t-71 -73.5t-127 -59
t-183 -32.5z" />
    <glyph glyph-name="t" unicode="t" horiz-adv-x="601" 
d="M412 0h-222q2 44 2 235v215q-55 0 -195 -5v157q72 -7 267 -7h79q183 0 260 7v-157q-85 5 -194 5v-228q0 -196 3 -222z" />
    <glyph glyph-name="u" unicode="u" horiz-adv-x="772" 
d="M282 451v-57q0 -107 8 -156t33 -76q27 -28 70 -28q48 0 74 37q18 25 22 67.5t4 192.5v32q0 26 -1 55t-2.5 57t-1.5 37h220q0 -4 0.5 -57t0.5 -93v-40q0 -134 -15.5 -209.5t-63.5 -130.5q-41 -46 -106.5 -71t-142.5 -25q-182 0 -258 107q-35 49 -48 115.5t-13 215.5v46
q0 22 0.5 72t0.5 57h224q-5 -37 -5 -148z" />
    <glyph glyph-name="v" unicode="v" horiz-adv-x="734" 
d="M551 623l197 -94q-12 -17 -175 -263t-202 -302h-19q-33 47 -92 140t-107.5 172t-99 160.5t-52.5 85.5l200 101q33 -66 173 -351q16 34 95 190t82 161z" />
    <glyph glyph-name="w" unicode="w" horiz-adv-x="969" 
d="M794 607l190 -71q-4 -7 -132 -265t-149 -293h-13q-32 38 -200 260q-27 -36 -107 -144t-102 -137h-13q-16 28 -70.5 151t-115.5 265t-75 173l197 69q87 -274 111 -340q6 11 29.5 46.5t67.5 101.5l76 114h13q94 -134 180 -246h2q9 22 55.5 158t55.5 158z" />
    <glyph glyph-name="x" unicode="x" horiz-adv-x="728" 
d="M168 -38l-146 138q8 9 100.5 100.5t105.5 105.5q-167 170 -186 191l161 139q18 -21 86 -104t81 -98q12 13 84 95.5t93 106.5l151 -135q-11 -11 -101 -92.5t-102 -93.5q18 -18 109 -108.5t99 -98.5l-161 -145q-15 17 -94 110t-95 111q-11 -11 -93 -111t-92 -111z" />
    <glyph glyph-name="y" unicode="y" horiz-adv-x="714" 
d="M460 0h-225q5 100 5 121v35q0 80 -30.5 139t-83.5 93q-10 7 -21 12t-23 9l-19.5 6.5t-21 6t-17.5 4.5l70 194q107 -30 172 -89q57 -55 87 -145h7q28 80 99 144q74 65 173 92l57 -195q-84 -17 -138 -57q-43 -32 -69 -87t-26 -125v-53q0 -71 4 -105z" />
    <glyph glyph-name="z" unicode="z" horiz-adv-x="660" 
d="M66 466l3 154q23 -3 279 -12t270 -10l7 -11q-19 -32 -149.5 -233t-138.5 -209q221 0 273 6l-4 -160q-9 0 -279.5 4.5t-292.5 4.5l-7 12q20 28 151.5 230.5t142.5 215.5q-16 0 -129.5 4t-125.5 4z" />
    <glyph glyph-name="braceleft" unicode="{" horiz-adv-x="380" 
d="M313 791l41 -116q-40 -5 -57 -43t-17 -122q0 -45 -24.5 -86t-66.5 -61q91 -43 91 -167q0 -93 17.5 -127.5t56.5 -38.5l-41 -116q-105 9 -148 75t-48 207q-2 66 -25.5 86t-76.5 20v111q53 0 77 19t26 81q4 134 47 197.5t148 80.5z" />
    <glyph glyph-name="bar" unicode="|" horiz-adv-x="373" 
d="M254 -250h-134v1000h134v-1000z" />
    <glyph glyph-name="braceright" unicode="}" horiz-adv-x="380" 
d="M67 -86l-41 116q40 5 57 43t17 122q0 47 25 89t69 64q-94 45 -94 161q0 93 -17.5 127.5t-56.5 38.5l41 116q105 -9 148 -74.5t48 -202.5q3 -66 26 -86t76 -20v-111q-53 0 -77 -19t-26 -81q-4 -137 -47 -201.5t-148 -81.5z" />
    <glyph glyph-name="asciitilde" unicode="~" horiz-adv-x="596" 
d="M154 176h-123q0 117 35 169t115 51q62 0 143 -43q68 -37 89 -37t27 77h125q2 -69 -10 -115.5t-35.5 -68.5t-48.5 -30.5t-58 -8.5q-56 0 -142 49q-63 35 -78 35q-27 0 -39 -78z" />
    <glyph glyph-name="uni00A0" unicode="&#xa0;" horiz-adv-x="250" 
 />
    <glyph glyph-name="exclamdown" unicode="&#xa1;" horiz-adv-x="330" 
d="M262 710v-151h-167v151h167zM110 465l134 9q1 -17 19.5 -213.5t22.5 -268.5l-243 9q5 43 33 223t34 241z" />
    <glyph glyph-name="cent" unicode="&#xa2;" horiz-adv-x="817" 
d="M355 -16l2 145q-106 32 -150.5 88.5t-44.5 120.5q0 161 195 259l-2 166h128l-3 -127q56 17 141 26l11 -166q-122 -8 -183.5 -47t-61.5 -96q0 -44 45 -63.5t108 -19.5q28 0 108 7l7 -154q-43 -8 -85 -8q-60 0 -90 1l3 -132h-128z" />
    <glyph glyph-name="sterling" unicode="&#xa3;" horiz-adv-x="817" 
d="M674 145v-150q-7 0 -218 2.5t-285 2.5q24 77 60 270q-64 -5 -86 -6l-1 96q29 0 97 5q3 33 10 66q29 133 132.5 208.5t263.5 86.5l12 -160q-71 -2 -100 -14q-68 -29 -96 -137q-1 -3 -7 -44q29 2 90 7.5t68 5.5l-4 -103q-65 -2 -169 -7q-23 -99 -52 -139q152 0 285 10z" />
    <glyph glyph-name="currency" unicode="&#xa4;" horiz-adv-x="695" 
d="M661 545l-100 -83q1 -1 6 -8l7.5 -10.5t7 -12t7.5 -16.5t6 -19t4.5 -24t1.5 -28q0 -75 -47 -124l98 -85l-90 -88l-82 103q-50 -40 -131 -40q-34 0 -72 11t-60 31l-85 -105l-89 88l100 89q-46 48 -46 124q0 12 1.5 23.5t3 20t4.5 17.5t5.5 14.5t7 12.5t6 10t6 9t5.5 7
l-102 84l90 92l93 -98q49 34 130 34h1q73 0 132 -32l91 97zM466 346q0 52 -36 74.5t-81 22.5h-1q-44 0 -80 -23.5t-36 -72.5q0 -56 36.5 -81t80.5 -25q25 0 49.5 8.5t46 33.5t21.5 63z" />
    <glyph glyph-name="yen" unicode="&#xa5;" horiz-adv-x="817" 
d="M504 0h-205q5 125 5 152v50q-104 1 -158 -1l-2 97q52 -2 148 -1q-40 54 -122 169.5t-96 134.5l175 114q123 -225 158 -286h2q61 99 165 286l170 -105q-8 -11 -54 -74t-95.5 -129.5t-84.5 -110.5q96 0 146 2l2 -97q-48 2 -160 2v-71q0 -69 6 -132z" />
    <glyph glyph-name="brokenbar" unicode="&#xa6;" horiz-adv-x="373" 
d="M254 324h-134v350h134v-350zM254 -176h-134v350h134v-350z" />
    <glyph glyph-name="section" unicode="&#xa7;" horiz-adv-x="600" 
d="M560 306q0 -87 -96 -127q41 -32 41 -81q0 -71 -98.5 -133.5t-294.5 -80.5l-22 135q217 2 217 59q0 5 -1.5 9t-5 8t-7.5 7t-11 7t-13.5 7t-18 7.5t-20.5 8t-24 9t-27 10.5q-28 11 -38 15t-34.5 17.5t-35 25.5t-21 33.5t-10.5 46.5q0 34 25 66.5t83 51.5q-46 32 -46 84
q0 79 99 130.5t271 66.5l19 -131q-182 5 -182 -50q0 -26 101 -63l15 -6q33 -13 53 -22.5t41 -25t31 -36.5t10 -48zM402 266q0 26 -17.5 39t-61.5 28q-73 26 -90 35q-35 -19 -35 -46q0 -22 16.5 -35t55.5 -28q88 -33 104 -40q28 19 28 47z" />
    <glyph glyph-name="dieresis" unicode="&#xa8;" 
d="M326 775l-85 85l85 85l85 -85zM576 775l-85 85l85 85l85 -85z" />
    <glyph glyph-name="copyright" unicode="&#xa9;" horiz-adv-x="852" 
d="M421 -16q-168 0 -274.5 103.5t-106.5 262.5q0 162 110 269t281 107t276 -102t105 -264t-110 -269t-281 -107zM422 56q132 0 214.5 83t82.5 217q0 130 -82.5 214t-204.5 84q-132 0 -215.5 -82t-83.5 -216q0 -130 83.5 -215t205.5 -85zM538 280l5 -95q-23 -3 -48 -3
q-62 0 -108 14t-69 33t-36.5 43t-16.5 37.5t-3 23.5q0 67 62 131t178 90l21 -101q-47 -10 -88.5 -38t-41.5 -64q0 -33 26 -53t70 -20q32 0 49 2z" />
    <glyph glyph-name="ordfeminine" unicode="&#xaa;" horiz-adv-x="518" 
d="M147 334l-129 68q30 46 116 176.5t101 149.5l39 8q87 -130 223 -326l-135 -75q-10 27 -32 71l-155 -7q-11 -25 -28 -65zM204 483l97 6q-8 16 -28 47.5t-23 37.5q-3 -5 -12.5 -23.5l-19 -37t-14.5 -30.5z" />
    <glyph glyph-name="guillemotleft" unicode="&#xab;" horiz-adv-x="555" 
d="M201 515l78 -65q-85 -89 -99 -107q60 -64 103 -103l-71 -75q-7 8 -153 175q34 43 142 175zM425 545l79 -78q-6 -6 -34.5 -33.5t-49.5 -48.5t-30 -35q46 -51 114 -117l-79 -82q-5 7 -170 194q15 19 83.5 97.5t86.5 102.5z" />
    <glyph glyph-name="logicalnot" unicode="&#xac;" horiz-adv-x="596" 
d="M40 434h516v-334h-129v214h-387v120z" />
    <glyph glyph-name="uni00AD" unicode="&#xad;" horiz-adv-x="420" 
d="M44 280l-5 155q213 -4 339 -2l3 -141q-37 1 -168.5 -4t-168.5 -8z" />
    <glyph glyph-name="registered" unicode="&#xae;" horiz-adv-x="852" 
d="M421 -16q-168 0 -274.5 103.5t-106.5 262.5q0 162 110 269t281 107t276 -102t105 -264t-110 -269t-281 -107zM422 56q132 0 214.5 83t82.5 217q0 130 -82.5 214t-204.5 84q-132 0 -215.5 -82t-83.5 -216q0 -130 83.5 -215t205.5 -85zM378 465v-121q0 -129 3 -153l-111 1
q1 6 1 181v41q0 108 -2 128q166 0 217 -9q45 -8 72 -30.5t27 -54.5q0 -55 -64 -101q66 -75 95 -101l-86 -64q-1 2 -57.5 78t-65.5 88q24 12 42 31.5t18 37.5q0 49 -89 48z" />
    <glyph glyph-name="macron" unicode="&#xaf;" 
d="M308 780l8 86l278 3l-4 -94z" />
    <glyph glyph-name="degree" unicode="&#xb0;" horiz-adv-x="451" 
d="M424 500q0 -75 -55 -130t-143 -55q-85 0 -142 55t-58 133q0 76 56 130t143 54h1q81 0 139.5 -55t58.5 -132zM306 502q0 36 -24 60t-57 24h-1q-36 0 -58 -24t-22 -59q0 -38 22 -62.5t59 -24.5q36 0 58.5 24.5t22.5 61.5z" />
    <glyph glyph-name="plusminus" unicode="&#xb1;" horiz-adv-x="596" 
d="M234 596h128v-164h194v-120h-194v-167h-128v167h-194v120h194v164zM40 120h516v-120h-516v120z" />
    <glyph glyph-name="twosuperior" unicode="&#xb2;" horiz-adv-x="410" 
d="M385 387v-118q-11 1 -109 3q-110 2 -168 2h-64l-16 41q75 44 124.5 99.5t49.5 108.5q0 46 -38 68.5t-100 24.5l13 106q151 -11 222.5 -57t71.5 -114q0 -81 -121 -169q-4 -3 -6 -4v-3z" />
    <glyph glyph-name="threesuperior" unicode="&#xb3;" horiz-adv-x="395" 
d="M76 628l8 96q123 -2 200 -30t77 -84q0 -32 -28.5 -61t-60.5 -41v-5q106 -22 106 -93q0 -49 -54 -85t-124.5 -51t-134.5 -12l-2 100q140 -4 140 49q0 48 -103 59l-2 50q36 0 65.5 18t29.5 44q0 16 -12.5 26.5t-32 14.5t-37 5t-35.5 0z" />
    <glyph glyph-name="acute" unicode="&#xb4;" 
d="M371 834l171 118l57 -101l-189 -86z" />
    <glyph glyph-name="mu" unicode="&#xb5;" horiz-adv-x="596" 
d="M400 0v72h-2q-17 -27 -22.5 -35t-19.5 -23.5t-29 -20.5t-37 -5q-32 0 -49 10t-38 38l-2 -2q0 -7 3 -37t3 -45v-144h-144v694h144v-305q0 -55 21 -84t73 -29q99 0 99 129v289h133v-502h-133z" />
    <glyph glyph-name="paragraph" unicode="&#xb6;" horiz-adv-x="658" 
d="M585 684q-1 -12 -3.5 -153t-2.5 -165v-110q0 -229 3 -298h-147q4 92 4 299v110l-2 194l-78 -7q-3 -179 -3 -187v-110q0 -230 3 -299h-146q4 92 4 264v32q-185 56 -185 193q0 58 37.5 104t97.5 71.5t134.5 43.5t147 19t136.5 -1z" />
    <glyph glyph-name="periodcentered" unicode="&#xb7;" horiz-adv-x="310" 
d="M72 265v155h166v-155h-166z" />
    <glyph glyph-name="cedilla" unicode="&#xb8;" horiz-adv-x="720" 
d="M323 10h98l-38 -73q31 -8 52.5 -30.5t21.5 -54.5q0 -48 -53.5 -78t-146.5 -37l-10 68q43 2 72 15.5t30 38.5q1 19 -19.5 32.5t-55.5 22.5z" />
    <glyph glyph-name="onesuperior" unicode="&#xb9;" horiz-adv-x="380" 
d="M296 274h-161q0 5 0.5 32t1.5 68t1 78v118q-16 -9 -36.5 -21t-27.5 -16l-40 78q6 3 47 28.5t88.5 55t61.5 38.5l68 -23q-5 -100 -5 -182v-93q0 -142 2 -161z" />
    <glyph glyph-name="ordmasculine" unicode="&#xba;" horiz-adv-x="507" 
d="M233 350q-99 0 -153.5 50.5t-54.5 123.5q0 79 63 140.5t181 61.5q101 0 157.5 -46.5t55.5 -130.5q0 -34 -13.5 -67t-40.5 -63.5t-77.5 -49.5t-117.5 -19zM244 444q39 0 62 28.5t23 75.5q0 40 -20.5 62t-50.5 22q-32 0 -56.5 -28t-24.5 -74q0 -37 18.5 -61.5t48.5 -24.5z
" />
    <glyph glyph-name="guillemotright" unicode="&#xbb;" horiz-adv-x="555" 
d="M354 181l-78 65q85 89 99 107q-60 64 -103 103l71 75q7 -8 153 -175q-34 -43 -142 -175zM130 151l-79 78q6 6 34.5 33.5t49.5 48.5t30 35q-46 51 -114 117l79 82q5 -7 170 -194q-15 -19 -83.5 -97.5t-86.5 -102.5z" />
    <glyph glyph-name="onequarter" unicode="&#xbc;" horiz-adv-x="945" 
d="M895 163l-4 -89l-67 1v-22q0 -13 2 -53h-131q0 6 2 28.5t2 34.5v12h-209l-23 56l273 328l84 -18v-281zM702 159v143q-12 -25 -55 -80q-21 -28 -54 -63h109zM707 670q-73 -98 -205 -321q-94 -158 -214 -370l-97 62q11 19 46.5 77t79 131t85.5 143q33 55 83 136.5
t79.5 130.5t42.5 72zM289 710q-5 -100 -5 -182v-93q0 -142 2 -161h-161q0 5 0.5 32t1.5 68t1 78v118q-16 -9 -36.5 -21t-27.5 -16l-40 78q6 3 47 28.5t88.5 55t61.5 38.5z" />
    <glyph glyph-name="onehalf" unicode="&#xbd;" horiz-adv-x="985" 
d="M935 -5q-45 5 -277 5h-64l-16 41q75 44 124.5 99.5t49.5 108.5q0 46 -38 68.5t-100 24.5l13 106q151 -11 222.5 -57t71.5 -114q0 -81 -121 -169q-4 -3 -6 -4v-3l141 12v-118zM727 670q-73 -98 -205 -321q-94 -158 -214 -370l-97 62q11 19 46.5 77t79 131t85.5 143
q33 55 83 136.5t79.5 130.5t42.5 72zM289 710q-5 -100 -5 -182v-93q0 -142 2 -161h-161q0 5 0.5 32t1.5 68t1 78v118q-16 -9 -36.5 -21t-27.5 -16l-40 78q6 3 47 28.5t88.5 55t61.5 38.5z" />
    <glyph glyph-name="threequarters" unicode="&#xbe;" horiz-adv-x="955" 
d="M905 163l-4 -89l-67 1v-22q0 -13 2 -53h-131q0 6 2 28.5t2 34.5v12h-209l-23 56l273 328l84 -18v-281zM712 159v143q-13 -25 -55 -80q-21 -28 -54 -63h109zM737 670q-73 -98 -205 -321q-94 -158 -214 -370l-97 62q11 19 46.5 77t79 131t85.5 143q33 55 83 136.5
t79.5 130.5t42.5 72zM378 410q0 -49 -54 -85t-124.5 -51t-134.5 -12l-2 100q140 -4 140 49q0 48 -103 59l-2 50q36 0 65.5 18t29.5 44q0 16 -12.5 26.5t-32 14.5t-37 5t-35.5 0l8 96q123 -2 200 -30t77 -84q0 -32 -28.5 -61t-60.5 -41v-5q106 -22 106 -93z" />
    <glyph glyph-name="questiondown" unicode="&#xbf;" horiz-adv-x="530" 
d="M492 132l-23 -152q-196 22 -306 81.5t-110 150.5q0 56 28.5 104.5t76.5 83t103.5 58.5t117.5 38l38 -120q-19 -5 -39 -13.5t-42.5 -23.5t-36.5 -39.5t-14 -54.5q0 -53 64.5 -81.5t142.5 -31.5zM403 710v-151h-167v151h167z" />
    <glyph glyph-name="Agrave" unicode="&#xc0;" horiz-adv-x="845" 
d="M190 -32l-190 106q292 496 404 673h10q48 -72 150.5 -230.5t182.5 -282t98 -148.5l-198 -117q-17 29 -53 91t-37 64l-301 -17q-5 -9 -66 -139zM320 255l169 9q-7 15 -40.5 80t-43.5 89q-33 -66 -85 -178zM328 972l165 -118l-43 -69l-184 86z" />
    <glyph glyph-name="Aacute" unicode="&#xc1;" horiz-adv-x="845" 
d="M190 -32l-190 106q292 496 404 673h10q48 -72 150.5 -230.5t182.5 -282t98 -148.5l-198 -117q-17 29 -53 91t-37 64l-301 -17q-5 -9 -66 -139zM320 255l169 9q-7 15 -40.5 80t-43.5 89q-33 -66 -85 -178zM322 854l171 118l57 -101l-189 -86z" />
    <glyph glyph-name="Acircumflex" unicode="&#xc2;" horiz-adv-x="845" 
d="M190 -32l-190 106q292 496 404 673h10q48 -72 150.5 -230.5t182.5 -282t98 -148.5l-198 -117q-17 29 -53 91t-37 64l-301 -17q-5 -9 -66 -139zM320 255l169 9q-7 15 -40.5 80t-43.5 89q-33 -66 -85 -178zM241 843l161 100l152 -100l-53 -78l-104 78l-108 -78z" />
    <glyph glyph-name="Atilde" unicode="&#xc3;" horiz-adv-x="845" 
d="M190 -32l-190 106q292 496 404 673h10q48 -72 150.5 -230.5t182.5 -282t98 -148.5l-198 -117q-17 29 -53 91t-37 64l-301 -17q-5 -9 -66 -139zM320 255l169 9q-7 15 -40.5 80t-43.5 89q-33 -66 -85 -178zM300 770l-68 28q13 47 42.5 77.5t62.5 30.5q16 0 30 -3t32 -10
t22 -8q36 -14 54 -14q30 1 50 45l69 -29q-17 -54 -44 -80t-57 -27q-25 0 -83 20q-39 15 -60 15q-33 0 -50 -45z" />
    <glyph glyph-name="Adieresis" unicode="&#xc4;" horiz-adv-x="845" 
d="M190 -32l-190 106q292 496 404 673h10q48 -72 150.5 -230.5t182.5 -282t98 -148.5l-198 -117q-17 29 -53 91t-37 64l-301 -17q-5 -9 -66 -139zM320 255l169 9q-7 15 -40.5 80t-43.5 89q-33 -66 -85 -178zM282 775l-85 85l85 85l85 -85zM532 775l-85 85l85 85l85 -85z" />
    <glyph glyph-name="Aring" unicode="&#xc5;" horiz-adv-x="845" 
d="M320 255l169 9q-7 15 -40.5 80t-43.5 89q-33 -66 -85 -178zM190 -32l-190 106q318 534 374 624q-49 5 -77 28.5t-27 62.5q1 48 37 75.5t97 27.5q130 0 130 -90q0 -82 -91 -100q49 -74 145 -222t168 -259.5t89 -134.5l-198 -117q-17 29 -53 91t-37 64l-301 -17
q-5 -9 -66 -139zM403 841q-19 0 -33.5 -12.5t-14.5 -35.5q0 -21 13.5 -33.5t32.5 -12.5q21 0 35 12.5t14 37.5q0 20 -13 32t-34 12z" />
    <glyph glyph-name="AE" unicode="&#xc6;" horiz-adv-x="1005" 
d="M933 160l4 -170q-15 0 -221 5t-213 5q2 46 2 160v24l-215 -5q-10 -15 -115 -195l-166 118q21 35 182.5 272.5t232.5 335.5q54 0 265 7.5t228 10.5l4 -162q-13 0 -109 -2.5t-105 -2.5v-137q77 0 182 10l2 -158q-96 4 -184 4v-123q182 0 226 3zM355 312l150 6v224h-8
q-21 -33 -75 -121t-67 -109z" />
    <glyph glyph-name="Ccedilla" unicode="&#xc7;" horiz-adv-x="645" 
d="M592 175l10 -183q-70 -8 -118 -8q-56 0 -103 6l-25 -48q31 -8 52.5 -30.5t21.5 -54.5q0 -48 -53.5 -78t-146.5 -37l-10 68q43 2 72 15.5t30 38.5q1 19 -19.5 32.5t-55.5 22.5l45 89q-129 35 -193 112.5t-64 164.5q0 64 30 129t88 125.5t156 110t222 76.5l44 -192
q-150 -27 -223 -87.5t-73 -136.5q0 -59 60 -99.5t157 -40.5q36 0 96 5z" />
    <glyph glyph-name="Egrave" unicode="&#xc8;" horiz-adv-x="622" 
d="M550 162l4 -172q-16 0 -218.5 5t-230.5 5q3 53 3 290v134q0 199 -3 286q39 0 218.5 7.5t210.5 10.5l4 -165q-21 0 -113 -2.5t-99 -2.5v-132q80 0 179 9l3 -160q-14 0 -93 2t-89 2v-119q200 0 224 2zM226 952l165 -118l-43 -69l-184 86z" />
    <glyph glyph-name="Eacute" unicode="&#xc9;" horiz-adv-x="622" 
d="M550 162l4 -172q-16 0 -218.5 5t-230.5 5q3 53 3 290v134q0 199 -3 286q39 0 218.5 7.5t210.5 10.5l4 -165q-21 0 -113 -2.5t-99 -2.5v-132q80 0 179 9l3 -160q-14 0 -93 2t-89 2v-119q200 0 224 2zM231 834l171 118l57 -101l-189 -86z" />
    <glyph glyph-name="Ecircumflex" unicode="&#xca;" horiz-adv-x="622" 
d="M550 162l4 -172q-16 0 -218.5 5t-230.5 5q3 53 3 290v134q0 199 -3 286q39 0 218.5 7.5t210.5 10.5l4 -165q-21 0 -113 -2.5t-99 -2.5v-132q80 0 179 9l3 -160q-14 0 -93 2t-89 2v-119q200 0 224 2zM155 843l161 100l152 -100l-53 -78l-104 78l-108 -78z" />
    <glyph glyph-name="Edieresis" unicode="&#xcb;" horiz-adv-x="622" 
d="M550 162l4 -172q-16 0 -218.5 5t-230.5 5q3 53 3 290v134q0 199 -3 286q39 0 218.5 7.5t210.5 10.5l4 -165q-21 0 -113 -2.5t-99 -2.5v-132q80 0 179 9l3 -160q-14 0 -93 2t-89 2v-119q200 0 224 2zM186 775l-85 85l85 85l85 -85zM436 775l-85 85l85 85l85 -85z" />
    <glyph glyph-name="Igrave" unicode="&#xcc;" horiz-adv-x="441" 
d="M333 410v-108q0 -210 4 -302h-232q3 66 3 304v108q0 8 -1.5 146.5t-1.5 151.5h232q-4 -72 -4 -300zM126 952l165 -118l-43 -69l-184 86z" />
    <glyph glyph-name="Iacute" unicode="&#xcd;" horiz-adv-x="441" 
d="M333 410v-108q0 -210 4 -302h-232q3 66 3 304v108q0 8 -1.5 146.5t-1.5 151.5h232q-4 -72 -4 -300zM150 834l171 118l57 -101l-189 -86z" />
    <glyph glyph-name="Icircumflex" unicode="&#xce;" horiz-adv-x="441" 
d="M333 410v-108q0 -210 4 -302h-232q3 66 3 304v108q0 8 -1.5 146.5t-1.5 151.5h232q-4 -72 -4 -300zM65 843l161 100l152 -100l-53 -78l-104 78l-108 -78z" />
    <glyph glyph-name="Idieresis" unicode="&#xcf;" horiz-adv-x="441" 
d="M333 410v-108q0 -210 4 -302h-232q3 66 3 304v108q0 8 -1.5 146.5t-1.5 151.5h232q-4 -72 -4 -300zM96 775l-85 85l85 85l85 -85zM346 775l-85 85l85 85l85 -85z" />
    <glyph glyph-name="Eth" unicode="&#xd0;" horiz-adv-x="840" 
d="M18 303l-4 113l94 3v21q0 235 -5 270q255 0 384 -18q75 -10 132.5 -32.5t90.5 -48.5t54 -58.5t28 -59.5t7 -54q0 -91 -41.5 -166.5t-110.5 -126t-160.5 -85.5t-188 -50.5t-196.5 -15.5q6 68 6 312zM451 432l-4 -110l-121 -5v-140q55 9 106 34t90 76t39 117
q0 146 -235 146v-123z" />
    <glyph glyph-name="Ntilde" unicode="&#xd1;" horiz-adv-x="895" 
d="M278 -7l-204 7q3 33 19 339t21 377l10 6q63 -46 178 -132t213.5 -160.5t106.5 -80.5q0 13 -1.5 177t-0.5 189l204 -5q-5 -66 -24 -373q-11 -194 -18 -352l-10 -5q-54 35 -180.5 131t-205.5 158t-110 87q0 -297 2 -363zM351 770l-68 28q13 47 42.5 77.5t62.5 30.5
q16 0 30 -3t32 -10t22 -8q36 -14 54 -14q30 1 50 45l69 -29q-17 -54 -44 -80t-57 -27q-26 0 -83 20q-39 15 -60 15q-33 0 -50 -45z" />
    <glyph glyph-name="Ograve" unicode="&#xd2;" 
d="M426 -16q-96 0 -172.5 30.5t-121.5 81t-68.5 109.5t-23.5 121q0 74 27 144t79 128t137.5 93t191.5 35q179 0 283 -94t104 -258q0 -49 -12.5 -99t-45 -103.5t-80 -94.5t-125 -67t-173.5 -26zM437 139q83 0 131 59t49 169q1 96 -40.5 150t-114.5 54q-82 0 -130 -67
t-48 -163t44 -149t109 -53zM356 952l165 -118l-43 -69l-184 86z" />
    <glyph glyph-name="Oacute" unicode="&#xd3;" 
d="M426 -16q-96 0 -172.5 30.5t-121.5 81t-68.5 109.5t-23.5 121q0 74 27 144t79 128t137.5 93t191.5 35q179 0 283 -94t104 -258q0 -49 -12.5 -99t-45 -103.5t-80 -94.5t-125 -67t-173.5 -26zM437 139q83 0 131 59t49 169q1 96 -40.5 150t-114.5 54q-82 0 -130 -67
t-48 -163t44 -149t109 -53zM371 834l171 118l57 -101l-189 -86z" />
    <glyph glyph-name="Ocircumflex" unicode="&#xd4;" 
d="M426 -16q-96 0 -172.5 30.5t-121.5 81t-68.5 109.5t-23.5 121q0 74 27 144t79 128t137.5 93t191.5 35q179 0 283 -94t104 -258q0 -49 -12.5 -99t-45 -103.5t-80 -94.5t-125 -67t-173.5 -26zM437 139q83 0 131 59t49 169q1 96 -40.5 150t-114.5 54q-82 0 -130 -67
t-48 -163t44 -149t109 -53zM305 843l161 100l152 -100l-53 -78l-104 78l-108 -78z" />
    <glyph glyph-name="Otilde" unicode="&#xd5;" 
d="M426 -16q-96 0 -172.5 30.5t-121.5 81t-68.5 109.5t-23.5 121q0 74 27 144t79 128t137.5 93t191.5 35q179 0 283 -94t104 -258q0 -49 -12.5 -99t-45 -103.5t-80 -94.5t-125 -67t-173.5 -26zM437 139q83 0 131 59t49 169q1 96 -40.5 150t-114.5 54q-82 0 -130 -67
t-48 -163t44 -149t109 -53zM339 770l-68 28q13 47 42.5 77.5t62.5 30.5q16 0 30 -3t32 -10t22 -8q36 -14 54 -14q30 1 50 45l69 -29q-17 -54 -44 -80t-57 -27q-26 0 -83 20q-39 15 -60 15q-33 0 -50 -45z" />
    <glyph glyph-name="Odieresis" unicode="&#xd6;" 
d="M426 -16q-96 0 -172.5 30.5t-121.5 81t-68.5 109.5t-23.5 121q0 74 27 144t79 128t137.5 93t191.5 35q179 0 283 -94t104 -258q0 -49 -12.5 -99t-45 -103.5t-80 -94.5t-125 -67t-173.5 -26zM437 139q83 0 131 59t49 169q1 96 -40.5 150t-114.5 54q-82 0 -130 -67
t-48 -163t44 -149t109 -53zM326 775l-85 85l85 85l85 -85zM576 775l-85 85l85 85l85 -85z" />
    <glyph glyph-name="multiply" unicode="&#xd7;" horiz-adv-x="596" 
d="M40 442l85 84l173 -178l173 178l85 -84l-175 -179l175 -180l-83 -83l-175 179l-175 -179l-83 83l175 180z" />
    <glyph glyph-name="Oslash" unicode="&#xd8;" 
d="M617 447l-277 -272q35 -36 101 -36q27 0 55 10.5t57.5 34.5t48 73.5t18.5 117.5q0 42 -3 72zM285 274l277 265q-33 32 -101 32q-82 0 -130.5 -69t-48.5 -167q0 -37 3 -61zM119 -40l-76 87l73 67q-76 91 -76 209q0 76 26.5 146t78 128.5t138 93.5t197.5 35q129 0 221 -54
l76 78l82 -82l-72 -64q75 -92 75 -225q0 -50 -12.5 -100.5t-44.5 -104.5t-80 -95.5t-127 -68t-178 -26.5q-125 0 -219 58z" />
    <glyph glyph-name="Ugrave" unicode="&#xd9;" horiz-adv-x="848" 
d="M301 531v-68q0 -125 9 -184.5t37 -92.5q31 -36 85 -36q58 0 89 47q20 30 24.5 82.5t4.5 227.5v38q0 31 -1 65t-2.5 66.5t-1.5 43.5h229q0 -4 0.5 -67t0.5 -110v-46q0 -159 -17 -248t-70 -153q-92 -112 -269 -112q-194 0 -280 125q-38 57 -52 135t-14 255v54
q0 26 0.5 84.5t0.5 67.5h233q-6 -39 -6 -174zM339 952l165 -118l-43 -69l-184 86z" />
    <glyph glyph-name="Uacute" unicode="&#xda;" horiz-adv-x="848" 
d="M301 531v-68q0 -125 9 -184.5t37 -92.5q31 -36 85 -36q58 0 89 47q20 30 24.5 82.5t4.5 227.5v38q0 31 -1 65t-2.5 66.5t-1.5 43.5h229q0 -4 0.5 -67t0.5 -110v-46q0 -159 -17 -248t-70 -153q-92 -112 -269 -112q-194 0 -280 125q-38 57 -52 135t-14 255v54
q0 26 0.5 84.5t0.5 67.5h233q-6 -39 -6 -174zM344 834l171 118l57 -101l-189 -86z" />
    <glyph glyph-name="Ucircumflex" unicode="&#xdb;" horiz-adv-x="848" 
d="M301 531v-68q0 -125 9 -184.5t37 -92.5q31 -36 85 -36q58 0 89 47q20 30 24.5 82.5t4.5 227.5v38q0 31 -1 65t-2.5 66.5t-1.5 43.5h229q0 -4 0.5 -67t0.5 -110v-46q0 -159 -17 -248t-70 -153q-92 -112 -269 -112q-194 0 -280 125q-38 57 -52 135t-14 255v54
q0 26 0.5 84.5t0.5 67.5h233q-6 -39 -6 -174zM273 843l161 100l152 -100l-53 -78l-104 78l-108 -78z" />
    <glyph glyph-name="Udieresis" unicode="&#xdc;" horiz-adv-x="848" 
d="M301 531v-68q0 -125 9 -184.5t37 -92.5q31 -36 85 -36q58 0 89 47q20 30 24.5 82.5t4.5 227.5v38q0 31 -1 65t-2.5 66.5t-1.5 43.5h229q0 -4 0.5 -67t0.5 -110v-46q0 -159 -17 -248t-70 -153q-92 -112 -269 -112q-194 0 -280 125q-38 57 -52 135t-14 255v54
q0 26 0.5 84.5t0.5 67.5h233q-6 -39 -6 -174zM299 775l-85 85l85 85l85 -85zM549 775l-85 85l85 85l85 -85z" />
    <glyph glyph-name="Yacute" unicode="&#xdd;" horiz-adv-x="785" 
d="M499 0h-235q5 115 5 142v44q0 94 -36 169t-94 113q-51 35 -113 52l77 206q124 -41 188 -105q66 -66 97 -167h8q29 88 110 166q78 74 188 106l63 -206q-82 -17 -151 -75q-48 -39 -80 -107.5t-32 -149.5v-65q0 -73 5 -123zM313 834l171 118l57 -101l-189 -86z" />
    <glyph glyph-name="Thorn" unicode="&#xde;" horiz-adv-x="730" 
d="M328 0h-225q5 108 5 355v110q0 13 -1.5 126t-1.5 119h224q-3 -44 -3 -91v-19q101 0 184 -18q176 -41 179 -192q2 -97 -93.5 -174.5t-269.5 -96.5v-19q0 -79 2 -100zM326 465v-209q21 3 42 9.5t43.5 19.5t36.5 36.5t14 54.5q0 84 -136 89z" />
    <glyph glyph-name="germandbls" unicode="&#xdf;" horiz-adv-x="1023" 
d="M78 -17l-23 152q81 -2 141 12t60 43q0 14 -18 26.5t-75 37.5q-27 12 -46.5 23.5t-41.5 29.5t-34 42t-12 52q0 82 107 147t281 74l24 -154q-99 0 -143 -9t-44 -35q0 -21 86 -54l6 -3q26 -10 43.5 -18.5t42 -25.5t38 -41.5t13.5 -54.5q0 -40 -24 -79t-71 -73.5t-127 -59
t-183 -32.5zM589 -17l-23 152q81 -2 141 12t60 43q0 14 -18 26.5t-75 37.5q-27 12 -46.5 23.5t-41.5 29.5t-34 42t-12 52q0 82 107 147t281 74l24 -154q-99 0 -143 -9t-44 -35q0 -21 86 -54l6 -3q26 -10 43.5 -18.5t42 -25.5t38 -41.5t13.5 -54.5q0 -40 -24 -79t-71 -73.5
t-127 -59t-183 -32.5z" />
    <glyph glyph-name="agrave" unicode="&#xe0;" horiz-adv-x="769" 
d="M180 -29l-180 92q2 3 54.5 88t103.5 167t112 177t93 140h19q59 -82 214.5 -311t172.5 -251l-184 -101q-15 23 -46 73.5t-34 54.5l-267 -13zM294 217l150 7q-12 24 -39 73t-36 67q-69 -134 -75 -147zM293 852l156 -112l-40 -65l-175 81z" />
    <glyph glyph-name="aacute" unicode="&#xe1;" horiz-adv-x="769" 
d="M180 -29l-180 92q2 3 54.5 88t103.5 167t112 177t93 140h19q59 -82 214.5 -311t172.5 -251l-184 -101q-15 23 -46 73.5t-34 54.5l-267 -13zM294 217l150 7q-12 24 -39 73t-36 67q-69 -134 -75 -147zM330 741l162 112l54 -96l-179 -81z" />
    <glyph glyph-name="acircumflex" unicode="&#xe2;" horiz-adv-x="769" 
d="M180 -29l-180 92q2 3 54.5 88t103.5 167t112 177t93 140h19q59 -82 214.5 -311t172.5 -251l-184 -101q-15 23 -46 73.5t-34 54.5l-267 -13zM294 217l150 7q-12 24 -39 73t-36 67q-69 -134 -75 -147zM237 754l153 95l144 -95l-50 -75l-99 75l-103 -75z" />
    <glyph glyph-name="atilde" unicode="&#xe3;" horiz-adv-x="769" 
d="M180 -29l-180 92q2 3 54.5 88t103.5 167t112 177t93 140h19q59 -82 214.5 -311t172.5 -251l-184 -101q-15 23 -46 73.5t-34 54.5l-267 -13zM294 217l150 7q-12 24 -39 73t-36 67q-69 -134 -75 -147zM279 685l-65 26q12 44 40.5 73.5t59.5 29.5q29 0 80 -21q34 -12 51 -12
q28 1 47 42l66 -27q-16 -52 -42 -77t-54 -25q-12 -1 -24 1t-18.5 4t-20 7.5t-16.5 6.5q-35 14 -57 14q-32 0 -47 -42z" />
    <glyph glyph-name="adieresis" unicode="&#xe4;" horiz-adv-x="769" 
d="M180 -29l-180 92q2 3 54.5 88t103.5 167t112 177t93 140h19q59 -82 214.5 -311t172.5 -251l-184 -101q-15 23 -46 73.5t-34 54.5l-267 -13zM294 217l150 7q-12 24 -39 73t-36 67q-69 -134 -75 -147zM266 689l-81 81l81 81l81 -81zM504 689l-81 81l81 81l81 -81z" />
    <glyph glyph-name="aring" unicode="&#xe5;" horiz-adv-x="769" 
d="M180 -29l-180 92q2 3 54.5 88t103.5 167t112 177t93 140h19q59 -82 214.5 -311t172.5 -251l-184 -101q-15 23 -46 73.5t-34 54.5l-267 -13zM294 217l150 7q-12 24 -39 73t-36 67q-69 -134 -75 -147zM379 682q-56 0 -87.5 22.5t-31.5 64.5q1 46 35 72t92 26q123 0 123 -85
q0 -48 -35 -74t-96 -26zM384 729q20 0 33.5 12.5t13.5 35.5q0 19 -12.5 30.5t-32.5 11.5q-18 0 -32 -12t-14 -34q0 -20 12.5 -32t31.5 -12z" />
    <glyph glyph-name="ae" unicode="&#xe6;" horiz-adv-x="920" 
d="M857 141l4 -150q-19 0 -208.5 4.5t-194.5 4.5q2 40 2 136v15l-190 -4q-11 -15 -103 -161l-160 103q23 35 168 235.5t207 279.5q47 0 243.5 6t216.5 9l4 -143q-11 0 -98.5 -2t-96.5 -2v-110q52 0 166 9l2 -138q-11 0 -84 1.5t-84 1.5v-98q156 0 206 3zM329 265l131 5v189
h-6q-68 -103 -125 -194z" />
    <glyph glyph-name="ccedilla" unicode="&#xe7;" horiz-adv-x="591" 
d="M375 -11l-27 -52q33 -8 54.5 -29.5t21.5 -52.5q0 -46 -51 -74.5t-139 -34.5l-10 64q41 2 68.5 15t28.5 37q0 34 -71 52l45 86q-128 25 -195.5 92.5t-67.5 149.5q0 55 27.5 111t81 108t143.5 94t203 62l40 -168q-133 -22 -197.5 -72t-64.5 -113q0 -51 50.5 -82t139.5 -31
q44 0 88 4l9 -162q-56 -7 -108 -7q-40 0 -69 3z" />
    <glyph glyph-name="egrave" unicode="&#xe8;" horiz-adv-x="569" 
d="M507 144l3 -153q-16 0 -202.5 4.5t-215.5 4.5q2 45 2 247v113q0 6 -1 118t-1 126q41 0 205.5 6.5t194.5 8.5l4 -146q-19 0 -103 -2.5t-90 -2.5v-103q83 0 163 8l2 -142q-12 0 -83.5 1.5t-81.5 1.5v-92q183 0 204 2zM217 852l156 -112l-40 -65l-175 81z" />
    <glyph glyph-name="eacute" unicode="&#xe9;" horiz-adv-x="569" 
d="M507 144l3 -153q-16 0 -202.5 4.5t-215.5 4.5q2 45 2 247v113q0 6 -1 118t-1 126q41 0 205.5 6.5t194.5 8.5l4 -146q-19 0 -103 -2.5t-90 -2.5v-103q83 0 163 8l2 -142q-12 0 -83.5 1.5t-81.5 1.5v-92q183 0 204 2zM250 741l162 112l54 -96l-179 -81z" />
    <glyph glyph-name="ecircumflex" unicode="&#xea;" horiz-adv-x="569" 
d="M507 144l3 -153q-16 0 -202.5 4.5t-215.5 4.5q2 45 2 247v113q0 6 -1 118t-1 126q41 0 205.5 6.5t194.5 8.5l4 -146q-19 0 -103 -2.5t-90 -2.5v-103q83 0 163 8l2 -142q-12 0 -83.5 1.5t-81.5 1.5v-92q183 0 204 2zM156 754l153 95l144 -95l-50 -75l-99 75l-103 -75z" />
    <glyph glyph-name="edieresis" unicode="&#xeb;" horiz-adv-x="569" 
d="M507 144l3 -153q-16 0 -202.5 4.5t-215.5 4.5q2 45 2 247v113q0 6 -1 118t-1 126q41 0 205.5 6.5t194.5 8.5l4 -146q-19 0 -103 -2.5t-90 -2.5v-103q83 0 163 8l2 -142q-12 0 -83.5 1.5t-81.5 1.5v-92q183 0 204 2zM175 689l-81 81l81 81l81 -81zM413 689l-81 81l81 81
l81 -81z" />
    <glyph glyph-name="igrave" unicode="&#xec;" horiz-adv-x="401" 
d="M308 349v-92q0 -177 4 -257h-222q2 74 2 258v92q0 7 -1 125t-1 129h222q-4 -64 -4 -255zM113 852l156 -112l-40 -65l-175 81z" />
    <glyph glyph-name="iacute" unicode="&#xed;" horiz-adv-x="401" 
d="M308 349v-92q0 -177 4 -257h-222q2 74 2 258v92q0 7 -1 125t-1 129h222q-4 -64 -4 -255zM156 741l162 112l54 -96l-179 -81z" />
    <glyph glyph-name="icircumflex" unicode="&#xee;" horiz-adv-x="401" 
d="M308 349v-92q0 -177 4 -257h-222q2 74 2 258v92q0 7 -1 125t-1 129h222q-4 -64 -4 -255zM62 754l153 95l144 -95l-50 -75l-99 75l-103 -75z" />
    <glyph glyph-name="idieresis" unicode="&#xef;" horiz-adv-x="401" 
d="M308 349v-92q0 -177 4 -257h-222q2 74 2 258v92q0 7 -1 125t-1 129h222q-4 -64 -4 -255zM82 689l-81 81l81 81l81 -81zM320 689l-81 81l81 81l81 -81z" />
    <glyph glyph-name="eth" unicode="&#xf0;" horiz-adv-x="762" 
d="M16 256l-3 100l81 2v16q0 198 -4 230q246 0 353 -14q68 -9 120.5 -28t82 -41.5t47.5 -50.5t24 -50.5t6 -46.5q0 -79 -37 -144.5t-98.5 -108.5t-143.5 -72.5t-171.5 -41.5t-183.5 -10q5 63 5 263zM410 369l-3 -97l-104 -5v-114q79 10 138.5 59t59.5 131q0 69 -53.5 95
t-144.5 27v-100z" />
    <glyph glyph-name="ntilde" unicode="&#xf1;" horiz-adv-x="797" 
d="M258 -6l-197 6q3 30 17.5 291t19.5 318l16 5q97 -63 254.5 -173t171.5 -125q0 15 -0.5 88t-0.5 122.5v81.5l196 -4q-11 -125 -22 -318q-14 -251 -16 -299l-16 -4q-61 37 -224 153t-200 146q0 -263 1 -288zM307 685l-65 26q12 44 40.5 73.5t59.5 29.5q29 0 80 -21
q34 -12 51 -12q28 1 47 42l66 -27q-16 -52 -42 -77t-54 -25q-12 -1 -24 1t-18.5 4t-20 7.5t-16.5 6.5q-35 14 -57 14q-32 0 -47 -42z" />
    <glyph glyph-name="ograve" unicode="&#xf2;" horiz-adv-x="825" 
d="M390 -14q-88 0 -157.5 26t-110.5 69t-62.5 93t-21.5 103q0 63 24.5 122.5t72 108.5t125 79t174.5 30q164 0 258 -79.5t94 -219.5q0 -41 -11.5 -83.5t-40.5 -88t-72 -80.5t-113.5 -57.5t-158.5 -22.5zM400 124q71 0 112 48t41 140q0 81 -34 124t-97 43q-71 0 -111 -54.5
t-40 -134.5t36.5 -123t92.5 -43zM321 852l156 -112l-40 -65l-175 81z" />
    <glyph glyph-name="oacute" unicode="&#xf3;" horiz-adv-x="825" 
d="M390 -14q-88 0 -157.5 26t-110.5 69t-62.5 93t-21.5 103q0 63 24.5 122.5t72 108.5t125 79t174.5 30q164 0 258 -79.5t94 -219.5q0 -41 -11.5 -83.5t-40.5 -88t-72 -80.5t-113.5 -57.5t-158.5 -22.5zM400 124q71 0 112 48t41 140q0 81 -34 124t-97 43q-71 0 -111 -54.5
t-40 -134.5t36.5 -123t92.5 -43zM379 741l162 112l54 -96l-179 -81z" />
    <glyph glyph-name="ocircumflex" unicode="&#xf4;" horiz-adv-x="825" 
d="M390 -14q-88 0 -157.5 26t-110.5 69t-62.5 93t-21.5 103q0 63 24.5 122.5t72 108.5t125 79t174.5 30q164 0 258 -79.5t94 -219.5q0 -41 -11.5 -83.5t-40.5 -88t-72 -80.5t-113.5 -57.5t-158.5 -22.5zM400 124q71 0 112 48t41 140q0 81 -34 124t-97 43q-71 0 -111 -54.5
t-40 -134.5t36.5 -123t92.5 -43zM274 754l153 95l144 -95l-50 -75l-99 75l-103 -75z" />
    <glyph glyph-name="otilde" unicode="&#xf5;" horiz-adv-x="825" 
d="M390 -14q-88 0 -157.5 26t-110.5 69t-62.5 93t-21.5 103q0 63 24.5 122.5t72 108.5t125 79t174.5 30q164 0 258 -79.5t94 -219.5q0 -41 -11.5 -83.5t-40.5 -88t-72 -80.5t-113.5 -57.5t-158.5 -22.5zM400 124q71 0 112 48t41 140q0 81 -34 124t-97 43q-71 0 -111 -54.5
t-40 -134.5t36.5 -123t92.5 -43zM321 685l-65 26q12 44 40.5 73.5t59.5 29.5q29 0 80 -21q34 -12 51 -12q28 1 47 42l66 -27q-16 -52 -42 -77t-54 -25q-12 -1 -24 1t-18.5 4t-20 7.5t-16.5 6.5q-35 14 -57 14q-32 0 -47 -42z" />
    <glyph glyph-name="odieresis" unicode="&#xf6;" horiz-adv-x="825" 
d="M390 -14q-88 0 -157.5 26t-110.5 69t-62.5 93t-21.5 103q0 63 24.5 122.5t72 108.5t125 79t174.5 30q164 0 258 -79.5t94 -219.5q0 -41 -11.5 -83.5t-40.5 -88t-72 -80.5t-113.5 -57.5t-158.5 -22.5zM400 124q71 0 112 48t41 140q0 81 -34 124t-97 43q-71 0 -111 -54.5
t-40 -134.5t36.5 -123t92.5 -43zM303 689l-81 81l81 81l81 -81zM541 689l-81 81l81 81l81 -81z" />
    <glyph glyph-name="divide" unicode="&#xf7;" horiz-adv-x="596" 
d="M298 353h-1q-43 0 -70 26t-27 70q0 45 26.5 70.5t70.5 25.5t70.5 -25.5t27.5 -70.5q1 -44 -26.5 -70t-70.5 -26zM556 207h-516v120h516v-120zM298 -11h-1q-43 0 -70 26t-27 70q0 45 26.5 70.5t70.5 25.5t70.5 -25.5t27.5 -70.5q1 -44 -26.5 -70t-70.5 -26z" />
    <glyph glyph-name="oslash" unicode="&#xf8;" horiz-adv-x="821" 
d="M559 376l-246 -225q31 -30 88 -30q25 0 50 8.5t51 28.5t42.5 61.5t16.5 99.5q0 31 -2 57zM263 237l244 220q-26 25 -87 25q-75 0 -117.5 -57t-42.5 -140q0 -28 3 -48zM110 -36l-73 78l67 57q-68 75 -68 176q0 64 24 123.5t71 109t126 79.5t180 30q118 0 199 -44l69 67
l79 -74l-66 -55q66 -73 66 -189q0 -42 -11 -85.5t-40.5 -89.5t-73 -81t-115.5 -57.5t-162 -22.5q-112 0 -197 48z" />
    <glyph glyph-name="ugrave" unicode="&#xf9;" horiz-adv-x="772" 
d="M282 451v-57q0 -107 8 -156t33 -76q27 -28 70 -28q48 0 74 37q18 25 22 67.5t4 192.5v32q0 26 -1 55t-2.5 57t-1.5 37h220q0 -4 0.5 -57t0.5 -93v-40q0 -134 -15.5 -209.5t-63.5 -130.5q-41 -46 -106.5 -71t-142.5 -25q-182 0 -258 107q-35 49 -48 115.5t-13 215.5v46
q0 22 0.5 72t0.5 57h224q-5 -37 -5 -148zM304 852l156 -112l-40 -65l-175 81z" />
    <glyph glyph-name="uacute" unicode="&#xfa;" horiz-adv-x="772" 
d="M282 451v-57q0 -107 8 -156t33 -76q27 -28 70 -28q48 0 74 37q18 25 22 67.5t4 192.5v32q0 26 -1 55t-2.5 57t-1.5 37h220q0 -4 0.5 -57t0.5 -93v-40q0 -134 -15.5 -209.5t-63.5 -130.5q-41 -46 -106.5 -71t-142.5 -25q-182 0 -258 107q-35 49 -48 115.5t-13 215.5v46
q0 22 0.5 72t0.5 57h224q-5 -37 -5 -148zM352 741l162 112l54 -96l-179 -81z" />
    <glyph glyph-name="ucircumflex" unicode="&#xfb;" horiz-adv-x="772" 
d="M282 451v-57q0 -107 8 -156t33 -76q27 -28 70 -28q48 0 74 37q18 25 22 67.5t4 192.5v32q0 26 -1 55t-2.5 57t-1.5 37h220q0 -4 0.5 -57t0.5 -93v-40q0 -134 -15.5 -209.5t-63.5 -130.5q-41 -46 -106.5 -71t-142.5 -25q-182 0 -258 107q-35 49 -48 115.5t-13 215.5v46
q0 22 0.5 72t0.5 57h224q-5 -37 -5 -148zM248 754l153 95l144 -95l-50 -75l-99 75l-103 -75z" />
    <glyph glyph-name="udieresis" unicode="&#xfc;" horiz-adv-x="772" 
d="M282 451v-57q0 -107 8 -156t33 -76q27 -28 70 -28q48 0 74 37q18 25 22 67.5t4 192.5v32q0 26 -1 55t-2.5 57t-1.5 37h220q0 -4 0.5 -57t0.5 -93v-40q0 -134 -15.5 -209.5t-63.5 -130.5q-41 -46 -106.5 -71t-142.5 -25q-182 0 -258 107q-35 49 -48 115.5t-13 215.5v46
q0 22 0.5 72t0.5 57h224q-5 -37 -5 -148zM277 689l-81 81l81 81l81 -81zM515 689l-81 81l81 81l81 -81z" />
    <glyph glyph-name="yacute" unicode="&#xfd;" horiz-adv-x="714" 
d="M460 0h-225q5 100 5 121v35q0 80 -30.5 139t-83.5 93q-10 7 -21 12t-23 9l-19.5 6.5t-21 6t-17.5 4.5l70 194q107 -30 172 -89q57 -55 87 -145h7q28 80 99 144q74 65 173 92l57 -195q-84 -17 -138 -57q-43 -32 -69 -87t-26 -125v-53q0 -71 4 -105zM323 741l162 112
l54 -96l-179 -81z" />
    <glyph glyph-name="thorn" unicode="&#xfe;" horiz-adv-x="664" 
d="M303 -31h-214q4 136 4 333v93q0 7 -1 111t-1 129h213q0 -22 -0.5 -43.5t-1 -34t-0.5 -23.5v-14q76 0 161 -16q72 -14 121.5 -58.5t49.5 -113.5q0 -87 -89 -157t-243 -84v-14q0 -59 1 -108zM302 399v-185q44 4 78.5 29.5t34.5 76.5q0 76 -113 79z" />
    <glyph glyph-name="ydieresis" unicode="&#xff;" horiz-adv-x="714" 
d="M460 0h-225q5 100 5 121v35q0 80 -30.5 139t-83.5 93q-10 7 -21 12t-23 9l-19.5 6.5t-21 6t-17.5 4.5l70 194q107 -30 172 -89q57 -55 87 -145h7q28 80 99 144q74 65 173 92l57 -195q-84 -17 -138 -57q-43 -32 -69 -87t-26 -125v-53q0 -71 4 -105zM248 689l-81 81l81 81
l81 -81zM486 689l-81 81l81 81l81 -81z" />
    <glyph glyph-name="Amacron" unicode="&#x100;" horiz-adv-x="845" 
d="M190 -32l-190 106q292 496 404 673h10q48 -72 150.5 -230.5t182.5 -282t98 -148.5l-198 -117q-17 29 -53 91t-37 64l-301 -17q-5 -9 -66 -139zM320 255l169 9q-7 15 -40.5 80t-43.5 89q-33 -66 -85 -178zM280 780l8 86l278 3l-4 -94z" />
    <glyph glyph-name="amacron" unicode="&#x101;" horiz-adv-x="769" 
d="M180 -29l-180 92q2 3 54.5 88t103.5 167t112 177t93 140h19q59 -82 214.5 -311t172.5 -251l-184 -101q-15 23 -46 73.5t-34 54.5l-267 -13zM294 217l150 7q-12 24 -39 73t-36 67q-69 -134 -75 -147zM249 691l8 82l264 3l-4 -90z" />
    <glyph glyph-name="Abreve" unicode="&#x102;" horiz-adv-x="845" 
d="M190 -32l-190 106q292 496 404 673h10q48 -72 150.5 -230.5t182.5 -282t98 -148.5l-198 -117q-17 29 -53 91t-37 64l-301 -17q-5 -9 -66 -139zM320 255l169 9q-7 15 -40.5 80t-43.5 89q-33 -66 -85 -178zM538 918l52 -73q-29 -31 -74 -53t-94 -22q-45 0 -94 23t-72 50
l55 75q51 -55 119 -55q60 0 108 55z" />
    <glyph glyph-name="abreve" unicode="&#x103;" horiz-adv-x="769" 
d="M180 -29l-180 92q2 3 54.5 88t103.5 167t112 177t93 140h19q59 -82 214.5 -311t172.5 -251l-184 -101q-15 23 -46 73.5t-34 54.5l-267 -13zM294 217l150 7q-12 24 -39 73t-36 67q-69 -134 -75 -147zM494 824l50 -69q-28 -30 -70.5 -50.5t-89.5 -20.5q-43 0 -89 21.5
t-69 47.5l53 71q48 -52 113 -52q57 0 102 52z" />
    <glyph glyph-name="Aogonek" unicode="&#x104;" horiz-adv-x="845" 
d="M320 255l169 9q-7 15 -40.5 80t-43.5 89q-33 -66 -85 -178zM190 -32l-190 106q292 496 404 673h10q48 -72 150.5 -230.5t182.5 -282t98 -148.5l-198 -117q-20 -12 -36.5 -36.5t-16.5 -46.5q0 -24 23 -41t68 -21l-20 -75q-82 14 -131.5 46t-49.5 78q0 32 34 69t103 72
q-13 22 -27 46t-25 43t-12 21l-301 -17q-5 -9 -66 -139z" />
    <glyph glyph-name="aogonek" unicode="&#x105;" horiz-adv-x="769" 
d="M294 217l150 7q-12 24 -39 73t-36 67q-69 -134 -75 -147zM180 -29l-180 92q2 3 54.5 88t103.5 167t112 177t93 140h19q59 -82 214.5 -311t172.5 -251l-185 -100q-17 -9 -34 -36t-17 -46q0 -22 21.5 -38.5t64.5 -19.5l-19 -72q-78 13 -125 44t-47 74q0 64 131 134
q-11 18 -24 39t-20.5 33t-9.5 15l-267 -13z" />
    <glyph glyph-name="Cacute" unicode="&#x106;" horiz-adv-x="645" 
d="M592 175l10 -183q-70 -8 -118 -8q-95 0 -172.5 18.5t-128 48.5t-84.5 70t-49 81t-15 83q0 64 30 129t88 125.5t156 110t222 76.5l44 -192q-150 -27 -223 -87.5t-73 -136.5q0 -59 60 -99.5t157 -40.5q36 0 96 5zM342 834l171 118l57 -101l-189 -86z" />
    <glyph glyph-name="cacute" unicode="&#x107;" horiz-adv-x="591" 
d="M543 155l9 -162q-56 -7 -108 -7q-107 0 -189.5 23t-129 61t-70 81.5t-23.5 90.5q0 55 27.5 111t81 108t143.5 94t203 62l40 -168q-133 -22 -197.5 -72t-64.5 -113q0 -51 50.5 -82t139.5 -31q44 0 88 4zM331 741l162 112l54 -96l-179 -81z" />
    <glyph glyph-name="Ccaron" unicode="&#x10c;" horiz-adv-x="645" 
d="M592 175l10 -183q-70 -8 -118 -8q-95 0 -172.5 18.5t-128 48.5t-84.5 70t-49 81t-15 83q0 64 30 129t88 125.5t156 110t222 76.5l44 -192q-150 -27 -223 -87.5t-73 -136.5q0 -59 60 -99.5t157 -40.5q36 0 96 5zM447 765l-162 98l53 78l112 -76l98 76l51 -78z" />
    <glyph glyph-name="ccaron" unicode="&#x10d;" horiz-adv-x="591" 
d="M543 155l9 -162q-56 -7 -108 -7q-107 0 -189.5 23t-129 61t-70 81.5t-23.5 90.5q0 55 27.5 111t81 108t143.5 94t203 62l40 -168q-133 -22 -197.5 -72t-64.5 -113q0 -51 50.5 -82t139.5 -31q44 0 88 4zM390 679l-154 94l50 74l107 -73l93 73l48 -74z" />
    <glyph glyph-name="Dcaron" unicode="&#x10e;" horiz-adv-x="840" 
d="M108 316v124q0 235 -5 270q255 0 384 -18q75 -10 132.5 -32.5t90.5 -48.5t54 -58.5t28 -59.5t7 -54q0 -91 -41.5 -166.5t-110.5 -126t-160.5 -85.5t-188 -50.5t-196.5 -15.5q6 69 6 321zM328 550v-373q39 6 78 23t75 43.5t58 68.5t22 92q0 146 -233 146zM385 765l-162 98
l53 78l112 -76l98 76l51 -78z" />
    <glyph glyph-name="dcaron" unicode="&#x10f;" horiz-adv-x="762" 
d="M94 269v105q0 198 -4 230q244 0 351 -14q68 -9 120.5 -28t82.5 -41.5t48.5 -50.5t24.5 -51t6 -46q0 -99 -56.5 -175.5t-149.5 -120t-202.5 -64t-225.5 -17.5q5 65 5 273zM306 464v-310q73 10 132 59t59 130q0 38 -15.5 63t-45 37t-60 16.5t-70.5 4.5zM366 679l-154 94
l50 74l107 -73l93 73l48 -74z" />
    <glyph glyph-name="Dcroat" unicode="&#x110;" horiz-adv-x="840" 
d="M18 303l-4 113l94 3v21q0 235 -5 270q255 0 384 -18q75 -10 132.5 -32.5t90.5 -48.5t54 -58.5t28 -59.5t7 -54q0 -91 -41.5 -166.5t-110.5 -126t-160.5 -85.5t-188 -50.5t-196.5 -15.5q6 68 6 312zM451 432l-4 -110l-121 -5v-140q55 9 106 34t90 76t39 117
q0 146 -235 146v-123z" />
    <glyph glyph-name="dcroat" unicode="&#x111;" horiz-adv-x="762" 
d="M16 256l-3 100l81 2v16q0 198 -4 230q246 0 353 -14q68 -9 120.5 -28t82 -41.5t47.5 -50.5t24 -50.5t6 -46.5q0 -79 -37 -144.5t-98.5 -108.5t-143.5 -72.5t-171.5 -41.5t-183.5 -10q5 63 5 263zM410 369l-3 -97l-104 -5v-114q79 10 138.5 59t59.5 131q0 69 -53.5 95
t-144.5 27v-100z" />
    <glyph glyph-name="Emacron" unicode="&#x112;" horiz-adv-x="622" 
d="M550 162l4 -172q-16 0 -218.5 5t-230.5 5q3 53 3 290v134q0 199 -3 286q39 0 218.5 7.5t210.5 10.5l4 -165q-21 0 -113 -2.5t-99 -2.5v-132q80 0 179 9l3 -160q-14 0 -93 2t-89 2v-119q200 0 224 2zM188 780l8 86l278 3l-4 -94z" />
    <glyph glyph-name="emacron" unicode="&#x113;" horiz-adv-x="569" 
d="M507 144l3 -153q-16 0 -202.5 4.5t-215.5 4.5q2 45 2 247v113q0 6 -1 118t-1 126q41 0 205.5 6.5t194.5 8.5l4 -146q-19 0 -103 -2.5t-90 -2.5v-103q83 0 163 8l2 -142q-12 0 -83.5 1.5t-81.5 1.5v-92q183 0 204 2zM149 691l8 82l264 3l-4 -90z" />
    <glyph glyph-name="Edotaccent" unicode="&#x116;" horiz-adv-x="622" 
d="M550 162l4 -172q-16 0 -218.5 5t-230.5 5q3 53 3 290v134q0 199 -3 286q39 0 218.5 7.5t210.5 10.5l4 -165q-21 0 -113 -2.5t-99 -2.5v-132q80 0 179 9l3 -160q-14 0 -93 2t-89 2v-119q200 0 224 2zM341 775l-92 92l92 92l92 -92z" />
    <glyph glyph-name="edotaccent" unicode="&#x117;" horiz-adv-x="569" 
d="M507 144l3 -153q-16 0 -202.5 4.5t-215.5 4.5q2 45 2 247v113q0 6 -1 118t-1 126q41 0 205.5 6.5t194.5 8.5l4 -146q-19 0 -103 -2.5t-90 -2.5v-103q83 0 163 8l2 -142q-12 0 -83.5 1.5t-81.5 1.5v-92q183 0 204 2zM294 690l-87 87l87 87l87 -87z" />
    <glyph glyph-name="Eogonek" unicode="&#x118;" horiz-adv-x="622" 
d="M507 144l3 -153h-23q-35 -23 -55.5 -52t-20.5 -48q0 -22 21.5 -38.5t64.5 -19.5l-19 -72q-78 13 -125 44t-47 74q0 30 27.5 61t69.5 53q-283 7 -311 7q2 45 2 247v113q0 6 -1 118t-1 126q41 0 205.5 6.5t194.5 8.5l4 -146q-19 0 -103 -2.5t-90 -2.5v-103q83 0 163 8
l2 -142q-12 0 -83.5 1.5t-81.5 1.5v-92q183 0 204 2z" />
    <glyph glyph-name="eogonek" unicode="&#x119;" horiz-adv-x="569" 
d="M550 162l4 -172q-5 0 -24 1q-33 -23 -53.5 -52t-20.5 -48q0 -22 21.5 -38.5t64.5 -19.5l-19 -72q-78 13 -125 44t-47 74q0 29 27.5 60.5t67.5 52.5q-332 8 -341 8q3 53 3 290v134q0 199 -3 286q39 0 218.5 7.5t210.5 10.5l4 -165q-21 0 -113 -2.5t-99 -2.5v-132
q80 0 179 9l3 -160q-14 0 -93 2t-89 2v-119q200 0 224 2z" />
    <glyph glyph-name="Ecaron" unicode="&#x11a;" horiz-adv-x="622" 
d="M550 162l4 -172q-16 0 -218.5 5t-230.5 5q3 53 3 290v134q0 199 -3 286q39 0 218.5 7.5t210.5 10.5l4 -165q-21 0 -113 -2.5t-99 -2.5v-132q80 0 179 9l3 -160q-14 0 -93 2t-89 2v-119q200 0 224 2zM346 765l-162 98l53 78l112 -76l98 76l51 -78z" />
    <glyph glyph-name="ecaron" unicode="&#x11b;" horiz-adv-x="569" 
d="M507 144l3 -153q-16 0 -202.5 4.5t-215.5 4.5q2 45 2 247v113q0 6 -1 118t-1 126q41 0 205.5 6.5t194.5 8.5l4 -146q-19 0 -103 -2.5t-90 -2.5v-103q83 0 163 8l2 -142q-12 0 -83.5 1.5t-81.5 1.5v-92q183 0 204 2zM299 679l-154 94l50 74l107 -73l93 73l48 -74z" />
    <glyph glyph-name="Gbreve" unicode="&#x11e;" horiz-adv-x="740" 
d="M667 228v-73q0 -21 1 -80.5t1 -67.5q-87 -24 -221 -23q-207 3 -310 86.5t-103 210.5q0 40 13.5 85t50.5 99t92.5 102t149 91.5t210.5 69.5l46 -196q-53 -7 -108 -26.5t-105 -48.5t-81.5 -72.5t-31.5 -92.5q0 -46 30 -79t70 -45.5t81 -11.5l1 80q0 15 -1 42.5t-1 41.5h217
q-1 -39 -1 -92zM565 918l52 -73q-29 -31 -74 -53t-94 -22q-45 0 -94 23t-72 50l55 75q51 -55 119 -55q60 0 108 55z" />
    <glyph glyph-name="gbreve" unicode="&#x11f;" horiz-adv-x="680" 
d="M617 194v-62q0 -18 1 -68.5t1 -57.5q-90 -20 -205 -20q-191 0 -286.5 72t-95.5 181q0 34 13 73t47.5 86t86.5 87.5t138.5 77t195.5 56.5l42 -176q-70 -8 -134 -30.5t-112 -66t-48 -98.5q0 -57 47.5 -85t105.5 -26v64q0 11 -1 36.5t-1 41.5h206q-1 -40 -1 -85zM509 824
l50 -69q-28 -30 -70.5 -50.5t-89.5 -20.5q-43 0 -89 21.5t-69 47.5l53 71q48 -52 113 -52q57 0 102 52z" />
    <glyph glyph-name="Gcommaaccent" unicode="&#x122;" horiz-adv-x="740" 
d="M667 228v-73q0 -21 1 -80.5t1 -67.5q-87 -24 -221 -23q-207 3 -310 86.5t-103 210.5q0 40 13.5 85t50.5 99t92.5 102t149 91.5t210.5 69.5l46 -196q-53 -7 -108 -26.5t-105 -48.5t-81.5 -72.5t-31.5 -92.5q0 -46 30 -79t70 -45.5t81 -11.5l1 80q0 15 -1 42.5t-1 41.5h217
q-1 -39 -1 -92zM284 -273l53 213l120 -54l-116 -185z" />
    <glyph glyph-name="gcommaaccent" unicode="&#x123;" horiz-adv-x="680" 
d="M617 194v-62q0 -18 1 -68.5t1 -57.5q-90 -20 -205 -20q-191 0 -286.5 72t-95.5 181q0 34 13 73t47.5 86t86.5 87.5t138.5 77t195.5 56.5l42 -176q-70 -8 -134 -30.5t-112 -66t-48 -98.5q0 -57 47.5 -85t105.5 -26v64q0 11 -1 36.5t-1 41.5h206q-1 -40 -1 -85zM253 -273
l53 213l120 -54l-116 -185z" />
    <glyph glyph-name="Imacron" unicode="&#x12a;" horiz-adv-x="441" 
d="M333 410v-108q0 -210 4 -302h-232q3 66 3 304v108q0 8 -1.5 146.5t-1.5 151.5h232q-4 -72 -4 -300zM78 780l8 86l278 3l-4 -94z" />
    <glyph glyph-name="imacron" unicode="&#x12b;" horiz-adv-x="401" 
d="M308 349v-92q0 -177 4 -257h-222q2 74 2 258v92q0 7 -1 125t-1 129h222q-4 -64 -4 -255zM65 691l8 82l264 3l-4 -90z" />
    <glyph glyph-name="Iogonek" unicode="&#x12e;" horiz-adv-x="441" 
d="M333 410v-108q0 -210 4 -302h-13q-43 -29 -67.5 -61t-24.5 -53q0 -24 23 -41t68 -21l-20 -75q-82 14 -131.5 46t-49.5 78q0 59 113 127h-130q3 66 3 304v108q0 8 -1.5 146.5t-1.5 151.5h232q-4 -72 -4 -300z" />
    <glyph glyph-name="iogonek" unicode="&#x12f;" horiz-adv-x="401" 
d="M308 349v-92q0 -177 4 -257h-15q-40 -28 -62.5 -59t-22.5 -50q0 -22 21.5 -38.5t64.5 -19.5l-19 -72q-78 13 -125 44t-47 74q0 55 103 121h-120q2 74 2 258v92q0 7 -1 125t-1 129h222q-4 -64 -4 -255z" />
    <glyph glyph-name="Idotaccent" unicode="&#x130;" horiz-adv-x="441" 
d="M333 410v-108q0 -210 4 -302h-232q3 66 3 304v108q0 8 -1.5 146.5t-1.5 151.5h232q-4 -72 -4 -300zM221 775l-92 92l92 92l92 -92z" />
    <glyph glyph-name="dotlessi" unicode="&#x131;" horiz-adv-x="401" 
d="M308 349v-92q0 -177 4 -257h-222q2 74 2 258v92q0 7 -1 125t-1 129h222q-4 -64 -4 -255z" />
    <glyph glyph-name="Kcommaaccent" unicode="&#x136;" horiz-adv-x="794" 
d="M337 -10h-233q4 116 4 312v106q0 51 -2 179.5t-2 132.5h233q-5 -80 -5 -302v-26h2q132 170 267 335l166 -146q-16 -17 -99.5 -102t-112.5 -116q36 -40 220 -233l-176 -154q-26 32 -124.5 161.5t-140.5 190.5h-2v-18q0 -272 5 -320zM311 -253l53 213l120 -54l-116 -185z
" />
    <glyph glyph-name="kcommaaccent" unicode="&#x137;" horiz-adv-x="727" 
d="M315 -9h-224q3 75 3 266v90q0 44 -1.5 153t-1.5 112h224q-5 -70 -5 -242v-25h2q166 202 230 276l153 -135q-37 -35 -182 -177q22 -22 194 -190l-173 -144q-12 13 -99 127t-123 163h-2v-15q0 -216 5 -259zM277 -253l53 213l120 -54l-116 -185z" />
    <glyph glyph-name="Lacute" unicode="&#x139;" horiz-adv-x="585" 
d="M104 710h234q-5 -115 -5 -355v-183q142 0 222 4l1 -186q-5 0 -204.5 5t-246.5 5q3 53 3 291v133q0 248 -4 286zM130 834l171 118l57 -101l-189 -86z" />
    <glyph glyph-name="lacute" unicode="&#x13a;" horiz-adv-x="532" 
d="M91 604h224q-5 -100 -5 -302v-149q129 0 202 4l1 -166q-7 0 -191.5 4.5t-229.5 4.5q2 45 2 247v113q0 193 -3 244zM152 741l162 112l54 -96l-179 -81z" />
    <glyph glyph-name="Lcommaaccent" unicode="&#x13b;" horiz-adv-x="585" 
d="M104 710h234q-5 -115 -5 -355v-183q142 0 222 4l1 -186q-5 0 -204.5 5t-246.5 5q3 53 3 291v133q0 248 -4 286zM226 -273l53 213l120 -54l-116 -185z" />
    <glyph glyph-name="lcommaaccent" unicode="&#x13c;" horiz-adv-x="532" 
d="M91 604h224q-5 -100 -5 -302v-149q129 0 202 4l1 -166q-7 0 -191.5 4.5t-229.5 4.5q2 45 2 247v113q0 193 -3 244zM199 -273l53 213l120 -54l-116 -185z" />
    <glyph glyph-name="Lcaron" unicode="&#x13d;" horiz-adv-x="585" 
d="M104 710h234q-5 -115 -5 -355v-183q142 0 222 4l1 -186q-5 0 -204.5 5t-246.5 5q3 53 3 291v133q0 248 -4 286zM427 497l53 213l120 -54l-116 -185z" />
    <glyph glyph-name="lcaron" unicode="&#x13e;" horiz-adv-x="532" 
d="M91 604h224q-5 -100 -5 -302v-149q129 0 202 4l1 -166q-7 0 -191.5 4.5t-229.5 4.5q2 45 2 247v113q0 193 -3 244zM399 391l53 213l120 -54l-116 -185z" />
    <glyph glyph-name="Lslash" unicode="&#x141;" horiz-adv-x="585" 
d="M555 176l1 -186q-5 0 -204.5 5t-246.5 5q3 48 3 267l-68 -25l-34 113l102 38v31q0 248 -4 286h229q-3 -45 -3 -236l113 42l38 -111l-153 -57v-176q147 0 227 4z" />
    <glyph glyph-name="lslash" unicode="&#x142;" horiz-adv-x="532" 
d="M513 157l1 -166q-11 0 -195 4.5t-226 4.5q2 41 2 225l-61 -23l-31 102l92 30v26q0 193 -3 244h222q-3 -39 -3 -199l91 38l35 -104l-128 -45v-141q121 0 204 4z" />
    <glyph glyph-name="Nacute" unicode="&#x143;" horiz-adv-x="895" 
d="M278 -7l-204 7q3 33 19 339t21 377l10 6q63 -46 178 -132t213.5 -160.5t106.5 -80.5q0 13 -1.5 177t-0.5 189l204 -5q-5 -66 -24 -373q-11 -194 -18 -352l-10 -5q-54 35 -180.5 131t-205.5 158t-110 87q0 -297 2 -363zM368 814l171 118l57 -101l-189 -86z" />
    <glyph glyph-name="nacute" unicode="&#x144;" horiz-adv-x="797" 
d="M258 -6l-197 6q3 30 17.5 291t19.5 318l16 5q97 -63 254.5 -173t171.5 -125q0 15 -0.5 88t-0.5 122.5v81.5l196 -4q-11 -125 -22 -318q-14 -251 -16 -299l-16 -4q-61 37 -224 153t-200 146q0 -263 1 -288zM325 721l162 112l54 -96l-179 -81z" />
    <glyph glyph-name="Ncommaaccent" unicode="&#x145;" horiz-adv-x="895" 
d="M278 -7l-204 7q3 33 19 339t21 377l10 6q63 -46 178 -132t213.5 -160.5t106.5 -80.5q0 13 -1.5 177t-0.5 189l204 -5q-5 -66 -24 -373q-11 -194 -18 -352l-10 -5q-54 35 -180.5 131t-205.5 158t-110 87q0 -297 2 -363zM362 -253l53 213l120 -54l-116 -185z" />
    <glyph glyph-name="ncommaaccent" unicode="&#x146;" horiz-adv-x="797" 
d="M258 -6l-197 6q3 30 17.5 291t19.5 318l16 5q97 -63 254.5 -173t171.5 -125q0 15 -0.5 88t-0.5 122.5v81.5l196 -4q-11 -125 -22 -318q-14 -251 -16 -299l-16 -4q-61 37 -224 153t-200 146q0 -263 1 -288zM312 -253l53 213l120 -54l-116 -185z" />
    <glyph glyph-name="Ncaron" unicode="&#x147;" horiz-adv-x="895" 
d="M278 -7l-204 7q3 33 19 339t21 377l10 6q63 -46 178 -132t213.5 -160.5t106.5 -80.5q0 13 -1.5 177t-0.5 189l204 -5q-5 -66 -24 -373q-11 -194 -18 -352l-10 -5q-54 35 -180.5 131t-205.5 158t-110 87q0 -297 2 -363zM453 745l-162 98l53 78l112 -76l98 76l51 -78z" />
    <glyph glyph-name="ncaron" unicode="&#x148;" horiz-adv-x="797" 
d="M258 -6l-197 6q3 30 17.5 291t19.5 318l16 5q97 -63 254.5 -173t171.5 -125q0 15 -0.5 88t-0.5 122.5v81.5l196 -4q-11 -125 -22 -318q-14 -251 -16 -299l-16 -4q-61 37 -224 153t-200 146q0 -263 1 -288zM404 659l-154 94l50 74l107 -73l93 73l48 -74z" />
    <glyph glyph-name="Omacron" unicode="&#x14c;" 
d="M426 -16q-96 0 -172.5 30.5t-121.5 81t-68.5 109.5t-23.5 121q0 74 27 144t79 128t137.5 93t191.5 35q179 0 283 -94t104 -258q0 -49 -12.5 -99t-45 -103.5t-80 -94.5t-125 -67t-173.5 -26zM437 139q83 0 131 59t49 169q1 96 -40.5 150t-114.5 54q-82 0 -130 -67
t-48 -163t44 -149t109 -53zM328 780l8 86l278 3l-4 -94z" />
    <glyph glyph-name="omacron" unicode="&#x14d;" horiz-adv-x="825" 
d="M390 -14q-88 0 -157.5 26t-110.5 69t-62.5 93t-21.5 103q0 63 24.5 122.5t72 108.5t125 79t174.5 30q164 0 258 -79.5t94 -219.5q0 -41 -11.5 -83.5t-40.5 -88t-72 -80.5t-113.5 -57.5t-158.5 -22.5zM400 124q71 0 112 48t41 140q0 81 -34 124t-97 43q-71 0 -111 -54.5
t-40 -134.5t36.5 -123t92.5 -43zM277 691l8 82l264 3l-4 -90z" />
    <glyph glyph-name="Ohungarumlaut" unicode="&#x150;" 
d="M426 -16q-96 0 -172.5 30.5t-121.5 81t-68.5 109.5t-23.5 121q0 74 27 144t79 128t137.5 93t191.5 35q179 0 283 -94t104 -258q0 -49 -12.5 -99t-45 -103.5t-80 -94.5t-125 -67t-173.5 -26zM437 139q83 0 131 59t49 169q1 96 -40.5 150t-114.5 54q-82 0 -130 -67
t-48 -163t44 -149t109 -53zM462 809l122 157l78 -75l-146 -126zM311 807l96 151l82 -66l-122 -127z" />
    <glyph glyph-name="ohungarumlaut" unicode="&#x151;" horiz-adv-x="825" 
d="M390 -14q-88 0 -157.5 26t-110.5 69t-62.5 93t-21.5 103q0 63 24.5 122.5t72 108.5t125 79t174.5 30q164 0 258 -79.5t94 -219.5q0 -41 -11.5 -83.5t-40.5 -88t-72 -80.5t-113.5 -57.5t-158.5 -22.5zM400 124q71 0 112 48t41 140q0 81 -34 124t-97 43q-71 0 -111 -54.5
t-40 -134.5t36.5 -123t92.5 -43zM445 722l116 149l74 -71l-138 -120zM302 720l91 143l78 -62l-116 -121z" />
    <glyph glyph-name="OE" unicode="&#x152;" horiz-adv-x="1117" 
d="M1000 435l3 -159l-189 4v-123q188 0 231 3l4 -170q-53 0 -223 5q-43 1 -94.5 2t-82 2t-34.5 1t-72 -8q-70 -8 -129 -8q-163 0 -268.5 92.5t-105.5 249.5q0 106 47.5 196t144.5 147t226 57q47 0 103 -8q58 -8 63 -8q26 0 204.5 7.5t200.5 10.5l4 -162l-218 -5l-1 -136
q88 0 186 10zM613 350v49q0 86 -45.5 130.5t-107.5 44.5q-84 0 -135.5 -67.5t-51.5 -169.5q0 -99 46.5 -149.5t118.5 -50.5q78 0 126.5 54.5t48.5 158.5z" />
    <glyph glyph-name="oe" unicode="&#x153;" horiz-adv-x="1020" 
d="M917 372l3 -139l-172 3v-98q160 0 210 3l4 -150q-54 0 -209 5q-186 4 -193 4q-12 0 -66 -7q-75 -7 -117 -7q-149 0 -245 79t-96 212q0 140 103 240t278 100q49 0 94 -7q52 -6 57 -6q26 0 188.5 6t186.5 9l4 -143l-198 -4l-1 -109q118 3 169 9zM555 298v41q0 73 -40.5 109
t-95.5 36q-74 0 -118.5 -56t-44.5 -142q0 -83 40 -124.5t103 -41.5q69 0 112.5 45.5t43.5 132.5z" />
    <glyph glyph-name="Racute" unicode="&#x154;" horiz-adv-x="775" 
d="M326 572v-266q0 -269 5 -306h-223q2 12 2 362v82q0 234 -5 266q261 0 366 -14q111 -14 169.5 -57t58.5 -112q0 -109 -129 -200q12 -14 103.5 -108.5t105.5 -112.5l-183 -138q-11 19 -120.5 180t-123.5 183q44 26 79.5 64.5t35.5 83.5q0 40 -33 66t-108 27zM308 834
l171 118l57 -101l-189 -86z" />
    <glyph glyph-name="racute" unicode="&#x155;" horiz-adv-x="705" 
d="M304 481v-221q0 -234 4 -260h-215q3 15 3 239v138q0 193 -4 227q263 0 342 -10q101 -13 154 -50.5t53 -95.5q0 -100 -114 -170q13 -14 91.5 -89t91.5 -89l-178 -129q-5 7 -56 81t-98 142.5t-58 84.5q100 49 100 128q0 73 -116 74zM288 741l162 112l54 -96l-179 -81z" />
    <glyph glyph-name="Rcommaaccent" unicode="&#x156;" horiz-adv-x="775" 
d="M326 572v-266q0 -269 5 -306h-223q2 12 2 362v82q0 234 -5 266q261 0 366 -14q111 -14 169.5 -57t58.5 -112q0 -109 -129 -200q12 -14 103.5 -108.5t105.5 -112.5l-183 -138q-11 19 -120.5 180t-123.5 183q44 26 79.5 64.5t35.5 83.5q0 40 -33 66t-108 27zM302 -273
l53 213l120 -54l-116 -185z" />
    <glyph glyph-name="rcommaaccent" unicode="&#x157;" horiz-adv-x="705" 
d="M304 481v-221q0 -234 4 -260h-215q3 15 3 239v138q0 193 -4 227q263 0 342 -10q101 -13 154 -50.5t53 -95.5q0 -100 -114 -170q13 -14 91.5 -89t91.5 -89l-178 -129q-5 7 -56 81t-98 142.5t-58 84.5q100 49 100 128q0 73 -116 74zM266 -273l53 213l120 -54l-116 -185z
" />
    <glyph glyph-name="Rcaron" unicode="&#x158;" horiz-adv-x="775" 
d="M326 572v-266q0 -269 5 -306h-223q2 12 2 362v82q0 234 -5 266q261 0 366 -14q111 -14 169.5 -57t58.5 -112q0 -109 -129 -200q12 -14 103.5 -108.5t105.5 -112.5l-183 -138q-11 19 -120.5 180t-123.5 183q44 26 79.5 64.5t35.5 83.5q0 40 -33 66t-108 27zM393 765
l-162 98l53 78l112 -76l98 76l51 -78z" />
    <glyph glyph-name="rcaron" unicode="&#x159;" horiz-adv-x="705" 
d="M304 481v-221q0 -234 4 -260h-215q3 15 3 239v138q0 193 -4 227q263 0 342 -10q101 -13 154 -50.5t53 -95.5q0 -100 -114 -170q13 -14 91.5 -89t91.5 -89l-178 -129q-5 7 -56 81t-98 142.5t-58 84.5q100 49 100 128q0 73 -116 74zM377 679l-154 94l50 74l107 -73l93 73
l48 -74z" />
    <glyph glyph-name="Sacute" unicode="&#x15a;" horiz-adv-x="547" 
d="M93 -18l-27 171q78 -2 140.5 17.5t62.5 53.5q0 15 -18 29t-80 49q-61 35 -98.5 74.5t-37.5 95.5q0 89 110.5 164.5t291.5 91.5l27 -167q-188 0 -188 -62q0 -16 19.5 -29.5t77.5 -41.5q27 -13 45.5 -24.5t43 -31.5t37.5 -46.5t13 -58.5q0 -43 -23.5 -86.5t-71 -84
t-131.5 -71t-193 -43.5zM203 834l171 118l57 -101l-189 -86z" />
    <glyph glyph-name="sacute" unicode="&#x15b;" horiz-adv-x="510" 
d="M78 -17l-23 152q81 -2 141 12t60 43q0 14 -18 26.5t-75 37.5q-27 12 -46.5 23.5t-41.5 29.5t-34 42t-12 52q0 82 107 147t281 74l24 -154q-99 0 -143 -9t-44 -35q0 -21 86 -54l6 -3q26 -10 43.5 -18.5t42 -25.5t38 -41.5t13.5 -54.5q0 -40 -24 -79t-71 -73.5t-127 -59
t-183 -32.5zM241 741l162 112l54 -96l-179 -81z" />
    <glyph glyph-name="Scedilla" unicode="&#x15e;" horiz-adv-x="547" 
d="M93 -18l-27 171q78 -2 140.5 17.5t62.5 53.5q0 15 -18 29t-80 49q-61 35 -98.5 74.5t-37.5 95.5q0 89 110.5 164.5t291.5 91.5l27 -167q-188 0 -188 -62q0 -16 19.5 -29.5t77.5 -41.5q27 -13 45.5 -24.5t43 -31.5t37.5 -46.5t13 -58.5q0 -67 -55 -132t-168 -107l-46 -91
q31 -8 52.5 -30.5t21.5 -54.5q0 -48 -53.5 -78t-146.5 -37l-10 68q43 2 72 15.5t30 38.5q1 19 -19.5 32.5t-55.5 22.5l42 81q-47 -9 -83 -13z" />
    <glyph glyph-name="Scedilla" unicode="&#xf6c1;" horiz-adv-x="547" 
d="M93 -18l-27 171q78 -2 140.5 17.5t62.5 53.5q0 15 -18 29t-80 49q-61 35 -98.5 74.5t-37.5 95.5q0 89 110.5 164.5t291.5 91.5l27 -167q-188 0 -188 -62q0 -16 19.5 -29.5t77.5 -41.5q27 -13 45.5 -24.5t43 -31.5t37.5 -46.5t13 -58.5q0 -67 -55 -132t-168 -107l-46 -91
q31 -8 52.5 -30.5t21.5 -54.5q0 -48 -53.5 -78t-146.5 -37l-10 68q43 2 72 15.5t30 38.5q1 19 -19.5 32.5t-55.5 22.5l42 81q-47 -9 -83 -13z" />
    <glyph glyph-name="scedilla" unicode="&#x15f;" horiz-adv-x="510" 
d="M78 -17l-23 152q81 -2 141 12t60 43q0 14 -18 26.5t-75 37.5q-27 12 -46.5 23.5t-41.5 29.5t-34 42t-12 52q0 82 107 147t281 74l24 -154q-99 0 -143 -9t-44 -35q0 -21 86 -54l6 -3q26 -10 43.5 -18.5t42 -25.5t38 -41.5t13.5 -54.5q0 -60 -51.5 -115.5t-152.5 -89.5
l-46 -85q33 -8 54.5 -29.5t21.5 -52.5q0 -46 -51 -74.5t-139 -34.5l-10 64q41 2 68.5 15t28.5 37q1 18 -18.5 31t-52.5 21l40 81q-47 -8 -97 -12z" />
    <glyph glyph-name="scedilla" unicode="&#xf6c2;" horiz-adv-x="510" 
d="M78 -17l-23 152q81 -2 141 12t60 43q0 14 -18 26.5t-75 37.5q-27 12 -46.5 23.5t-41.5 29.5t-34 42t-12 52q0 82 107 147t281 74l24 -154q-99 0 -143 -9t-44 -35q0 -21 86 -54l6 -3q26 -10 43.5 -18.5t42 -25.5t38 -41.5t13.5 -54.5q0 -60 -51.5 -115.5t-152.5 -89.5
l-46 -85q33 -8 54.5 -29.5t21.5 -52.5q0 -46 -51 -74.5t-139 -34.5l-10 64q41 2 68.5 15t28.5 37q1 18 -18.5 31t-52.5 21l40 81q-47 -8 -97 -12z" />
    <glyph glyph-name="Scaron" unicode="&#x160;" horiz-adv-x="547" 
d="M93 -18l-27 171q78 -2 140.5 17.5t62.5 53.5q0 15 -18 29t-80 49q-61 35 -98.5 74.5t-37.5 95.5q0 89 110.5 164.5t291.5 91.5l27 -167q-188 0 -188 -62q0 -16 19.5 -29.5t77.5 -41.5q27 -13 45.5 -24.5t43 -31.5t37.5 -46.5t13 -58.5q0 -43 -23.5 -86.5t-71 -84
t-131.5 -71t-193 -43.5zM288 765l-162 98l53 78l112 -76l98 76l51 -78z" />
    <glyph glyph-name="scaron" unicode="&#x161;" horiz-adv-x="510" 
d="M78 -17l-23 152q81 -2 141 12t60 43q0 14 -18 26.5t-75 37.5q-27 12 -46.5 23.5t-41.5 29.5t-34 42t-12 52q0 82 107 147t281 74l24 -154q-99 0 -143 -9t-44 -35q0 -21 86 -54l6 -3q26 -10 43.5 -18.5t42 -25.5t38 -41.5t13.5 -54.5q0 -40 -24 -79t-71 -73.5t-127 -59
t-183 -32.5zM285 679l-154 94l50 74l107 -73l93 73l48 -74z" />
    <glyph glyph-name="Tcommaaccent" unicode="&#x162;" horiz-adv-x="660" 
d="M446 0h-231q3 39 3 277v262q-35 0 -221 -6v175q90 -8 293 -8h87q188 0 286 8v-175q-114 6 -220 6v-278q0 -231 3 -261zM244 -273l53 213l120 -54l-116 -185z" />
    <glyph glyph-name="tcommaaccent" unicode="&#x163;" horiz-adv-x="601" 
d="M412 0h-222q2 44 2 235v215q-55 0 -195 -5v157q72 -7 267 -7h79q183 0 260 7v-157q-85 5 -194 5v-228q0 -196 3 -222zM214 -273l53 213l120 -54l-116 -185z" />
    <glyph glyph-name="Tcaron" unicode="&#x164;" horiz-adv-x="660" 
d="M446 0h-231q3 39 3 277v262q-35 0 -221 -6v175q90 -8 293 -8h87q188 0 286 8v-175q-114 6 -220 6v-278q0 -231 3 -261zM335 765l-162 98l53 78l112 -76l98 76l51 -78z" />
    <glyph glyph-name="tcaron" unicode="&#x165;" horiz-adv-x="601" 
d="M412 0h-222q2 44 2 235v215q-55 0 -195 -5v157q72 -7 267 -7h79q183 0 260 7v-157q-85 5 -194 5v-228q0 -196 3 -222zM306 679l-154 94l50 74l107 -73l93 73l48 -74z" />
    <glyph glyph-name="Umacron" unicode="&#x16a;" horiz-adv-x="848" 
d="M301 531v-68q0 -125 9 -184.5t37 -92.5q31 -36 85 -36q58 0 89 47q20 30 24.5 82.5t4.5 227.5v38q0 31 -1 65t-2.5 66.5t-1.5 43.5h229q0 -4 0.5 -67t0.5 -110v-46q0 -159 -17 -248t-70 -153q-92 -112 -269 -112q-194 0 -280 125q-38 57 -52 135t-14 255v54
q0 26 0.5 84.5t0.5 67.5h233q-6 -39 -6 -174zM281 780l8 86l278 3l-4 -94z" />
    <glyph glyph-name="umacron" unicode="&#x16b;" horiz-adv-x="772" 
d="M282 451v-57q0 -107 8 -156t33 -76q27 -28 70 -28q48 0 74 37q18 25 22 67.5t4 192.5v32q0 26 -1 55t-2.5 57t-1.5 37h220q0 -4 0.5 -57t0.5 -93v-40q0 -134 -15.5 -209.5t-63.5 -130.5q-41 -46 -106.5 -71t-142.5 -25q-182 0 -258 107q-35 49 -48 115.5t-13 215.5v46
q0 22 0.5 72t0.5 57h224q-5 -37 -5 -148zM250 691l8 82l264 3l-4 -90z" />
    <glyph glyph-name="Uring" unicode="&#x16e;" horiz-adv-x="848" 
d="M301 531v-68q0 -125 9 -184.5t37 -92.5q31 -36 85 -36q58 0 89 47q20 30 24.5 82.5t4.5 227.5v38q0 31 -1 65t-2.5 66.5t-1.5 43.5h229q0 -4 0.5 -67t0.5 -110v-46q0 -159 -17 -248t-70 -153q-92 -112 -269 -112q-194 0 -280 125q-38 57 -52 135t-14 255v54
q0 26 0.5 84.5t0.5 67.5h233q-6 -39 -6 -174zM428 747q-59 0 -93 24t-33 68q1 48 37 75.5t97 27.5q130 0 130 -90q0 -50 -37 -77.5t-101 -27.5zM433 797q21 0 35 12.5t14 37.5q0 20 -13 32t-34 12q-19 0 -33.5 -12.5t-14.5 -35.5q0 -21 13.5 -33.5t32.5 -12.5z" />
    <glyph glyph-name="uring" unicode="&#x16f;" horiz-adv-x="772" 
d="M282 451v-57q0 -107 8 -156t33 -76q27 -28 70 -28q48 0 74 37q18 25 22 67.5t4 192.5v32q0 26 -1 55t-2.5 57t-1.5 37h220q0 -4 0.5 -57t0.5 -93v-40q0 -134 -15.5 -209.5t-63.5 -130.5q-41 -46 -106.5 -71t-142.5 -25q-182 0 -258 107q-35 49 -48 115.5t-13 215.5v46
q0 22 0.5 72t0.5 57h224q-5 -37 -5 -148zM380 662q-56 0 -87.5 22.5t-31.5 64.5q1 46 35 72t92 26q123 0 123 -85q0 -48 -35 -74t-96 -26zM385 709q20 0 33.5 12.5t13.5 35.5q0 19 -12.5 30.5t-32.5 11.5q-18 0 -32 -12t-14 -34q0 -20 12.5 -32t31.5 -12z" />
    <glyph glyph-name="Uhungarumlaut" unicode="&#x170;" horiz-adv-x="848" 
d="M301 531v-68q0 -125 9 -184.5t37 -92.5q31 -36 85 -36q58 0 89 47q20 30 24.5 82.5t4.5 227.5v38q0 31 -1 65t-2.5 66.5t-1.5 43.5h229q0 -4 0.5 -67t0.5 -110v-46q0 -159 -17 -248t-70 -153q-92 -112 -269 -112q-194 0 -280 125q-38 57 -52 135t-14 255v54
q0 26 0.5 84.5t0.5 67.5h233q-6 -39 -6 -174zM415 809l122 157l78 -75l-146 -126zM264 807l96 151l82 -66l-122 -127z" />
    <glyph glyph-name="uhungarumlaut" unicode="&#x171;" horiz-adv-x="772" 
d="M282 451v-57q0 -107 8 -156t33 -76q27 -28 70 -28q48 0 74 37q18 25 22 67.5t4 192.5v32q0 26 -1 55t-2.5 57t-1.5 37h220q0 -4 0.5 -57t0.5 -93v-40q0 -134 -15.5 -209.5t-63.5 -130.5q-41 -46 -106.5 -71t-142.5 -25q-182 0 -258 107q-35 49 -48 115.5t-13 215.5v46
q0 22 0.5 72t0.5 57h224q-5 -37 -5 -148zM378 722l116 149l74 -71l-138 -120zM235 720l91 143l78 -62l-116 -121z" />
    <glyph glyph-name="Uogonek" unicode="&#x172;" horiz-adv-x="848" 
d="M301 531v-68q0 -125 9 -184.5t37 -92.5q31 -36 85 -36q58 0 89 47q20 30 24.5 82.5t4.5 227.5v38q0 31 -1 65t-2.5 66.5t-1.5 43.5h229q0 -4 0.5 -67t0.5 -110v-46q0 -159 -17 -248t-70 -153q-43 -51 -117 -89q-36 -18 -71.5 -55t-35.5 -66q0 -24 23 -41t68 -21l-20 -75
q-82 14 -131.5 46t-49.5 78q0 28 25 58.5t64 53.5q-8 -1 -24 -1q-194 0 -280 125q-38 57 -52 135t-14 255v54q0 26 0.5 84.5t0.5 67.5h233q-6 -39 -6 -174z" />
    <glyph glyph-name="uogonek" unicode="&#x173;" horiz-adv-x="772" 
d="M282 451v-57q0 -107 8 -156t33 -76q27 -28 70 -28q48 0 74 37q18 25 22 67.5t4 192.5v32q0 26 -1 55t-2.5 57t-1.5 37h220q0 -4 0.5 -57t0.5 -93v-40q0 -134 -15.5 -209.5t-63.5 -130.5q-32 -37 -84 -64q-46 -25 -78 -63t-32 -64q0 -22 21.5 -38.5t64.5 -19.5l-19 -72
q-78 13 -125 44t-47 74q0 28 25 57.5t63 51.5q-26 -2 -38 -2q-182 0 -258 107q-35 49 -48 115.5t-13 215.5v46q0 22 0.5 72t0.5 57h224q-5 -37 -5 -148z" />
    <glyph glyph-name="Ydieresis" unicode="&#x178;" horiz-adv-x="785" 
d="M499 0h-235q5 115 5 142v44q0 94 -36 169t-94 113q-51 35 -113 52l77 206q124 -41 188 -105q66 -66 97 -167h8q29 88 110 166q78 74 188 106l63 -206q-82 -17 -151 -75q-48 -39 -80 -107.5t-32 -149.5v-65q0 -73 5 -123zM268 775l-85 85l85 85l85 -85zM518 775l-85 85
l85 85l85 -85z" />
    <glyph glyph-name="Zacute" unicode="&#x179;" horiz-adv-x="725" 
d="M72 554l4 175q26 -4 310 -14t293 -11l4 -10q-17 -31 -164 -270.5t-159 -258.5q261 0 310 7l-4 -182q-10 0 -307.5 5t-321.5 5l-5 10q71 110 331 535q-18 0 -147.5 4.5t-143.5 4.5zM283 834l171 118l57 -101l-189 -86z" />
    <glyph glyph-name="zacute" unicode="&#x17a;" horiz-adv-x="660" 
d="M66 466l3 154q23 -3 279 -12t270 -10l7 -11q-19 -32 -149.5 -233t-138.5 -209q221 0 273 6l-4 -160q-9 0 -279.5 4.5t-292.5 4.5l-7 12q20 28 151.5 230.5t142.5 215.5q-16 0 -129.5 4t-125.5 4zM256 741l162 112l54 -96l-179 -81z" />
    <glyph glyph-name="Zdotaccent" unicode="&#x17b;" horiz-adv-x="725" 
d="M72 554l4 175q26 -4 310 -14t293 -11l4 -10q-17 -31 -164 -270.5t-159 -258.5q261 0 310 7l-4 -182q-10 0 -307.5 5t-321.5 5l-5 10q71 110 331 535q-18 0 -147.5 4.5t-143.5 4.5zM382 775l-92 92l92 92l92 -92z" />
    <glyph glyph-name="zdotaccent" unicode="&#x17c;" horiz-adv-x="660" 
d="M66 466l3 154q23 -3 279 -12t270 -10l7 -11q-19 -32 -149.5 -233t-138.5 -209q221 0 273 6l-4 -160q-9 0 -279.5 4.5t-292.5 4.5l-7 12q20 28 151.5 230.5t142.5 215.5q-16 0 -129.5 4t-125.5 4zM350 690l-87 87l87 87l87 -87z" />
    <glyph glyph-name="Zcaron" unicode="&#x17d;" horiz-adv-x="725" 
d="M72 554l4 175q26 -4 310 -14t293 -11l4 -10q-17 -31 -164 -270.5t-159 -258.5q261 0 310 7l-4 -182q-10 0 -307.5 5t-321.5 5l-5 10q71 110 331 535q-18 0 -147.5 4.5t-143.5 4.5zM377 765l-162 98l53 78l112 -76l98 76l51 -78z" />
    <glyph glyph-name="zcaron" unicode="&#x17e;" horiz-adv-x="660" 
d="M66 466l3 154q23 -3 279 -12t270 -10l7 -11q-19 -32 -149.5 -233t-138.5 -209q221 0 273 6l-4 -160q-9 0 -279.5 4.5t-292.5 4.5l-7 12q20 28 151.5 230.5t142.5 215.5q-16 0 -129.5 4t-125.5 4zM355 679l-154 94l50 74l107 -73l93 73l48 -74z" />
    <glyph glyph-name="florin" unicode="&#x192;" horiz-adv-x="817" 
d="M423 0h-207v47q0 236 16 340q46 307 389 339l20 -171q-94 -3 -145 -39t-63 -139q-1 -13 -3 -36q48 2 161 13l-3 -117q-37 0 -163 -6q-2 -84 -2 -148v-83z" />
    <glyph glyph-name="Scommaaccent" unicode="&#x218;" horiz-adv-x="547" 
d="M93 -18l-27 171q78 -2 140.5 17.5t62.5 53.5q0 15 -18 29t-80 49q-61 35 -98.5 74.5t-37.5 95.5q0 89 110.5 164.5t291.5 91.5l27 -167q-188 0 -188 -62q0 -16 19.5 -29.5t77.5 -41.5q27 -13 45.5 -24.5t43 -31.5t37.5 -46.5t13 -58.5q0 -43 -23.5 -86.5t-71 -84
t-131.5 -71t-193 -43.5zM188 -273l53 213l120 -54l-116 -185z" />
    <glyph glyph-name="scommaaccent" unicode="&#x219;" horiz-adv-x="510" 
d="M78 -17l-23 152q81 -2 141 12t60 43q0 14 -18 26.5t-75 37.5q-27 12 -46.5 23.5t-41.5 29.5t-34 42t-12 52q0 82 107 147t281 74l24 -154q-99 0 -143 -9t-44 -35q0 -21 86 -54l6 -3q26 -10 43.5 -18.5t42 -25.5t38 -41.5t13.5 -54.5q0 -40 -24 -79t-71 -73.5t-127 -59
t-183 -32.5zM168 -273l53 213l120 -54l-116 -185z" />
    <glyph glyph-name="uni021A" unicode="&#x21a;" horiz-adv-x="660" 
d="M446 0h-231q3 39 3 277v262q-35 0 -221 -6v175q90 -8 293 -8h87q188 0 286 8v-175q-114 6 -220 6v-278q0 -231 3 -261zM244 -273l53 213l120 -54l-116 -185z" />
    <glyph glyph-name="uni021B" unicode="&#x21b;" horiz-adv-x="601" 
d="M412 0h-222q2 44 2 235v215q-55 0 -195 -5v157q72 -7 267 -7h79q183 0 260 7v-157q-85 5 -194 5v-228q0 -196 3 -222zM214 -273l53 213l120 -54l-116 -185z" />
    <glyph glyph-name="circumflex" unicode="&#x2c6;" 
d="M295 843l161 100l152 -100l-53 -78l-104 78l-108 -78z" />
    <glyph glyph-name="caron" unicode="&#x2c7;" 
d="M456 765l-162 98l53 78l112 -76l98 76l51 -78z" />
    <glyph glyph-name="uni02C9" unicode="&#x2c9;" 
d="M308 780l8 86l278 3l-4 -94z" />
    <glyph glyph-name="breve" unicode="&#x2d8;" 
d="M566 918l52 -73q-29 -31 -74 -53t-94 -22q-45 0 -94 23t-72 50l55 75q51 -55 119 -55q60 0 108 55z" />
    <glyph glyph-name="dotaccent" unicode="&#x2d9;" 
d="M451 775l-92 92l92 92l92 -92z" />
    <glyph glyph-name="ring" unicode="&#x2da;" 
d="M445 767q-59 0 -93 24t-33 68q1 48 37 75.5t97 27.5q130 0 130 -90q0 -50 -37 -77.5t-101 -27.5zM450 817q21 0 35 12.5t14 37.5q0 20 -13 32t-34 12q-19 0 -33.5 -12.5t-14.5 -35.5q0 -21 13.5 -33.5t32.5 -12.5z" />
    <glyph glyph-name="ogonek" unicode="&#x2db;" 
d="M440 0h88q-41 -25 -66.5 -59t-25.5 -55q0 -24 23 -41t68 -21l-20 -75q-82 14 -131.5 46t-49.5 78q0 33 33.5 68.5t80.5 58.5z" />
    <glyph glyph-name="tilde" unicode="&#x2dc;" 
d="M339 770l-68 28q13 47 42.5 77.5t62.5 30.5q16 0 30 -3t32 -10t22 -8q36 -14 54 -14q30 1 50 45l69 -29q-17 -54 -44 -80t-57 -27q-26 0 -83 20q-39 15 -60 15q-33 0 -50 -45z" />
    <glyph glyph-name="hungarumlaut" unicode="&#x2dd;" 
d="M422 809l122 157l78 -75l-146 -126zM271 807l96 151l82 -66l-122 -127z" />
    <glyph glyph-name="uni037E" unicode="&#x37e;" horiz-adv-x="310" 
d="M80 -122l19 279l143 -27l-96 -263zM76 345v150h161v-150h-161z" />
    <glyph glyph-name="tonos" unicode="&#x384;" 
d="M414 501l-20 213l115 4l-20 -218z" />
    <glyph glyph-name="Alphatonos" unicode="&#x386;" horiz-adv-x="845" 
d="M190 -32l-190 106q292 496 404 673h10q48 -72 150.5 -230.5t182.5 -282t98 -148.5l-198 -117q-17 29 -53 91t-37 64l-301 -17q-5 -9 -66 -139zM320 255l169 9q-7 15 -40.5 80t-43.5 89q-33 -66 -85 -178zM55 501l-20 213l115 4l-20 -218z" />
    <glyph glyph-name="anoteleia" unicode="&#x387;" horiz-adv-x="310" 
d="M68 288v166h173v-166h-173z" />
    <glyph glyph-name="Epsilontonos" unicode="&#x388;" horiz-adv-x="661" 
d="M590 162l4 -172q-16 0 -218.5 5t-230.5 5q3 53 3 290v134q0 199 -3 286q39 0 218.5 7.5t210.5 10.5l4 -165q-21 0 -113 -2.5t-99 -2.5v-132q80 0 179 9l3 -160q-14 0 -93 2t-89 2v-119q200 0 224 2zM-29 501l-20 213l115 4l-20 -218z" />
    <glyph glyph-name="Etatonos" unicode="&#x389;" horiz-adv-x="965" 
d="M377 0h-232q3 66 3 304v108q0 238 -5 298h235q-5 -45 -5 -229v-40l260 19v42q0 164 -4 208h233q-4 -96 -4 -328v-100q0 -244 4 -282h-233q4 136 4 215v76l-260 -19v-36q0 -144 4 -236zM-28 501l-20 213l115 4l-20 -218z" />
    <glyph glyph-name="Iotatonos" unicode="&#x38a;" horiz-adv-x="481" 
d="M373 410v-108q0 -210 4 -302h-232q3 66 3 304v108q0 8 -1.5 146.5t-1.5 151.5h232q-4 -72 -4 -300zM-29 501l-20 213l115 4l-20 -218z" />
    <glyph glyph-name="Omicrontonos" unicode="&#x38c;" horiz-adv-x="941" 
d="M466 -16q-96 0 -172.5 30.5t-121.5 81t-68.5 109.5t-23.5 121q0 74 27 144t79 128t137.5 93t191.5 35q179 0 283 -94t104 -258q0 -49 -12.5 -99t-45 -103.5t-80 -94.5t-125 -67t-173.5 -26zM477 139q83 0 131 59t49 169q1 96 -40.5 150t-114.5 54q-82 0 -130 -67
t-48 -163t44 -149t109 -53zM-29 501l-20 213l115 4l-20 -218z" />
    <glyph glyph-name="Upsilontonos" unicode="&#x38e;" horiz-adv-x="855" 
d="M568 0h-235q5 115 5 142v44q0 94 -36 169t-94 113q-51 35 -113 52l77 206q124 -41 188 -105q66 -66 97 -167h8q29 88 110 166q78 74 188 106l63 -206q-82 -17 -151 -75q-48 -39 -80 -107.5t-32 -149.5v-65q0 -73 5 -123zM-27 501l-20 213l115 4l-20 -218z" />
    <glyph glyph-name="Omegatonos" unicode="&#x38f;" horiz-adv-x="971" 
d="M-29 501l-20 213l115 4l-20 -218zM767 149q54 0 154 5l2 -159q-135 5 -404 5l-2 65q49 56 90.5 139.5t41.5 179.5q0 82 -41.5 134.5t-107.5 52.5q-78 0 -125 -65t-47 -156q0 -164 90 -285l-3 -64q-31 0 -198.5 -3t-178.5 -3l4 158q49 -5 155 -5l2 7q-47 34 -77.5 93
t-30.5 119q0 71 27.5 135t79.5 114.5t134.5 80t185.5 29.5q174 0 273 -87.5t99 -224.5q0 -74 -34.5 -144t-88.5 -113v-8z" />
    <glyph glyph-name="iotadieresistonos" unicode="&#x390;" horiz-adv-x="401" 
d="M308 349v-92q0 -177 4 -257h-222q2 74 2 258v92q0 7 -1 125t-1 129h222q-4 -64 -4 -255zM82 689l-81 81l81 81l81 -81zM320 689l-81 81l81 81l81 -81z" />
    <glyph glyph-name="Alpha" unicode="&#x391;" horiz-adv-x="845" 
d="M190 -32l-190 106q292 496 404 673h10q48 -72 150.5 -230.5t182.5 -282t98 -148.5l-198 -117q-17 29 -53 91t-37 64l-301 -17q-5 -9 -66 -139zM320 255l169 9q-7 15 -40.5 80t-43.5 89q-33 -66 -85 -178z" />
    <glyph glyph-name="Beta" unicode="&#x392;" horiz-adv-x="730" 
d="M108 370v111q0 194 -5 229q213 0 309 -12q236 -30 236 -165q0 -90 -126 -148v-6q62 -12 109.5 -51t47.5 -104q0 -93 -124.5 -161.5t-356.5 -68.5h-95q5 55 5 376zM316 312v-195q45 0 91.5 30.5t46.5 70.5q0 46 -41 71t-97 23zM316 597v-188q38 0 75.5 31.5t37.5 81.5
q0 44 -36 61t-77 14z" />
    <glyph glyph-name="Gamma" unicode="&#x393;" horiz-adv-x="600" 
d="M563 720l-1 -186q-87 -1 -229 -1v-178q0 -240 5 -355h-234q4 38 4 286v133q0 239 -3 287q68 0 252 5.5t206 8.5z" />
    <glyph glyph-name="uni0394" unicode="&#x394;" horiz-adv-x="832" 
d="M-12 -3l-5 10q39 73 199 357.5t222 382.5h10q77 -117 235.5 -391t199.5 -350l-5 -9q-15 0 -47.5 0.5t-82.5 1t-86 0.5q-92 1 -224 1q-155 0 -416 -3zM534 167q-10 20 -64 127.5t-65 130.5q-96 -192 -125 -257q124 -4 131 -4q90 0 123 3z" />
    <glyph glyph-name="Epsilon" unicode="&#x395;" horiz-adv-x="622" 
d="M550 162l4 -172q-16 0 -218.5 5t-230.5 5q3 53 3 290v134q0 199 -3 286q39 0 218.5 7.5t210.5 10.5l4 -165q-21 0 -113 -2.5t-99 -2.5v-132q80 0 179 9l3 -160q-14 0 -93 2t-89 2v-119q200 0 224 2z" />
    <glyph glyph-name="Zeta" unicode="&#x396;" horiz-adv-x="725" 
d="M72 554l4 175q26 -4 310 -14t293 -11l4 -10q-17 -31 -164 -270.5t-159 -258.5q261 0 310 7l-4 -182q-10 0 -307.5 5t-321.5 5l-5 10q71 110 331 535q-18 0 -147.5 4.5t-143.5 4.5z" />
    <glyph glyph-name="Eta" unicode="&#x397;" horiz-adv-x="926" 
d="M337 0h-232q3 66 3 304v108q0 238 -5 298h235q-5 -45 -5 -229v-40l260 19v42q0 164 -4 208h233q-4 -96 -4 -328v-100q0 -244 4 -282h-233q4 136 4 215v76l-260 -19v-36q0 -144 4 -236z" />
    <glyph glyph-name="Theta" unicode="&#x398;" 
d="M426 -16q-96 0 -172.5 31t-121.5 81t-68.5 109t-23.5 121q0 74 27 144t79 128t137.5 93t191.5 35q179 0 283 -94t104 -258q0 -49 -12.5 -99t-45 -103.5t-80 -94t-125 -67t-173.5 -26.5zM437 139q87 0 138 59t52 169q1 96 -43.5 150t-121.5 54q-84 0 -136 -67.5
t-52 -162.5q0 -96 47 -149t116 -53zM337 290l-11 115q155 13 236 21l9 -119q-191 -11 -234 -17z" />
    <glyph glyph-name="Iota" unicode="&#x399;" horiz-adv-x="441" 
d="M333 410v-108q0 -210 4 -302h-232q3 66 3 304v108q0 8 -1.5 146.5t-1.5 151.5h232q-4 -72 -4 -300z" />
    <glyph glyph-name="Kappa" unicode="&#x39a;" horiz-adv-x="794" 
d="M337 -10h-233q4 116 4 312v106q0 51 -2 179.5t-2 132.5h233q-5 -80 -5 -302v-26h2q132 170 267 335l166 -146q-16 -17 -99.5 -102t-112.5 -116q36 -40 220 -233l-176 -154q-26 32 -124.5 161.5t-140.5 190.5h-2v-18q0 -272 5 -320z" />
    <glyph glyph-name="Lambda" unicode="&#x39b;" horiz-adv-x="845" 
d="M201 -37l-201 116q53 91 198 330.5t209 337.5h10q43 -66 147 -228t182 -282.5t96 -145.5l-207 -126q-30 52 -121 220.5t-104 197.5q-6 -11 -54.5 -109.5t-94 -190.5t-60.5 -120z" />
    <glyph glyph-name="Mu" unicode="&#x39c;" horiz-adv-x="1088" 
d="M207 -31l-197 73q5 11 63.5 160.5t123 311.5t90.5 218h10q27 -44 78 -128t103.5 -170.5t58.5 -96.5q17 26 62 99t99.5 163t71.5 117h10q36 -76 160 -353t137 -304l-202 -90q-18 45 -76 198.5t-62 162.5q-190 -285 -215 -320h-10q-54 81 -119.5 186t-78.5 130
q-6 -17 -51.5 -173.5t-55.5 -183.5z" />
    <glyph glyph-name="Nu" unicode="&#x39d;" horiz-adv-x="895" 
d="M278 -7l-204 7q3 33 19 339t21 377l10 6q63 -46 178 -132t213.5 -160.5t106.5 -80.5q0 13 -1.5 177t-0.5 189l204 -5q-5 -66 -24 -373q-11 -194 -18 -352l-10 -5q-54 35 -180.5 131t-205.5 158t-110 87q0 -297 2 -363z" />
    <glyph glyph-name="Xi" unicode="&#x39e;" horiz-adv-x="723" 
d="M88 527l-3 178q157 0 570 10l4 -175q-75 -2 -194.5 -5t-237.5 -5.5t-139 -2.5zM119 269l-1 168q220 0 495 5l3 -170q-68 0 -225.5 -2t-271.5 -1zM64 3l-1 174q8 0 139.5 -1.5t236.5 -2t216 1.5l4 -179q-88 0 -327 3.5t-268 3.5z" />
    <glyph glyph-name="Omicron" unicode="&#x39f;" 
d="M444 -16q-96 0 -172.5 30.5t-121.5 81t-68.5 109.5t-23.5 121q0 74 27 144t79 128t137.5 93t191.5 35q179 0 283 -94t104 -258q0 -49 -12.5 -99t-45 -103.5t-80 -94.5t-125 -67t-173.5 -26zM455 139q83 0 131 59t49 169q1 96 -40.5 150t-114.5 54q-82 0 -130 -67
t-48 -163t44 -149t109 -53z" />
    <glyph glyph-name="Pi" unicode="&#x3a0;" horiz-adv-x="908" 
d="M875 545l-89 1q-1 -17 -1 -164v-100q0 -244 4 -282h-231q4 136 4 309v95q0 113 -2 145q-6 0 -92 -0.5t-116 -2.5q-2 -16 -2 -135v-87q0 -232 4 -324h-230q3 66 3 304v108q0 81 -2 129l-86 -4v173q42 -1 203.5 -2t181.5 0q12 0 35 0.5t62 1t69 0.5q45 1 147 2.5t138 2.5
v-170z" />
    <glyph glyph-name="Rho" unicode="&#x3a1;" horiz-adv-x="715" 
d="M328 0h-223q3 129 3 355v110q0 13 -1.5 126t-1.5 119q292 0 396 -25q83 -21 135.5 -69.5t52.5 -127.5q0 -104 -95.5 -193.5t-267.5 -117.5v-27q0 -129 2 -150zM326 570v-252q50 8 93 46.5t43 95.5q0 100 -136 110z" />
    <glyph glyph-name="Sigma" unicode="&#x3a3;" horiz-adv-x="680" 
d="M556 371v-12q-90 -81 -198 -167v-11q132 -23 269 -41l-28 -187q-414 82 -593 127v27q244 205 287 241v8q-113 94 -271 237v23q132 36 561 133l34 -181q-11 -2 -251 -42v-9q127 -97 190 -146z" />
    <glyph glyph-name="Tau" unicode="&#x3a4;" horiz-adv-x="660" 
d="M446 0h-231q3 39 3 277v262q-35 0 -221 -6v175q90 -8 293 -8h87q188 0 286 8v-175q-114 6 -220 6v-278q0 -231 3 -261z" />
    <glyph glyph-name="Upsilon" unicode="&#x3a5;" horiz-adv-x="785" 
d="M499 0h-235q5 115 5 142v44q0 94 -36 169t-94 113q-51 35 -113 52l77 206q124 -41 188 -105q66 -66 97 -167h8q29 88 110 166q78 74 188 106l63 -206q-82 -17 -151 -75q-48 -39 -80 -107.5t-32 -149.5v-65q0 -73 5 -123z" />
    <glyph glyph-name="Phi" unicode="&#x3a6;" horiz-adv-x="933" 
d="M366 774h203q0 -10 -1 -39t-1 -44q143 -19 234.5 -103t91.5 -217q0 -54 -17.5 -106.5t-54 -102t-102 -86t-152.5 -50.5q0 -18 1 -53t1 -46h-203q0 12 1 44.5t1 49.5q-155 16 -241.5 103.5t-86.5 205.5q0 126 86.5 226t240.5 129q0 18 -0.5 49.5t-0.5 39.5zM562 546v-379
q56 13 86.5 67t30.5 131q0 70 -31.5 120.5t-85.5 60.5zM371 162v377q-55 -13 -86 -67.5t-31 -122.5q0 -79 32 -128.5t85 -58.5z" />
    <glyph glyph-name="Chi" unicode="&#x3a7;" horiz-adv-x="800" 
d="M179 -41l-153 153q9 10 111.5 120.5t117.5 127.5q-29 32 -115.5 128t-91.5 101l171 156q173 -222 188 -239q8 9 91 109t107 130l160 -148l-111 -111t-114 -116q85 -89 230 -250l-170 -159q-13 16 -103 126.5t-109 133.5q-12 -14 -106 -132.5t-103 -129.5z" />
    <glyph glyph-name="Psi" unicode="&#x3a8;" horiz-adv-x="947" 
d="M694 688l221 -28q-15 -82 -29 -180q-41 -282 -312 -307q2 -160 3 -173h-208q2 46 2 173q-139 13 -212.5 84t-100.5 227q-31 181 -32 184l224 24q9 -117 18 -193q13 -97 34.5 -136t69.5 -53v102q0 4 -1.5 149t-1.5 174h208q-4 -172 -4 -325v-100q51 17 71.5 59.5
t32.5 129.5q7 49 17 189z" />
    <glyph glyph-name="uni03A9" unicode="&#x3a9;" horiz-adv-x="948" 
d="M897 154l2 -159q-30 0 -128 1.5t-177.5 2.5t-98.5 1l-2 65q49 56 90.5 139.5t41.5 179.5q0 82 -41.5 134.5t-107.5 52.5q-78 0 -125 -65t-47 -156q0 -164 90 -285l-3 -64q-31 0 -198.5 -3t-178.5 -3l4 158q49 -5 155 -5l2 7q-47 34 -77.5 93t-30.5 119q0 71 27.5 135
t79.5 114.5t134.5 80t185.5 29.5q174 0 273 -87.5t99 -224.5q0 -74 -34.5 -144t-88.5 -113v-8q54 0 154 5z" />
    <glyph glyph-name="Iotadieresis" unicode="&#x3aa;" horiz-adv-x="441" 
d="M333 410v-108q0 -210 4 -302h-232q3 66 3 304v108q0 8 -1.5 146.5t-1.5 151.5h232q-4 -72 -4 -300zM96 775l-85 85l85 85l85 -85zM346 775l-85 85l85 85l85 -85z" />
    <glyph glyph-name="Upsilondieresis" unicode="&#x3ab;" horiz-adv-x="785" 
d="M499 0h-235q5 115 5 142v44q0 94 -36 169t-94 113q-51 35 -113 52l77 206q124 -41 188 -105q66 -66 97 -167h8q29 88 110 166q78 74 188 106l63 -206q-82 -17 -151 -75q-48 -39 -80 -107.5t-32 -149.5v-65q0 -73 5 -123zM268 775l-85 85l85 85l85 -85zM518 775l-85 85
l85 85l85 -85z" />
    <glyph glyph-name="alphatonos" unicode="&#x3ac;" horiz-adv-x="769" 
d="M180 -29l-180 92q2 3 54.5 88t103.5 167t112 177t93 140h19q59 -82 214.5 -311t172.5 -251l-184 -101q-15 23 -46 73.5t-34 54.5l-267 -13zM294 217l150 7q-12 24 -39 73t-36 67q-69 -134 -75 -147zM53 426l-18 190l103 3l-18 -194z" />
    <glyph glyph-name="epsilontonos" unicode="&#x3ad;" horiz-adv-x="622" 
d="M560 144l3 -153q-17 0 -203 4.5t-215 4.5q2 45 2 247v113q0 6 -1 118t-1 126q41 0 205.5 6.5t194.5 8.5l4 -146q-19 0 -103 -2.5t-90 -2.5v-103q83 0 163 8l2 -142q-12 0 -83.5 1.5t-81.5 1.5v-92q182 0 204 2zM-30 426l-18 190l103 3l-18 -194z" />
    <glyph glyph-name="etatonos" unicode="&#x3ae;" horiz-adv-x="894" 
d="M367 0h-222q2 74 2 258v92q0 212 -4 254h225q-5 -40 -5 -195v-30l219 16v32q0 139 -4 177h224q-4 -84 -4 -279v-85q0 -208 4 -240h-224q4 116 4 183v59l-219 -16v-25q0 -121 4 -201zM-30 426l-18 190l103 3l-18 -194z" />
    <glyph glyph-name="iotatonos" unicode="&#x3af;" horiz-adv-x="456" 
d="M363 349v-92q0 -177 4 -257h-222q2 74 2 258v92q0 7 -1 125t-1 129h222q-4 -64 -4 -255zM-31 426l-18 190l103 3l-18 -194z" />
    <glyph glyph-name="upsilondieresistonos" unicode="&#x3b0;" horiz-adv-x="714" 
d="M460 0h-225q5 100 5 121v35q0 80 -30.5 139t-83.5 93q-10 7 -21 12t-23 9l-19.5 6.5t-21 6t-17.5 4.5l70 194q107 -30 172 -89q57 -55 87 -145h7q28 80 99 144q74 65 173 92l57 -195q-84 -17 -138 -57q-43 -32 -69 -87t-26 -125v-53q0 -71 4 -105zM248 689l-81 81l81 81
l81 -81zM486 689l-81 81l81 81l81 -81z" />
    <glyph glyph-name="alpha" unicode="&#x3b1;" horiz-adv-x="769" 
d="M180 -29l-180 92q2 3 54.5 88t103.5 167t112 177t93 140h19q59 -82 214.5 -311t172.5 -251l-184 -101q-15 23 -46 73.5t-34 54.5l-267 -13zM294 217l150 7q-12 24 -39 73t-36 67q-69 -134 -75 -147z" />
    <glyph glyph-name="beta" unicode="&#x3b2;" horiz-adv-x="668" 
d="M92 315v94q0 159 -4 195q215 0 296 -10q215 -26 215 -141q0 -31 -29.5 -68t-94.5 -58v-5q59 -4 105.5 -39.5t46.5 -92.5q0 -81 -109.5 -138t-328.5 -57h-101q4 47 4 320zM292 261v-158q44 0 82 24t38 58q0 41 -33 60t-87 16zM292 504v-152q34 0 65.5 23t31.5 69
q0 37 -31.5 50t-65.5 10z" />
    <glyph glyph-name="gamma" unicode="&#x3b3;" horiz-adv-x="532" 
d="M513 613l-1 -166q-73 4 -202 4v-149q0 -202 5 -302h-224q3 51 3 244v113q0 202 -2 247q45 0 229.5 4.5t191.5 4.5z" />
    <glyph glyph-name="delta" unicode="&#x3b4;" horiz-adv-x="738" 
d="M-28 -3l-5 8q304 512 384 629h8q71 -99 216.5 -334.5t178.5 -294.5l-3 -8q-14 0 -43.5 0.5t-75 1t-78.5 0.5q-83 1 -203 1q-142 0 -379 -3zM466 149q-6 11 -34 61.5t-50.5 92.5t-29.5 58q-51 -90 -111 -211q72 -3 116 -3q75 0 109 2z" />
    <glyph glyph-name="epsilon" unicode="&#x3b5;" horiz-adv-x="569" 
d="M507 144l3 -153q-16 0 -202.5 4.5t-215.5 4.5q2 45 2 247v113q0 6 -1 118t-1 126q41 0 205.5 6.5t194.5 8.5l4 -146q-19 0 -103 -2.5t-90 -2.5v-103q83 0 163 8l2 -142q-12 0 -83.5 1.5t-81.5 1.5v-92q183 0 204 2z" />
    <glyph glyph-name="zeta" unicode="&#x3b6;" horiz-adv-x="660" 
d="M66 466l3 154q23 -3 279 -12t270 -10l7 -11q-19 -32 -149.5 -233t-138.5 -209q221 0 273 6l-4 -160q-9 0 -279.5 4.5t-292.5 4.5l-7 12q20 28 151.5 230.5t142.5 215.5q-16 0 -129.5 4t-125.5 4z" />
    <glyph glyph-name="eta" unicode="&#x3b7;" horiz-adv-x="843" 
d="M316 0h-222q2 74 2 258v92q0 212 -4 254h225q-5 -40 -5 -195v-30l219 16v32q0 139 -4 177h224q-4 -84 -4 -279v-85q0 -208 4 -240h-224q4 116 4 183v59l-219 -16v-25q0 -121 4 -201z" />
    <glyph glyph-name="theta" unicode="&#x3b8;" horiz-adv-x="849" 
d="M401 -16q-90 0 -161.5 26t-113.5 69t-64 93t-22 103q0 63 25.5 122.5t74 108.5t128.5 79t179 30q167 0 264.5 -80t97.5 -220q0 -41 -12 -84t-42 -88t-74.5 -80t-117 -57t-162.5 -22zM411 116q80 0 124.5 50t45.5 144q1 82 -37.5 127.5t-108.5 45.5q-78 0 -123 -57
t-45 -139t40 -126.5t104 -44.5zM317 244l-10 98q124 7 222 18l7 -101q-195 -12 -219 -15z" />
    <glyph glyph-name="iota" unicode="&#x3b9;" horiz-adv-x="401" 
d="M308 349v-92q0 -177 4 -257h-222q2 74 2 258v92q0 7 -1 125t-1 129h222q-4 -64 -4 -255z" />
    <glyph glyph-name="kappa" unicode="&#x3ba;" horiz-adv-x="727" 
d="M315 -9h-224q3 75 3 266v90q0 44 -1.5 153t-1.5 112h224q-5 -70 -5 -242v-25h2q166 202 230 276l153 -135q-37 -35 -182 -177q22 -22 194 -190l-173 -144q-12 13 -99 127t-123 163h-2v-15q0 -216 5 -259z" />
    <glyph glyph-name="lambda" unicode="&#x3bb;" horiz-adv-x="769" 
d="M180 -29l-180 92q2 3 54.5 88t103.5 167t112 177t93 140h19q59 -82 214.5 -311t172.5 -251l-184 -101q-34 60 -103.5 181.5t-104.5 182.5q-33 -61 -98.5 -182.5t-98.5 -182.5z" />
    <glyph glyph-name="uni03BC" unicode="&#x3bc;" horiz-adv-x="990" 
d="M191 -26l-182 62q1 3 109 262.5t140 323.5h14q25 -37 71.5 -108t92 -140.5t53.5 -81.5q19 28 104 156.5t106 160.5h14q35 -71 146.5 -306t120.5 -253l-188 -76q-23 55 -69.5 170t-51.5 131q-92 -134 -193 -266h-14q-147 206 -178 261q-70 -238 -95 -296z" />
    <glyph glyph-name="nu" unicode="&#x3bd;" horiz-adv-x="797" 
d="M258 -6l-197 6q3 30 17.5 291t19.5 318l16 5q97 -63 254.5 -173t171.5 -125q0 15 -0.5 88t-0.5 122.5v81.5l196 -4q-11 -125 -22 -318q-14 -251 -16 -299l-16 -4q-61 37 -224 153t-200 146q0 -263 1 -288z" />
    <glyph glyph-name="xi" unicode="&#x3be;" horiz-adv-x="679" 
d="M86 448l-2 164q122 0 533 8l4 -161q-90 -2 -298.5 -6t-236.5 -5zM116 229l-1 155q153 0 463 4l2 -156q-64 0 -211 -2t-253 -1zM64 3l-1 160q9 0 130.5 -1t221 -1.5t202.5 0.5l4 -164q-82 0 -306 3t-251 3z" />
    <glyph glyph-name="omicron" unicode="&#x3bf;" horiz-adv-x="825" 
d="M390 -14q-88 0 -157.5 26t-110.5 69t-62.5 93t-21.5 103q0 63 24.5 122.5t72 108.5t125 79t174.5 30q164 0 258 -79.5t94 -219.5q0 -41 -11.5 -83.5t-40.5 -88t-72 -80.5t-113.5 -57.5t-158.5 -22.5zM400 124q71 0 112 48t41 140q0 81 -34 124t-97 43q-71 0 -111 -54.5
t-40 -134.5t36.5 -123t92.5 -43z" />
    <glyph glyph-name="pi" unicode="&#x3c0;" horiz-adv-x="853" 
d="M820 463l-83 1q-1 -14 -1 -139v-85q0 -208 4 -240h-218q3 87 3 263v80q0 19 -0.5 69t-0.5 55q-5 0 -84 -0.5t-107 -2.5q-2 -13 -2 -115v-74q0 -175 5 -275h-218q3 56 3 258v92q0 68 -2 110l-80 -4v148q38 -1 189 -2t171 0q11 0 32.5 0.5t58 1t64.5 0.5q209 3 266 4v-145z
" />
    <glyph glyph-name="rho" unicode="&#x3c1;" horiz-adv-x="669" 
d="M305 0h-214q0 16 1 142t1 160v93q0 11 -1 107t-1 102q283 0 376 -22q76 -17 123.5 -58.5t47.5 -108.5q0 -93 -89 -169.5t-245 -99.5v-22q0 -106 1 -124zM304 480v-208q43 2 80 33.5t37 85.5q0 39 -26 61.5t-91 27.5z" />
    <glyph glyph-name="uni03C2" unicode="&#x3c2;" horiz-adv-x="612" 
d="M520 308v-10q-92 -75 -185 -142v-9q109 -18 252 -35l-27 -159q-417 77 -554 108v23q231 176 268 205v7q-117 88 -253 201v20q69 17 524 113l32 -154q-89 -14 -234 -36v-8q121 -84 177 -124z" />
    <glyph glyph-name="sigma" unicode="&#x3c3;" horiz-adv-x="612" 
d="M520 308v-10q-92 -75 -185 -142v-9q109 -18 252 -35l-27 -159q-417 77 -554 108v23q231 176 268 205v7q-117 88 -253 201v20q69 17 524 113l32 -154q-89 -14 -234 -36v-8q121 -84 177 -124z" />
    <glyph glyph-name="tau" unicode="&#x3c4;" horiz-adv-x="601" 
d="M412 0h-222q2 44 2 235v215q-55 0 -195 -5v157q72 -7 267 -7h79q183 0 260 7v-157q-85 5 -194 5v-228q0 -196 3 -222z" />
    <glyph glyph-name="upsilon" unicode="&#x3c5;" horiz-adv-x="714" 
d="M460 0h-225q5 100 5 121v35q0 80 -30.5 139t-83.5 93q-10 7 -21 12t-23 9l-19.5 6.5t-21 6t-17.5 4.5l70 194q107 -30 172 -89q57 -55 87 -145h7q28 80 99 144q74 65 173 92l57 -195q-84 -17 -138 -57q-43 -32 -69 -87t-26 -125v-53q0 -71 4 -105z" />
    <glyph glyph-name="phi" unicode="&#x3c6;" horiz-adv-x="948" 
d="M563 -73h-192q0 10 1 36.5t1 40.5q-146 13 -226 84t-80 168q0 103 80 183.5t225 105.5q0 15 -0.5 40.5t-0.5 32.5h192q0 -8 -1 -32t-1 -37q134 -15 219 -83t85 -177q0 -44 -16 -86.5t-50 -83t-95.5 -70.5t-142.5 -41q0 -15 1 -43t1 -38zM670 284q0 56 -31.5 97t-81.5 47
q-1 -151 0 -302q52 9 82.5 52.5t30.5 105.5zM262 271q0 -64 32 -103.5t82 -44.5q1 150 0 299q-52 -8 -83 -52.5t-31 -98.5z" />
    <glyph glyph-name="chi" unicode="&#x3c7;" horiz-adv-x="728" 
d="M168 -38l-146 138q8 9 100.5 100.5t105.5 105.5q-167 170 -186 191l161 139q18 -21 86 -104t81 -98q12 13 84 95.5t93 106.5l151 -135q-11 -11 -101 -92.5t-102 -93.5q18 -18 109 -108.5t99 -98.5l-161 -145q-15 17 -94 110t-95 111q-11 -11 -93 -111t-92 -111z" />
    <glyph glyph-name="psi" unicode="&#x3c8;" horiz-adv-x="859" 
d="M637 579l201 -24q-18 -88 -27 -151q-36 -237 -280 -258q2 -135 3 -146h-198q2 38 2 146q-124 11 -190 71t-91 191q-26 135 -30 154l204 20q10 -115 17 -162q11 -80 30 -111.5t61 -39.5v77q0 4 -1.5 126t-1.5 146h198q-4 -144 -4 -274v-75q44 11 62 45t29 106q6 39 16 159
z" />
    <glyph glyph-name="omega" unicode="&#x3c9;" horiz-adv-x="871" 
d="M840 142l1 -147q-324 4 -349 4l-2 55q91 116 91 272q0 70 -36.5 112.5t-98.5 42.5q-73 0 -113.5 -53.5t-40.5 -130.5q0 -150 89 -243l-3 -54q-36 0 -196 -2.5t-168 -2.5l3 146q51 -4 138 -4l2 6q-39 20 -66 68.5t-27 99.5q0 127 105 216t294 89q162 0 254.5 -74
t92.5 -191q0 -63 -31 -121t-75 -85v-7q62 0 136 4z" />
    <glyph glyph-name="iotadieresis" unicode="&#x3ca;" horiz-adv-x="401" 
d="M308 349v-92q0 -177 4 -257h-222q2 74 2 258v92q0 7 -1 125t-1 129h222q-4 -64 -4 -255zM82 689l-81 81l81 81l81 -81zM320 689l-81 81l81 81l81 -81z" />
    <glyph glyph-name="upsilondieresis" unicode="&#x3cb;" horiz-adv-x="714" 
d="M460 0h-225q5 100 5 121v35q0 80 -30.5 139t-83.5 93q-10 7 -21 12t-23 9l-19.5 6.5t-21 6t-17.5 4.5l70 194q107 -30 172 -89q57 -55 87 -145h7q28 80 99 144q74 65 173 92l57 -195q-84 -17 -138 -57q-43 -32 -69 -87t-26 -125v-53q0 -71 4 -105zM248 689l-81 81l81 81
l81 -81zM486 689l-81 81l81 81l81 -81z" />
    <glyph glyph-name="omicrontonos" unicode="&#x3cc;" horiz-adv-x="885" 
d="M450 -14q-88 0 -157.5 26t-110.5 69t-62.5 93t-21.5 103q0 63 24.5 122.5t72 108.5t125 79t174.5 30q164 0 258 -79.5t94 -219.5q0 -41 -11.5 -83.5t-40.5 -88t-72 -80.5t-113.5 -57.5t-158.5 -22.5zM460 124q71 0 112 48t41 140q0 81 -34 124t-97 43q-71 0 -111 -54.5
t-40 -134.5t36.5 -123t92.5 -43zM-1 426l-18 190l103 3l-18 -194z" />
    <glyph glyph-name="upsilontonos" unicode="&#x3cd;" horiz-adv-x="781" 
d="M527 0h-225q5 100 5 121v35q0 80 -30.5 139t-83.5 93q-10 7 -21 12t-23 9l-19.5 6.5t-21 6t-17.5 4.5l70 194q107 -30 172 -89q57 -55 87 -145h7q28 80 99 144q74 65 173 92l57 -195q-84 -17 -138 -57q-43 -32 -69 -87t-26 -125v-53q0 -71 4 -105zM-29 426l-18 190l103 3
l-18 -194z" />
    <glyph glyph-name="omegatonos" unicode="&#x3ce;" horiz-adv-x="931" 
d="M900 142l1 -147q-324 4 -349 4l-2 55q91 116 91 272q0 70 -36.5 112.5t-98.5 42.5q-73 0 -113.5 -53.5t-40.5 -130.5q0 -150 89 -243l-3 -54q-36 0 -196 -2.5t-168 -2.5l3 146q51 -4 138 -4l2 6q-39 20 -66 68.5t-27 99.5q0 127 105 216t294 89q162 0 254.5 -74
t92.5 -191q0 -63 -31 -121t-75 -85v-7q62 0 136 4zM38 426l-18 190l103 3l-18 -194z" />
    <glyph glyph-name="uni03F0" unicode="&#x3f0;" horiz-adv-x="757" 
d="M315 -9h-224q3 75 3 266v90q0 44 -1.5 153t-1.5 112h224q-5 -70 -5 -242v-25h2q166 202 230 276l153 -135q-37 -35 -182 -177q100 -103 163 -179q70 -84 70 -174q0 -71 -42.5 -132.5t-103.5 -97.5l-126 117q53 37 53 99q0 42 -42 100q-92 127 -175 224v-1v-15
q0 -216 5 -259z" />
    <glyph glyph-name="endash" unicode="&#x2013;" horiz-adv-x="500" 
d="M0 280v143q110 -2 191 -2h120q11 0 95.5 1t93.5 1v-143q-16 2 -189 2h-120q-160 0 -191 -2z" />
    <glyph glyph-name="emdash" unicode="&#x2014;" horiz-adv-x="1000" 
d="M0 280v143q110 -2 291 -2h420q54 0 121.5 0.5t115 1t52.5 0.5v-143q-16 2 -289 2h-420q-260 0 -291 -2z" />
    <glyph glyph-name="quoteleft" unicode="&#x2018;" horiz-adv-x="230" 
d="M149 726l58 -221l-70 -32l-108 199z" />
    <glyph glyph-name="quoteright" unicode="&#x2019;" horiz-adv-x="230" 
d="M81 726l120 -54l-108 -199l-70 32z" />
    <glyph glyph-name="quotesinglbase" unicode="&#x201a;" horiz-adv-x="230" 
d="M81 136l120 -54l-108 -199l-70 32z" />
    <glyph glyph-name="quotedblleft" unicode="&#x201c;" horiz-adv-x="390" 
d="M317 726l50 -224l-72 -29l-98 207zM127 726l99 -201l-62 -41l-135 178z" />
    <glyph glyph-name="quotedblright" unicode="&#x201d;" horiz-adv-x="390" 
d="M73 726l120 -46l-98 -207l-72 29zM263 726l98 -64l-135 -178l-62 41z" />
    <glyph glyph-name="quotedblbase" unicode="&#x201e;" horiz-adv-x="390" 
d="M73 136l120 -46l-98 -207l-72 29zM263 136l98 -64l-135 -178l-62 41z" />
    <glyph glyph-name="dagger" unicode="&#x2020;" horiz-adv-x="619" 
d="M589 337l-208 22l25 -409h-194l25 409l-208 -22v150l208 -20l-25 207h194l-25 -207l208 20v-150z" />
    <glyph glyph-name="daggerdbl" unicode="&#x2021;" horiz-adv-x="619" 
d="M589 130l-203 20l18 -200h-190l18 200l-203 -20v150l203 -22v126l-203 -22v150l203 -20l-18 182h190l-18 -182l203 20v-150l-203 22v-126l203 22v-150z" />
    <glyph glyph-name="bullet" unicode="&#x2022;" horiz-adv-x="330" 
d="M33 402q76 39 154 94q10 -16 35 -55t41 -62t34 -43q-89 -55 -180 -122q-73 167 -84 188z" />
    <glyph glyph-name="ellipsis" unicode="&#x2026;" horiz-adv-x="1000" 
d="M91 0v150h151v-150h-151zM424 0v150h151v-150h-151zM757 0v150h151v-150h-151z" />
    <glyph glyph-name="perthousand" unicode="&#x2030;" horiz-adv-x="1515" 
d="M255 321q-108 0 -161.5 51.5t-53.5 130.5q0 81 60 144t172 63q209 0 209 -199q0 -26 -11 -56t-35 -61.5t-71 -52t-109 -20.5zM257 422q35 0 56.5 23t21.5 69q0 49 -20.5 72t-51.5 23q-37 0 -57.5 -27.5t-20.5 -70.5q0 -42 21 -65.5t51 -23.5zM773 0q-108 0 -161.5 51.5
t-53.5 130.5q0 81 60.5 144t171.5 63q209 0 209 -199q0 -26 -11 -56t-35 -61.5t-71 -52t-109 -20.5zM775 97q31 0 54.5 23.5t23.5 68.5q0 46 -21 70.5t-50 24.5q-37 0 -58 -27.5t-21 -70.5t20 -66t52 -23zM1249 0q-108 0 -161.5 51.5t-53.5 130.5q0 81 60.5 144t171.5 63
q209 0 209 -199q0 -26 -11 -56t-35 -61.5t-71 -52t-109 -20.5zM1251 97q31 0 54.5 23.5t23.5 68.5q0 46 -21 70.5t-50 24.5q-37 0 -58 -27.5t-21 -70.5t20 -66t52 -23zM366 -21l-97 62q11 19 46.5 77t79 131t85.5 143q33 55 83 136.5t79.5 130.5t42.5 72l100 -61
q-73 -98 -205 -321q-94 -158 -214 -370z" />
    <glyph glyph-name="guilsinglleft" unicode="&#x2039;" horiz-adv-x="360" 
d="M226 545l79 -78q-8 -8 -34.5 -35t-48.5 -50t-31 -37q10 -11 114 -112l-79 -82q-15 18 -89 99.5t-81 89.5q14 17 83 99t87 106z" />
    <glyph glyph-name="guilsinglright" unicode="&#x203a;" horiz-adv-x="360" 
d="M134 151l-79 78q8 8 34.5 35t48.5 50t31 37q-10 11 -114 112l79 82q15 -18 89 -99.5t81 -89.5q-14 -17 -83 -99t-87 -106z" />
    <glyph glyph-name="fraction" unicode="&#x2044;" horiz-adv-x="150" 
d="M333 670q-73 -98 -205 -321q-94 -158 -214 -370l-97 62q11 19 46.5 77t79 131t85.5 143q33 55 83 136.5t79.5 130.5t42.5 72z" />
    <glyph glyph-name="foursuperior" unicode="&#x2074;" horiz-adv-x="491" 
d="M450 437l-4 -89l-67 1v-22q0 -13 2 -53h-131q0 6 2 28.5t2 34.5v12h-209l-23 56l273 328l84 -18v-281zM257 433v143q-13 -25 -55 -80q-21 -28 -54 -63h109z" />
    <glyph glyph-name="Euro" unicode="&#x20ac;" horiz-adv-x="817" 
d="M404 223q34 -75 217 -75q31 0 66 5l11 -146q-58 -7 -89 -7q-172 0 -273 61t-132 155q-33 -3 -68 -3l-3 75q8 0 30 0.5t28 0.5l-1 3v6.5v8.5q0 20 3 32q-5 0 -15 -0.5t-24 -1.5t-23 -1l3 76q15 0 41.5 0.5t32.5 0.5q93 239 436 305l37 -158q-101 -11 -176 -45.5
t-105 -89.5q182 10 238 16l-3 -83q-6 0 -54 -1.5t-104 -3.5t-96 -4q-2 -18 -2 -31q0 -18 1 -21q135 3 250 9l-3 -83h-223z" />
    <glyph glyph-name="afii61289" unicode="&#x2113;" horiz-adv-x="669" 
d="M310 496v-126q39 32 62.5 76.5t23.5 78.5q0 30 -10 50.5t-27 20.5q-22 0 -35.5 -28t-13.5 -72zM535 243l94 -88q-100 -167 -282 -167q-37 0 -65 4.5t-57.5 17t-52.5 38.5t-40 65q-18 -11 -47 -25l-51 109q86 52 91 55v174q0 142 62 213t169 71q88 0 141 -52t53 -136
q0 -90 -57 -161t-183 -162q6 -18 26 -34t51 -16q73 0 148 94z" />
    <glyph glyph-name="trademark" unicode="&#x2122;" horiz-adv-x="770" 
d="M232 366h-123q2 26 2 220v28q-23 0 -55 -1t-41 -1v102q11 -1 77 -3q30 -1 59 -1h38q91 0 134 4v-102q-8 0 -44.5 1t-51.5 1v-29q0 -39 1.5 -91.5t2.5 -89t1 -38.5zM381 353l-106 26q5 11 56 174t56 177l53 -3q7 -12 34.5 -82.5t35.5 -89.5q20 54 71 168l53 -5
q5 -11 53 -160t59 -172l-107 -33q-4 19 -20.5 90.5t-18.5 81.5h-4q-29 -56 -69 -143l-52 5q-18 38 -35.5 81t-24.5 57h-2q-11 -39 -32 -172z" />
    <glyph glyph-name="Omega" unicode="&#x2126;" horiz-adv-x="948" 
d="M897 154l2 -159q-30 0 -128 1.5t-177.5 2.5t-98.5 1l-2 65q49 56 90.5 139.5t41.5 179.5q0 82 -41.5 134.5t-107.5 52.5q-78 0 -125 -65t-47 -156q0 -164 90 -285l-3 -64q-31 0 -198.5 -3t-178.5 -3l4 158q49 -5 155 -5l2 7q-47 34 -77.5 93t-30.5 119q0 71 27.5 135
t79.5 114.5t134.5 80t185.5 29.5q174 0 273 -87.5t99 -224.5q0 -74 -34.5 -144t-88.5 -113v-8q54 0 154 5z" />
    <glyph glyph-name="estimated" unicode="&#x212e;" horiz-adv-x="852" 
d="M822 328h-642q-5 0 -5 -4v-193q0 -14 9 -23q100 -105 243 -105q154 0 255 117h57q-55 -64 -137 -101t-176 -37q-164 0 -280 104t-116 252t116 252t280 104t280 -104t116 -252v-10zM677 354v195q0 13 -10 23q-99 101 -240 101t-242 -104q-10 -10 -10 -24v-191q0 -6 5 -6
h492q5 0 5 6z" />
    <glyph glyph-name="partialdiff" unicode="&#x2202;" horiz-adv-x="703" 
d="M104 523l-59 138q103 70 253 70q167 0 267.5 -107t100.5 -271q0 -169 -105.5 -267.5t-264.5 -98.5q-67 0 -121.5 25.5t-85 64t-46.5 77.5t-16 72q0 60 27 114.5t86.5 92.5t140.5 38q68 0 114.5 -31t66.5 -65h1v9q0 71 -46 128t-141 57q-20 0 -41 -3t-36 -6.5t-33 -10
t-25.5 -9.5t-22.5 -10zM323 147h1q43 0 75.5 25t40.5 57q-4 28 -33 57.5t-72 29.5q-46 0 -73.5 -22.5t-27.5 -62.5q0 -38 26 -61t63 -23z" />
    <glyph glyph-name="Delta" unicode="&#x2206;" horiz-adv-x="832" 
d="M-12 -3l-5 10q39 73 199 357.5t222 382.5h10q77 -117 235.5 -391t199.5 -350l-5 -9q-15 0 -47.5 0.5t-82.5 1t-86 0.5q-92 1 -224 1q-155 0 -416 -3zM534 167q-10 20 -64 127.5t-65 130.5q-96 -192 -125 -257q124 -4 131 -4q90 0 123 3z" />
    <glyph glyph-name="product" unicode="&#x220f;" horiz-adv-x="842" 
d="M826 489h-118v-579h-191v579h-187v-579h-191v579h-118v161h805v-161z" />
    <glyph glyph-name="summation" unicode="&#x2211;" horiz-adv-x="686" 
d="M676 -90h-657v110l257 249l-236 244v137h602v-161h-332v-4l196 -209l-204 -199v-6h374v-161z" />
    <glyph glyph-name="minus" unicode="&#x2212;" horiz-adv-x="596" 
d="M40 327h516v-120h-516v120z" />
    <glyph glyph-name="uni2215" unicode="&#x2215;" horiz-adv-x="150" 
d="M333 670q-73 -98 -205 -321q-94 -158 -214 -370l-97 62q11 19 46.5 77t79 131t85.5 143q33 55 83 136.5t79.5 130.5t42.5 72z" />
    <glyph glyph-name="uni2219" unicode="&#x2219;" horiz-adv-x="310" 
d="M72 265v155h166v-155h-166z" />
    <glyph glyph-name="radical" unicode="&#x221a;" horiz-adv-x="653" 
d="M718 851l-268 -927h-132l-195 407l-82 -37l-35 86l213 96l127 -292q9 -20 29 -74h2q3 14 11 40.5t11 36.5l184 664h135z" />
    <glyph glyph-name="infinity" unicode="&#x221e;" horiz-adv-x="772" 
d="M566 81h-1q-49 0 -91.5 26.5t-89.5 72.5q-3 -3 -16.5 -15.5t-18 -16.5t-17 -14.5t-19 -14.5t-19 -12t-22 -11t-22.5 -7.5t-26 -6t-28 -1.5q-79 0 -127.5 52t-48.5 131q0 76 50.5 129.5t133.5 53.5q50 0 92.5 -26.5t89.5 -72.5q3 3 16.5 15.5t18 16.5t17 14.5t19 14.5
t19 12t22 11t22.5 7.5t26 6t28 1.5q79 0 127.5 -52t48.5 -131q0 -76 -50.5 -129.5t-133.5 -53.5zM562 199h1q24 0 42 19t18 46q0 28 -17 46.5t-41 18.5q-17 0 -37 -12t-29 -20t-34 -32q3 -3 15 -15.5t19.5 -18.5t18.5 -15t22 -13t22 -4zM205 199h1q17 0 36.5 12t28.5 19.5
t34 32.5q-3 3 -15 15.5t-19.5 18.5t-18.5 15t-22 13t-22 4q-25 0 -43 -19t-18 -46q0 -28 17 -46.5t41 -18.5z" />
    <glyph glyph-name="integral" unicode="&#x222b;" horiz-adv-x="392" 
d="M403 809l-18 -115q-20 5 -40 5q-41 0 -58 -28q-23 -36 -23 -142q0 -61 11 -206q11 -121 11 -223q0 -107 -36 -177q-26 -50 -71.5 -75.5t-95.5 -25.5q-56 0 -89 14l20 118q16 -6 49 -6q28 0 49 24q34 38 34 122q0 104 -11 229q-11 150 -11 217q0 147 75 228q47 50 133 50
q44 0 71 -9z" />
    <glyph glyph-name="approxequal" unicode="&#x2248;" horiz-adv-x="596" 
d="M495 459l87 -63q-59 -133 -174 -133q-38 0 -117 37q-4 2 -21.5 10.5t-26 12t-24 7.5t-29.5 4q-35 0 -57 -20t-45 -57l-73 72q67 125 178 125q13 0 25.5 -2t25.5 -6.5t20.5 -8t21.5 -10.5t19 -9q7 -3 22 -10.5t25 -11.5t24.5 -8t27.5 -4q59 0 91 75zM501 235l80 -55
q-28 -68 -74 -104t-104 -36q-35 0 -112 36q-6 3 -22 10.5t-26 11.5t-26 8t-31 4q-48 0 -99 -76l-72 74q27 56 74 89t101 33q11 0 22.5 -2t20 -4t21 -7l17.5 -7t18 -8.5t16 -7.5q7 -3 22 -10.5t24.5 -11.5t24 -8t27.5 -4q65 0 98 75z" />
    <glyph glyph-name="notequal" unicode="&#x2260;" horiz-adv-x="596" 
d="M556 95h-309l-50 -85h-125l54 85h-86v120h164l64 103h-228v120h306l50 85h124l-54 -85h90v-120h-167l-64 -103h231v-120z" />
    <glyph glyph-name="lessequal" unicode="&#x2264;" horiz-adv-x="596" 
d="M556 139l-516 163v118l516 163v-130l-336 -91v-2l336 -91v-130zM556 0h-516v120h516v-120z" />
    <glyph glyph-name="greaterequal" unicode="&#x2265;" horiz-adv-x="596" 
d="M556 302l-516 -163v130l336 91v2l-336 91v130l516 -163v-118zM556 0h-516v120h516v-120z" />
    <glyph glyph-name="lozenge" unicode="&#x25ca;" horiz-adv-x="678" 
d="M634 323l-217 -368h-158l-216 368l216 369h158zM469 319l-115 204q-16 30 -17 32h-2q-2 -3 -4.5 -8t-6.5 -12.5t-6 -11.5l-111 -196l115 -205q4 -6 10 -17t7 -13h2q2 2 4.5 7t6.5 12t6 11z" />
    <glyph glyph-name="Alpha.small" unicode="&#xe000;" horiz-adv-x="769" 
d="M180 -29l-180 92q2 3 54.5 88t103.5 167t112 177t93 140h19q59 -82 214.5 -311t172.5 -251l-184 -101q-15 23 -46 73.5t-34 54.5l-267 -13zM294 217l150 7q-12 24 -39 73t-36 67q-69 -134 -75 -147z" />
    <glyph glyph-name="Alphatonos.small" unicode="&#xe001;" horiz-adv-x="769" 
d="M180 -29l-180 92q2 3 54.5 88t103.5 167t112 177t93 140h19q59 -82 214.5 -311t172.5 -251l-184 -101q-15 23 -46 73.5t-34 54.5l-267 -13zM294 217l150 7q-12 24 -39 73t-36 67q-69 -134 -75 -147zM53 426l-18 190l103 3l-18 -194z" />
    <glyph glyph-name="Beta.small" unicode="&#xe002;" horiz-adv-x="668" 
d="M92 315v94q0 159 -4 195q215 0 296 -10q215 -26 215 -141q0 -31 -29.5 -68t-94.5 -58v-5q59 -4 105.5 -39.5t46.5 -92.5q0 -81 -109.5 -138t-328.5 -57h-101q4 47 4 320zM292 261v-158q44 0 82 24t38 58q0 41 -33 60t-87 16zM292 504v-152q34 0 65.5 23t31.5 69
q0 37 -31.5 50t-65.5 10z" />
    <glyph glyph-name="Chi.small" unicode="&#xe003;" horiz-adv-x="728" 
d="M168 -38l-146 138q8 9 100.5 100.5t105.5 105.5q-167 170 -186 191l161 139q18 -21 86 -104t81 -98q12 13 84 95.5t93 106.5l151 -135q-11 -11 -101 -92.5t-102 -93.5q18 -18 109 -108.5t99 -98.5l-161 -145q-15 17 -94 110t-95 111q-11 -11 -93 -111t-92 -111z" />
    <glyph glyph-name="Delta.small" unicode="&#xe004;" horiz-adv-x="738" 
d="M-28 -3l-5 8q304 512 384 629h8q71 -99 216.5 -334.5t178.5 -294.5l-3 -8q-14 0 -43.5 0.5t-75 1t-78.5 0.5q-83 1 -203 1q-142 0 -379 -3zM466 149q-6 11 -34 61.5t-50.5 92.5t-29.5 58q-51 -90 -111 -211q72 -3 116 -3q75 0 109 2z" />
    <glyph glyph-name="Epsilon.small" unicode="&#xe005;" horiz-adv-x="569" 
d="M507 144l3 -153q-16 0 -202.5 4.5t-215.5 4.5q2 45 2 247v113q0 6 -1 118t-1 126q41 0 205.5 6.5t194.5 8.5l4 -146q-19 0 -103 -2.5t-90 -2.5v-103q83 0 163 8l2 -142q-12 0 -83.5 1.5t-81.5 1.5v-92q183 0 204 2z" />
    <glyph glyph-name="Epsilontonos.small" unicode="&#xe006;" horiz-adv-x="622" 
d="M560 144l3 -153q-17 0 -203 4.5t-215 4.5q2 45 2 247v113q0 6 -1 118t-1 126q41 0 205.5 6.5t194.5 8.5l4 -146q-19 0 -103 -2.5t-90 -2.5v-103q83 0 163 8l2 -142q-12 0 -83.5 1.5t-81.5 1.5v-92q182 0 204 2zM-30 426l-18 190l103 3l-18 -194z" />
    <glyph glyph-name="Eta.small" unicode="&#xe007;" horiz-adv-x="843" 
d="M316 0h-222q2 74 2 258v92q0 212 -4 254h225q-5 -40 -5 -195v-30l219 16v32q0 139 -4 177h224q-4 -84 -4 -279v-85q0 -208 4 -240h-224q4 116 4 183v59l-219 -16v-25q0 -121 4 -201z" />
    <glyph glyph-name="Etatonos.small" unicode="&#xe008;" horiz-adv-x="894" 
d="M367 0h-222q2 74 2 258v92q0 212 -4 254h225q-5 -40 -5 -195v-30l219 16v32q0 139 -4 177h224q-4 -84 -4 -279v-85q0 -208 4 -240h-224q4 116 4 183v59l-219 -16v-25q0 -121 4 -201zM-30 426l-18 190l103 3l-18 -194z" />
    <glyph glyph-name="Euro.fitted" unicode="&#xe009;" horiz-adv-x="636" 
d="M311 223q34 -75 217 -75q31 0 66 5l11 -146q-58 -7 -89 -7q-172 0 -273 61t-132 155q-33 -3 -68 -3l-3 75q8 0 30 0.5t28 0.5v3q0 2 -0.5 6.5t-0.5 8.5q0 20 3 32q-5 0 -15 -0.5t-24 -1.5t-23 -1l3 76q15 0 41.5 0.5t32.5 0.5q93 239 436 305l37 -158
q-101 -11 -176 -45.5t-105 -89.5q182 10 238 16l-3 -83q-6 0 -54 -1.5t-104 -3.5t-96 -4q-2 -18 -2 -31q0 -18 1 -21q135 3 250 9l-3 -83h-223z" />
    <glyph glyph-name="Euro.oldstyle" unicode="&#xe00a;" horiz-adv-x="582" 
d="M284 188q28 -59 179 -59q39 0 77 4l10 -127q-60 -6 -89 -6q-151 0 -241 50t-117 131q-14 0 -64 -2l-3 69q9 0 29.5 0.5t25.5 0.5q-1 4 -1 15q0 10 2 24q-3 0 -23.5 -1t-34.5 -1l3 69q15 0 40 0.5t31 0.5q86 203 393 254l33 -138q-200 -21 -252 -106q188 12 214 14l-3 -76
q-8 0 -95.5 -2.5t-133.5 -4.5q-2 -16 -2 -24q0 -15 1 -18q147 3 225 8l-2 -75h-202z" />
    <glyph glyph-name="Gamma.small" unicode="&#xe00b;" horiz-adv-x="532" 
d="M513 613l-1 -166q-73 4 -202 4v-149q0 -202 5 -302h-224q3 51 3 244v113q0 202 -2 247q45 0 229.5 4.5t191.5 4.5z" />
    <glyph glyph-name="Iota.small" unicode="&#xe00c;" horiz-adv-x="401" 
d="M308 349v-92q0 -177 4 -257h-222q2 74 2 258v92q0 7 -1 125t-1 129h222q-4 -64 -4 -255z" />
    <glyph glyph-name="Iotadieresis.small" unicode="&#xe00d;" horiz-adv-x="401" 
d="M308 349v-92q0 -177 4 -257h-222q2 74 2 258v92q0 7 -1 125t-1 129h222q-4 -64 -4 -255zM82 689l-81 81l81 81l81 -81zM320 689l-81 81l81 81l81 -81z" />
    <glyph glyph-name="Iotatonos.small" unicode="&#xe00e;" horiz-adv-x="456" 
d="M363 349v-92q0 -177 4 -257h-222q2 74 2 258v92q0 7 -1 125t-1 129h222q-4 -64 -4 -255zM-31 426l-18 190l103 3l-18 -194z" />
    <glyph glyph-name="Kappa.alt" unicode="&#xe00f;" horiz-adv-x="794" 
d="M337 -10h-233q4 116 4 312v106q0 51 -2 179.5t-2 132.5h233q-5 -80 -5 -302v-26h2q132 170 267 335l166 -146q-16 -17 -99.5 -102t-112.5 -116q103 -118 173 -211q75 -100 75 -204q0 -83 -45 -155.5t-110 -115.5l-135 138q33 25 45 52.5t12 63.5q0 49 -45 118
q-1 1 -30.5 46t-49 75t-52.5 77t-59 81h-2v-18q0 -272 5 -320z" />
    <glyph glyph-name="Kappa.small" unicode="&#xe010;" horiz-adv-x="727" 
d="M315 -9h-224q3 75 3 266v90q0 44 -1.5 153t-1.5 112h224q-5 -70 -5 -242v-25h2q166 202 230 276l153 -135q-37 -35 -182 -177q22 -22 194 -190l-173 -144q-12 13 -99 127t-123 163h-2v-15q0 -216 5 -259z" />
    <glyph glyph-name="Kappa.smallalt" unicode="&#xe011;" horiz-adv-x="757" 
d="M315 -9h-224q3 75 3 266v90q0 44 -1.5 153t-1.5 112h224q-5 -70 -5 -242v-25h2q166 202 230 276l153 -135q-37 -35 -182 -177q100 -103 163 -179q70 -84 70 -174q0 -71 -42.5 -132.5t-103.5 -97.5l-126 117q53 37 53 99q0 42 -42 100q-92 127 -175 224v-1v-15
q0 -216 5 -259z" />
    <glyph glyph-name="Lambda.small" unicode="&#xe012;" horiz-adv-x="769" 
d="M180 -29l-180 92q2 3 54.5 88t103.5 167t112 177t93 140h19q59 -82 214.5 -311t172.5 -251l-184 -101q-34 60 -103.5 181.5t-104.5 182.5q-33 -61 -98.5 -182.5t-98.5 -182.5z" />
    <glyph glyph-name="Mu.small" unicode="&#xe013;" horiz-adv-x="990" 
d="M191 -26l-182 62q1 3 109 262.5t140 323.5h14q25 -37 71.5 -108t92 -140.5t53.5 -81.5q19 28 104 156.5t106 160.5h14q35 -71 146.5 -306t120.5 -253l-188 -76q-23 55 -69.5 170t-51.5 131q-92 -134 -193 -266h-14q-147 206 -178 261q-70 -238 -95 -296z" />
    <glyph glyph-name="Nu.small" unicode="&#xe014;" horiz-adv-x="797" 
d="M258 -6l-197 6q3 30 17.5 291t19.5 318l16 5q97 -63 254.5 -173t171.5 -125q0 15 -0.5 88t-0.5 122.5v81.5l196 -4q-11 -125 -22 -318q-14 -251 -16 -299l-16 -4q-61 37 -224 153t-200 146q0 -263 1 -288z" />
    <glyph glyph-name="Omega.small" unicode="&#xe015;" horiz-adv-x="871" 
d="M840 142l1 -147q-324 4 -349 4l-2 55q91 116 91 272q0 70 -36.5 112.5t-98.5 42.5q-73 0 -113.5 -53.5t-40.5 -130.5q0 -150 89 -243l-3 -54q-36 0 -196 -2.5t-168 -2.5l3 146q51 -4 138 -4l2 6q-39 20 -66 68.5t-27 99.5q0 127 105 216t294 89q162 0 254.5 -74
t92.5 -191q0 -63 -31 -121t-75 -85v-7q62 0 136 4z" />
    <glyph glyph-name="Omegatonos.small" unicode="&#xe016;" horiz-adv-x="931" 
d="M900 142l1 -147q-324 4 -349 4l-2 55q91 116 91 272q0 70 -36.5 112.5t-98.5 42.5q-73 0 -113.5 -53.5t-40.5 -130.5q0 -150 89 -243l-3 -54q-36 0 -196 -2.5t-168 -2.5l3 146q51 -4 138 -4l2 6q-39 20 -66 68.5t-27 99.5q0 127 105 216t294 89q162 0 254.5 -74
t92.5 -191q0 -63 -31 -121t-75 -85v-7q62 0 136 4zM38 426l-18 190l103 3l-18 -194z" />
    <glyph glyph-name="Omicron.small" unicode="&#xe017;" horiz-adv-x="825" 
d="M390 -14q-88 0 -157.5 26t-110.5 69t-62.5 93t-21.5 103q0 63 24.5 122.5t72 108.5t125 79t174.5 30q164 0 258 -79.5t94 -219.5q0 -41 -11.5 -83.5t-40.5 -88t-72 -80.5t-113.5 -57.5t-158.5 -22.5zM400 124q71 0 112 48t41 140q0 81 -34 124t-97 43q-71 0 -111 -54.5
t-40 -134.5t36.5 -123t92.5 -43z" />
    <glyph glyph-name="Omicrontonos.small" unicode="&#xe018;" horiz-adv-x="885" 
d="M450 -14q-88 0 -157.5 26t-110.5 69t-62.5 93t-21.5 103q0 63 24.5 122.5t72 108.5t125 79t174.5 30q164 0 258 -79.5t94 -219.5q0 -41 -11.5 -83.5t-40.5 -88t-72 -80.5t-113.5 -57.5t-158.5 -22.5zM460 124q71 0 112 48t41 140q0 81 -34 124t-97 43q-71 0 -111 -54.5
t-40 -134.5t36.5 -123t92.5 -43zM-1 426l-18 190l103 3l-18 -194z" />
    <glyph glyph-name="Phi.small" unicode="&#xe019;" horiz-adv-x="948" 
d="M563 -73h-192q0 10 1 36.5t1 40.5q-146 13 -226 84t-80 168q0 103 80 183.5t225 105.5q0 15 -0.5 40.5t-0.5 32.5h192q0 -8 -1 -32t-1 -37q134 -15 219 -83t85 -177q0 -44 -16 -86.5t-50 -83t-95.5 -70.5t-142.5 -41q0 -15 1 -43t1 -38zM670 284q0 56 -31.5 97t-81.5 47
q-1 -151 0 -302q52 9 82.5 52.5t30.5 105.5zM262 271q0 -64 32 -103.5t82 -44.5q1 150 0 299q-52 -8 -83 -52.5t-31 -98.5z" />
    <glyph glyph-name="Pi.small" unicode="&#xe01a;" horiz-adv-x="853" 
d="M820 463l-83 1q-1 -14 -1 -139v-85q0 -208 4 -240h-218q3 87 3 263v80q0 19 -0.5 69t-0.5 55q-5 0 -84 -0.5t-107 -2.5q-2 -13 -2 -115v-74q0 -175 5 -275h-218q3 56 3 258v92q0 68 -2 110l-80 -4v148q38 -1 189 -2t171 0q11 0 32.5 0.5t58 1t64.5 0.5q209 3 266 4v-145z
" />
    <glyph glyph-name="Psi.alt" unicode="&#xe01b;" horiz-adv-x="920" 
d="M661 695l198 2q14 -92 14 -186q0 -158 -84 -245.5t-225 -98.5q2 -153 3 -167h-208q2 46 2 167q-147 10 -228 87t-81 242q0 108 14 202l198 -5q-7 -70 -7 -194q0 -96 25.5 -141t79.5 -54v108q0 6 -1.5 149t-1.5 166h208q-4 -140 -4 -317v-106q56 14 80.5 63.5t24.5 148.5
q0 110 -7 179z" />
    <glyph glyph-name="Psi.small" unicode="&#xe01c;" horiz-adv-x="859" 
d="M637 579l201 -24q-18 -88 -27 -151q-36 -237 -280 -258q2 -135 3 -146h-198q2 38 2 146q-124 11 -190 71t-91 191q-26 135 -30 154l204 20q10 -115 17 -162q11 -80 30 -111.5t61 -39.5v77q0 4 -1.5 126t-1.5 146h198q-4 -144 -4 -274v-75q44 11 62 45t29 106q6 39 16 159
z" />
    <glyph glyph-name="Psi.smallalt" unicode="&#xe01d;" horiz-adv-x="825" 
d="M600 589l186 3q13 -72 13 -158q0 -134 -79 -208.5t-212 -83.5q2 -130 3 -142h-196q2 40 2 142q-138 9 -214.5 74.5t-76.5 205.5q0 91 14 171l186 -4q-7 -59 -7 -165q0 -81 24 -119.5t75 -46.5v92q0 5 -1.5 126.5t-1.5 141.5h196q-4 -120 -4 -270v-90q52 13 75.5 55
t23.5 126q0 102 -6 150z" />
    <glyph glyph-name="Rho.small" unicode="&#xe01e;" horiz-adv-x="669" 
d="M305 0h-214q0 16 1 142t1 160v93q0 11 -1 107t-1 102q283 0 376 -22q76 -17 123.5 -58.5t47.5 -108.5q0 -93 -89 -169.5t-245 -99.5v-22q0 -106 1 -124zM304 480v-208q43 2 80 33.5t37 85.5q0 39 -26 61.5t-91 27.5z" />
    <glyph glyph-name="Sigma.alt" unicode="&#xe01f;" horiz-adv-x="605" 
d="M499 363v-12q-57 -60 -163 -157v-10q22 -7 101.5 -33.5t120.5 -38.5l-66 -177q-136 50 -466 184v25q146 128 229 207v8q-40 35 -120 110t-99 92v21q222 92 460 184l59 -174q-123 -37 -209 -68v-9q70 -67 153 -152z" />
    <glyph glyph-name="Sigma.small" unicode="&#xe020;" horiz-adv-x="612" 
d="M520 308v-10q-92 -75 -185 -142v-9q109 -18 252 -35l-27 -159q-417 77 -554 108v23q231 176 268 205v7q-117 88 -253 201v20q69 17 524 113l32 -154q-89 -14 -234 -36v-8q121 -84 177 -124z" />
    <glyph glyph-name="Sigma.smallalt" unicode="&#xe021;" horiz-adv-x="549" 
d="M467 296v-11q-48 -43 -159 -132v-8q26 -7 101.5 -29t114.5 -32l-64 -149q-150 48 -454 155v21q128 97 223 174v7q-33 25 -105.5 83.5t-108.5 86.5v18q205 73 449 155l57 -146q-134 -36 -203 -58v-7q8 -7 149 -128z" />
    <glyph glyph-name="Tau.small" unicode="&#xe022;" horiz-adv-x="601" 
d="M412 0h-222q2 44 2 235v215q-55 0 -195 -5v157q72 -7 267 -7h79q183 0 260 7v-157q-85 5 -194 5v-228q0 -196 3 -222z" />
    <glyph glyph-name="Theta.small" unicode="&#xe023;" horiz-adv-x="849" 
d="M401 -16q-90 0 -161.5 26t-113.5 69t-64 93t-22 103q0 63 25.5 122.5t74 108.5t128.5 79t179 30q167 0 264.5 -80t97.5 -220q0 -41 -12 -84t-42 -88t-74.5 -80t-117 -57t-162.5 -22zM411 116q80 0 124.5 50t45.5 144q1 82 -37.5 127.5t-108.5 45.5q-78 0 -123 -57
t-45 -139t40 -126.5t104 -44.5zM317 244l-10 98q124 7 222 18l7 -101q-195 -12 -219 -15z" />
    <glyph glyph-name="Upsilon.small" unicode="&#xe024;" horiz-adv-x="714" 
d="M460 0h-225q5 100 5 121v35q0 80 -30.5 139t-83.5 93q-10 7 -21 12t-23 9l-19.5 6.5t-21 6t-17.5 4.5l70 194q107 -30 172 -89q57 -55 87 -145h7q28 80 99 144q74 65 173 92l57 -195q-84 -17 -138 -57q-43 -32 -69 -87t-26 -125v-53q0 -71 4 -105z" />
    <glyph glyph-name="Upsilondieresis.alt" unicode="&#xe025;" horiz-adv-x="785" 
d="M499 0h-235q5 115 5 142v44q0 94 -36 169t-94 113q-51 35 -113 52l77 206q124 -41 188 -105q66 -66 97 -167h8q29 88 110 166q78 74 188 106l63 -206q-82 -17 -151 -75q-48 -39 -80 -107.5t-32 -149.5v-65q0 -73 5 -123zM124 187l-85 85l85 85l85 -85zM644 181l-85 85
l85 85l85 -85z" />
    <glyph glyph-name="Upsilondieresis.small" unicode="&#xe026;" horiz-adv-x="714" 
d="M460 0h-225q5 100 5 121v35q0 80 -30.5 139t-83.5 93q-10 7 -21 12t-23 9l-19.5 6.5t-21 6t-17.5 4.5l70 194q107 -30 172 -89q57 -55 87 -145h7q28 80 99 144q74 65 173 92l57 -195q-84 -17 -138 -57q-43 -32 -69 -87t-26 -125v-53q0 -71 4 -105zM248 689l-81 81l81 81
l81 -81zM486 689l-81 81l81 81l81 -81z" />
    <glyph glyph-name="Upsilondieresis.smallalt" unicode="&#xe027;" horiz-adv-x="731" 
d="M105 144l-81 81l81 81l81 -81zM625 144l-81 81l81 81l81 -81zM477 0h-225q5 100 5 121v35q0 80 -30.5 139t-83.5 93q-10 7 -21 12t-23 9l-19.5 6.5t-21 6t-17.5 4.5l70 194q111 -31 172 -89q56 -51 87 -145h7q28 80 99 144q74 65 173 92l57 -195q-84 -17 -138 -57
q-43 -32 -69 -87t-26 -125v-53q0 -71 4 -105z" />
    <glyph glyph-name="Upsilontonos.small" unicode="&#xe028;" horiz-adv-x="781" 
d="M527 0h-225q5 100 5 121v35q0 80 -30.5 139t-83.5 93q-10 7 -21 12t-23 9l-19.5 6.5t-21 6t-17.5 4.5l70 194q107 -30 172 -89q57 -55 87 -145h7q28 80 99 144q74 65 173 92l57 -195q-84 -17 -138 -57q-43 -32 -69 -87t-26 -125v-53q0 -71 4 -105zM-29 426l-18 190l103 3
l-18 -194z" />
    <glyph glyph-name="Xi.small" unicode="&#xe029;" horiz-adv-x="679" 
d="M86 448l-2 164q122 0 533 8l4 -161q-90 -2 -298.5 -6t-236.5 -5zM116 229l-1 155q153 0 463 4l2 -156q-64 0 -211 -2t-253 -1zM64 3l-1 160q9 0 130.5 -1t221 -1.5t202.5 0.5l4 -164q-82 0 -306 3t-251 3z" />
    <glyph glyph-name="Y.alt" unicode="&#xe02a;" horiz-adv-x="785" 
d="M269 245q-21 55 -112 162t-147 157l165 173q58 -52 121.5 -146.5t94.5 -180.5h8q40 90 106 183t127 144l153 -168q-47 -34 -158 -156t-133 -172v-118q0 -73 5 -123h-235q5 115 5 142v103z" />
    <glyph glyph-name="Yacute.alt" unicode="&#xe02b;" horiz-adv-x="785" 
d="M269 245q-21 55 -112 162t-147 157l165 173q58 -52 121.5 -146.5t94.5 -180.5h8q40 90 106 183t127 144l153 -168q-47 -34 -158 -156t-133 -172v-118q0 -73 5 -123h-235q5 115 5 142v103zM313 834l171 118l57 -101l-189 -86z" />
    <glyph glyph-name="Yacutesmall.alt" unicode="&#xe02c;" horiz-adv-x="714" 
d="M240 199q-27 56 -102.5 138.5t-137.5 137.5l153 157q55 -51 111.5 -132t93.5 -167h5q32 73 99 166t124 136l130 -153q-60 -49 -143 -135t-117 -154v-88q0 -71 4 -105h-225q5 100 5 121v78zM323 741l162 112l54 -96l-179 -81z" />
    <glyph glyph-name="Ydieresis.alt" unicode="&#xe02d;" horiz-adv-x="785" 
d="M269 245q-21 55 -112 162t-147 157l165 173q58 -52 121.5 -146.5t94.5 -180.5h8q40 90 106 183t127 144l153 -168q-47 -34 -158 -156t-133 -172v-118q0 -73 5 -123h-235q5 115 5 142v103zM268 775l-85 85l85 85l85 -85zM518 775l-85 85l85 85l85 -85z" />
    <glyph glyph-name="Ydieresissmall.alt" unicode="&#xe02e;" horiz-adv-x="714" 
d="M240 199q-27 56 -102.5 138.5t-137.5 137.5l153 157q55 -51 111.5 -132t93.5 -167h5q32 73 99 166t124 136l130 -153q-60 -49 -143 -135t-117 -154v-88q0 -71 4 -105h-225q5 100 5 121v78zM248 689l-81 81l81 81l81 -81zM486 689l-81 81l81 81l81 -81z" />
    <glyph glyph-name="Ysmall.alt" unicode="&#xe02f;" horiz-adv-x="714" 
d="M240 199q-27 56 -102.5 138.5t-137.5 137.5l153 157q55 -51 111.5 -132t93.5 -167h5q32 73 99 166t124 136l130 -153q-60 -49 -143 -135t-117 -154v-88q0 -71 4 -105h-225q5 100 5 121v78z" />
    <glyph glyph-name="Zeta.small" unicode="&#xe030;" horiz-adv-x="660" 
d="M66 466l3 154q23 -3 279 -12t270 -10l7 -11q-19 -32 -149.5 -233t-138.5 -209q221 0 273 6l-4 -160q-9 0 -279.5 4.5t-292.5 4.5l-7 12q20 28 151.5 230.5t142.5 215.5q-16 0 -129.5 4t-125.5 4z" />
    <glyph glyph-name="cent.fitted" unicode="&#xe031;" horiz-adv-x="568" 
d="M233 -16l2 145q-106 32 -150.5 88.5t-44.5 120.5q0 161 195 259l-2 166h128l-3 -127q56 17 141 26l11 -166q-122 -8 -183.5 -47t-61.5 -96q0 -44 45 -63.5t108 -19.5q28 0 108 7l7 -154q-43 -8 -85 -8q-60 0 -90 1l3 -132h-128z" />
    <glyph glyph-name="dollar.fitted" unicode="&#xe032;" horiz-adv-x="580" 
d="M238 800h129l-4 -105q65 18 117 20l10 -164q-84 0 -140.5 -16.5t-56.5 -45.5q0 -16 19.5 -30.5t70.5 -37.5q133 -60 133 -159q0 -66 -48 -115t-105 -78l4 -153h-129l4 125q-19 -7 -76.5 -16.5t-82.5 -11.5l-15 161q80 1 150.5 22t70.5 46q0 23 -19 38.5t-68 38.5
q-137 65 -137 161q0 55 49 103t128 76z" />
    <glyph glyph-name="florin.fitted" unicode="&#xe033;" horiz-adv-x="520" 
d="M272 0h-207v47q0 236 16 340q46 307 389 339l20 -171q-94 -3 -145 -39t-63 -139q-2 -13 -3 -36q48 2 161 13l-3 -117q-37 0 -163 -6q-2 -84 -2 -148v-83z" />
    <glyph glyph-name="florin.oldstyle" unicode="&#xe034;" horiz-adv-x="468" 
d="M251 0h-192v40q0 201 14 289q42 260 350 288l18 -151q-85 -3 -128 -31.5t-53 -111.5q-2 -11 -3 -30q10 1 139 11l-3 -106q-63 0 -140 -5q-2 -64 -2 -122v-71z" />
    <glyph glyph-name="idotaccent" unicode="&#xe035;" horiz-adv-x="401" 
d="M308 349v-92q0 -177 4 -257h-222q2 74 2 258v92q0 7 -1 125t-1 129h222q-4 -64 -4 -255zM210 690l-87 87l87 87l87 -87z" />
    <glyph glyph-name="psi.alt" unicode="&#xe036;" horiz-adv-x="825" 
d="M600 589l186 3q13 -72 13 -158q0 -134 -79 -208.5t-212 -83.5q2 -130 3 -142h-196q2 40 2 142q-138 9 -214.5 74.5t-76.5 205.5q0 91 14 171l186 -4q-7 -59 -7 -165q0 -81 24 -119.5t75 -46.5v92q0 5 -1.5 126.5t-1.5 141.5h196q-4 -120 -4 -270v-90q52 13 75.5 55
t23.5 126q0 102 -6 150z" />
    <glyph glyph-name="sigma.alt" unicode="&#xe037;" horiz-adv-x="549" 
d="M467 296v-11q-48 -43 -159 -132v-8q26 -7 101.5 -29t114.5 -32l-64 -149q-150 48 -454 155v21q128 97 223 174v7q-33 25 -105.5 83.5t-108.5 86.5v18q205 73 449 155l57 -146q-134 -36 -203 -58v-7q8 -7 149 -128z" />
    <glyph glyph-name="sterling.fitted" unicode="&#xe038;" horiz-adv-x="610" 
d="M570 145v-150q-7 0 -218 2.5t-285 2.5q24 77 60 270q-64 -5 -86 -6l-1 96q29 0 97 5q3 33 10 66q29 133 132.5 208.5t263.5 86.5l12 -160q-71 -2 -100 -14q-68 -29 -96 -137q-1 -3 -7 -44q29 2 90 7.5t68 5.5l-4 -103q-65 -2 -169 -7q-23 -99 -52 -139q152 0 285 10z" />
    <glyph glyph-name="sterling.oldstyle" unicode="&#xe039;" horiz-adv-x="549" 
d="M513 128v-132q-6 0 -196 2t-257 2q23 70 54 227q-57 -5 -77 -6l-1 88q13 0 87 4q2 15 9 53q26 113 119.5 177.5t237.5 73.5l11 -140q-28 -1 -41 -2t-39 -7.5t-40 -18.5t-29 -36.5t-21 -59.5q-5 -29 -6 -35q14 1 46.5 4t57 5t31.5 2l-4 -93q-12 0 -60.5 -2t-84.5 -4
q-21 -85 -44 -110q132 0 247 8z" />
    <glyph glyph-name="upsilondieresis.alt" unicode="&#xe03a;" horiz-adv-x="731" 
d="M105 144l-81 81l81 81l81 -81zM625 144l-81 81l81 81l81 -81zM477 0h-225q5 100 5 121v35q0 80 -30.5 139t-83.5 93q-10 7 -21 12t-23 9l-19.5 6.5t-21 6t-17.5 4.5l70 194q111 -31 172 -89q56 -51 87 -145h7q28 80 99 144q74 65 173 92l57 -195q-84 -17 -138 -57
q-43 -32 -69 -87t-26 -125v-53q0 -71 4 -105z" />
    <glyph glyph-name="y.alt" unicode="&#xe03b;" horiz-adv-x="714" 
d="M240 199q-27 56 -102.5 138.5t-137.5 137.5l153 157q55 -51 111.5 -132t93.5 -167h5q32 73 99 166t124 136l130 -153q-60 -49 -143 -135t-117 -154v-88q0 -71 4 -105h-225q5 100 5 121v78z" />
    <glyph glyph-name="yacute.alt" unicode="&#xe03c;" horiz-adv-x="714" 
d="M240 199q-27 56 -102.5 138.5t-137.5 137.5l153 157q55 -51 111.5 -132t93.5 -167h5q32 73 99 166t124 136l130 -153q-60 -49 -143 -135t-117 -154v-88q0 -71 4 -105h-225q5 100 5 121v78zM323 741l162 112l54 -96l-179 -81z" />
    <glyph glyph-name="ydieresis.alt" unicode="&#xe03d;" horiz-adv-x="714" 
d="M240 199q-27 56 -102.5 138.5t-137.5 137.5l153 157q55 -51 111.5 -132t93.5 -167h5q32 73 99 166t124 136l130 -153q-60 -49 -143 -135t-117 -154v-88q0 -71 4 -105h-225q5 100 5 121v78zM248 689l-81 81l81 81l81 -81zM486 689l-81 81l81 81l81 -81z" />
    <glyph glyph-name="yen.fitted" unicode="&#xe03e;" horiz-adv-x="700" 
d="M445 0h-205q5 125 5 152v50q-104 1 -158 -1l-2 97q52 -2 148 -1q-40 54 -122 169.5t-96 134.5l175 114q123 -225 158 -286h2q61 99 165 286l170 -105q-8 -11 -54 -74t-95.5 -129.5t-84.5 -110.5q96 0 146 2l2 -97q-48 2 -160 2v-71q0 -69 6 -132z" />
    <glyph glyph-name="yen.oldstyle" unicode="&#xe03f;" horiz-adv-x="630" 
d="M403 0h-189q5 105 5 129v37q-92 1 -141 -1l-1 88q21 -1 131 -1q-37 47 -109.5 143t-83.5 110l164 105q118 -216 134 -241h2q26 38 141 241l160 -96q-190 -241 -208 -262q107 0 129 1l2 -88q-42 2 -142 2v-55q0 -58 6 -112z" />
    <glyph glyph-name="uniF628" unicode="&#xf628;" horiz-adv-x="1361" 
d="M230 273q-97 0 -145.5 44t-48.5 111q0 69 54.5 122.5t154.5 53.5q188 0 188 -170q0 -22 -10 -47.5t-31.5 -52t-63.5 -44t-98 -17.5zM231 362q32 0 50.5 19t18.5 56q0 40 -17.5 59t-45.5 19q-32 0 -50 -22.5t-18 -58.5q0 -33 18 -52.5t44 -19.5zM696 0q-97 0 -145.5 44
t-48.5 111q0 69 54.5 122.5t154.5 53.5q188 0 188 -169q0 -23 -10 -48.5t-31.5 -52t-63.5 -44t-98 -17.5zM698 85q27 0 47.5 19t20.5 57q0 37 -18.5 57t-43.5 20q-31 0 -50 -22t-19 -58q0 -35 17.5 -54t45.5 -19zM1122 0q-97 0 -145.5 44t-48.5 111q0 69 54.5 122.5
t154.5 53.5q188 0 188 -169q0 -23 -10 -48.5t-31.5 -52t-63.5 -44t-98 -17.5zM1124 85q27 0 47.5 19t20.5 57q0 37 -18.5 57t-43.5 20q-31 0 -50 -22t-19 -58q0 -35 17.5 -54t45.5 -19zM330 -18l-89 53q11 16 190 298q32 51 75 117t70.5 109t39.5 62l92 -51
q-60 -75 -185 -273q-85 -135 -193 -315z" />
    <glyph glyph-name="uniF638" unicode="&#xf638;" horiz-adv-x="817" 
d="M635 731l76 -61q-12 -13 -43 -50q119 -93 119 -252q0 -70 -24.5 -132.5t-70.5 -111.5t-120 -78t-167 -29q-103 0 -183 33q-16 -21 -54 -69l-76 61q6 7 21 26t25 31q-108 86 -108 242q0 153 109 253t288 100q89 0 158 -29q42 55 50 66zM335 199q34 -19 76 -19q57 0 101 45
t44 138q0 58 -20 95q-16 -18 -68 -85q-92 -120 -133 -174zM470 520q-25 11 -55 11q-61 0 -108 -42t-47 -140q0 -45 14 -78q13 17 52.5 67.5t63.5 81.5q25 33 80 100z" />
    <glyph glyph-name="uniF639" unicode="&#xf639;" horiz-adv-x="837" 
d="M415 17q-169 0 -272 85.5t-103 238.5t109 253t288 100q165 0 262.5 -92.5t97.5 -233.5q0 -70 -24.5 -132.5t-70.5 -111.5t-120 -78t-167 -29zM421 180q57 0 101 45t44 138q0 90 -43 129t-98 39q-27 0 -52 -8.5t-49.5 -27.5t-39 -56.5t-14.5 -89.5q1 -90 46 -129.5
t105 -39.5z" />
    <glyph glyph-name="uniF63A" unicode="&#xf63a;" horiz-adv-x="635" 
d="M567 178v-186q-20 3 -177 5q-142 3 -328 3h-37l-15 35q6 6 44.5 39t63 55.5t63 62.5t61.5 71.5t41 70t18 70.5q0 46 -24.5 78.5t-65.5 48.5t-78 22.5t-78 7.5l32 166q227 -19 338 -95.5t111 -180.5q0 -28 -7 -55t-16 -48t-26 -44t-29 -37t-33 -32.5t-29.5 -25
t-28.5 -21.5l-20 -14v-8z" />
    <glyph glyph-name="uniF63B" unicode="&#xf63b;" horiz-adv-x="595" 
d="M74 574l13 156q88 -1 162.5 -13t133 -34.5t91.5 -59t33 -82.5q0 -52 -42.5 -98t-95.5 -66v-6q73 -15 117.5 -53t44.5 -96q0 -106 -134.5 -176.5t-338.5 -72.5l-7 158q40 -4 92 3.5t96.5 32.5t44.5 62q0 26 -20.5 44t-51 25t-54.5 10t-44 2l-6 91q19 0 43.5 4t52.5 14
t47 30t19 48q0 21 -19.5 37t-50.5 24t-63 12t-63 4z" />
    <glyph glyph-name="uniF63C" unicode="&#xf63c;" horiz-adv-x="680" 
d="M647 258l-7 -148l-106 4v-29q0 -27 2 -85h-207q0 9 2.5 42t2.5 53v18h-315l-33 89l429 535l120 -26v-457zM340 252v185h-2q-10 -18 -70.5 -97.5t-66.5 -87.5h139z" />
    <glyph glyph-name="uniF63D" unicode="&#xf63d;" horiz-adv-x="597" 
d="M258 555l-12 -71q85 -7 144 -26t88.5 -48t41.5 -59t12 -69q0 -103 -128.5 -192.5t-336.5 -114.5l-28 166q39 2 78.5 9.5t78.5 20.5t63 34.5t24 48.5q0 41 -54 61t-166 23l46 372q190 2 415 14l-1 -181z" />
    <glyph glyph-name="uniF63E" unicode="&#xf63e;" horiz-adv-x="682" 
d="M399 749l104 -155q-116 -58 -171 -139q138 0 225 -64t85 -158q-2 -109 -89 -179t-222 -70q-128 0 -204 57q-87 66 -87 189q0 143 107 292t252 227zM343 121q33 0 55.5 26t22.5 67q0 54 -35.5 87.5t-99.5 34.5q-24 -48 -24 -122q0 -39 22.5 -66t58.5 -27z" />
    <glyph glyph-name="uniF63F" unicode="&#xf63f;" horiz-adv-x="590" 
d="M44 539l-4 181q507 -11 553 -10l11 -16q-14 -38 -142.5 -358.5t-144.5 -367.5l-206 88q7 14 66 130.5t113.5 226t61.5 126.5h-308z" />
    <glyph glyph-name="uniF640" unicode="&#xf640;" horiz-adv-x="721" 
d="M360 613q-41 0 -65.5 -25t-24.5 -71q0 -40 25 -66t57 -26q34 0 60 24.5t26 73.5q0 50 -23 70t-55 20zM348 -16q-157 0 -227.5 53t-70.5 140q0 58 34.5 109t90.5 79q-54 24 -85.5 68t-31.5 94q0 80 77.5 140t230.5 59q141 0 213 -47.5t72 -130.5q0 -48 -30.5 -96.5
t-91.5 -77.5q132 -51 132 -179q0 -37 -16 -71.5t-50 -67t-98 -52.5t-149 -20zM353 97q37 0 65 25.5t28 80.5q0 51 -27 77.5t-60 26.5q-45 0 -70.5 -30.5t-25.5 -78.5q0 -49 27.5 -75t62.5 -26z" />
    <glyph glyph-name="uniF641" unicode="&#xf641;" horiz-adv-x="672" 
d="M278 -39l-100 157q109 57 161 131q-136 0 -218.5 64.5t-80.5 157.5q2 106 89.5 181t214.5 74q138 -2 209 -63q79 -68 79 -186q0 -138 -106.5 -286t-247.5 -230zM341 588q-36 0 -59 -27t-23 -72q0 -55 34.5 -88t100.5 -34q24 48 24 122q0 44 -21 71.5t-56 27.5z" />
    <glyph glyph-name="uniF642" unicode="&#xf642;" horiz-adv-x="935" 
d="M230 273q-97 0 -145.5 44t-48.5 111q0 69 54.5 122.5t154.5 53.5q188 0 188 -170q0 -22 -10 -47.5t-31.5 -52t-63.5 -44t-98 -17.5zM231 362q32 0 50.5 19t18.5 56q0 40 -17.5 59t-45.5 19q-32 0 -50 -22.5t-18 -58.5q0 -33 18 -52.5t44 -19.5zM696 0q-97 0 -145.5 44
t-48.5 111q0 69 54.5 122.5t154.5 53.5q188 0 188 -169q0 -23 -10 -48.5t-31.5 -52t-63.5 -44t-98 -17.5zM698 85q27 0 47.5 19t20.5 57q0 37 -18.5 57t-43.5 20q-31 0 -50 -22t-19 -58q0 -35 17.5 -54t45.5 -19zM330 -18l-89 53q11 16 190 298q32 51 75 117t70.5 109
t39.5 62l92 -51q-60 -75 -185 -273q-85 -135 -193 -315z" />
    <glyph glyph-name="uniF643" unicode="&#xf643;" horiz-adv-x="737" 
d="M366 14q-150 0 -243 72.5t-93 203.5t98.5 215.5t256.5 84.5q147 0 234.5 -78t87.5 -199q0 -126 -90 -212.5t-251 -86.5zM371 157q50 0 88.5 37.5t38.5 114.5q0 73 -37.5 105.5t-85.5 32.5q-53 0 -95 -36t-42 -114q0 -73 40 -106.5t93 -33.5z" />
    <glyph glyph-name="uniF644" unicode="&#xf644;" horiz-adv-x="737" 
d="M512 0h-215q4 88 4 243v168q-4 -1 -98 -44l-50 119q66 25 343 142l18 -10q-4 -164 -4 -261v-132q-1 -180 2 -225z" />
    <glyph glyph-name="uniF645" unicode="&#xf645;" horiz-adv-x="737" 
d="M592 155v-164q-14 1 -196 5q-194 4 -258 4h-33l-14 35l25 19q25 20 34.5 28t36 30t40.5 36l37 37t36 41t26.5 39t20 41t6.5 38q0 32 -16 56.5t-37.5 37.5t-55 21t-57.5 10.5t-55 4.5l28 145q204 -13 305.5 -80t101.5 -156q0 -24 -6 -47t-15 -41t-23.5 -37t-26.5 -31
t-29.5 -26.5t-26.5 -21.5t-24 -17t-17 -11v-7z" />
    <glyph glyph-name="uniF646" unicode="&#xf646;" horiz-adv-x="737" 
d="M170 486l11 138q107 -1 191 -17.5t138 -53.5t54 -91q0 -45 -39 -85t-86 -57v-5q64 -11 105.5 -44.5t41.5 -83.5q0 -92 -123 -152t-308 -61l-6 139q64 -5 134.5 15t70.5 65q0 22 -17 37t-45 20.5t-47 7.5t-39 2l-6 83q25 0 54 5.5t58 25t29 50.5q0 59 -171 62z" />
    <glyph glyph-name="uniF647" unicode="&#xf647;" horiz-adv-x="737" 
d="M655 221l-6 -132l-93 3v-25q0 -7 0.5 -30t0.5 -37h-188q0 8 2.5 34t2.5 42v15h-284l-32 83l387 454l112 -24v-386zM379 216v152h-2q-4 -6 -118 -152h120z" />
    <glyph glyph-name="uniF648" unicode="&#xf648;" horiz-adv-x="737" 
d="M341 470l-11 -57q144 -12 199.5 -58t55.5 -116q0 -92 -116.5 -168.5t-304.5 -93.5l-25 146q37 2 71 7.5t69 15.5t56 28t21 41q0 37 -47 53.5t-148 17.5l41 322q125 0 374 11l-1 -159z" />
    <glyph glyph-name="uniF649" unicode="&#xf649;" horiz-adv-x="737" 
d="M420 643l97 -136q-110 -59 -152 -119q124 0 201 -54t77 -136q0 -92 -79.5 -152t-203.5 -60q-119 0 -187 49q-78 56 -78 161q0 121 96.5 249t228.5 198zM371 107q29 0 47 20.5t18 54.5q0 46 -29 73.5t-84 28.5q-21 -42 -21 -102q0 -31 18.5 -53t50.5 -22z" />
    <glyph glyph-name="uniF64A" unicode="&#xf64a;" horiz-adv-x="737" 
d="M160 452l-4 162q402 -9 498 -8l15 -14q-15 -37 -78 -184.5t-117.5 -277.5t-65.5 -162l-194 79q16 32 110.5 209.5t106.5 197.5z" />
    <glyph glyph-name="uniF64B" unicode="&#xf64b;" horiz-adv-x="737" 
d="M373 521q-36 0 -56 -21.5t-20 -58.5q0 -33 20.5 -55t48.5 -22q29 0 50.5 21t21.5 62q0 39 -19 56.5t-46 17.5zM362 -20q-142 0 -207 46.5t-65 121.5q0 51 31.5 94.5t82.5 67.5q-49 20 -78 57t-29 81q0 69 72 122t209 53q126 0 193.5 -43.5t67.5 -115.5q0 -41 -28 -81
t-83 -65q120 -43 120 -152q0 -32 -15 -63t-46.5 -59.5t-89.5 -46t-135 -17.5zM367 82q31 0 54.5 22.5t23.5 66.5q0 40 -22 63.5t-51 23.5q-38 0 -59.5 -25.5t-21.5 -66.5q0 -38 23 -61t53 -23z" />
    <glyph glyph-name="uniF64C" unicode="&#xf64c;" horiz-adv-x="737" 
d="M320 -35l-98 136q105 57 143 109q-120 0 -193 55.5t-73 136.5q0 90 79.5 154t197.5 64q124 0 192 -54q71 -59 71 -159q0 -118 -96 -245t-223 -197zM373 499q-31 0 -50.5 -22.5t-19.5 -58.5q0 -47 28.5 -75.5t85.5 -29.5q21 42 21 105q0 35 -17.5 58t-47.5 23z" />
    <glyph glyph-name="uniF64E" unicode="&#xf64e;" horiz-adv-x="737" 
d="M358 188q28 -59 179 -59q39 0 77 4l10 -127q-60 -6 -89 -6q-151 0 -241 50t-117 131q-14 0 -64 -2l-3 69q9 0 29.5 0.5t25.5 0.5q-1 4 -1 15q0 10 2 24q-3 0 -23.5 -1t-34.5 -1l3 69q15 0 40 0.5t31 0.5q86 203 393 254l33 -138q-200 -21 -252 -106q188 12 214 14l-3 -76
q-8 0 -95.5 -2.5t-133.5 -4.5q-2 -16 -2 -24q0 -15 1 -18q147 3 225 8l-2 -75h-202z" />
    <glyph glyph-name="uniF64F" unicode="&#xf64f;" horiz-adv-x="737" 
d="M384 0h-192v40q0 201 14 289q42 260 350 288l18 -151q-85 -3 -128 -31.5t-53 -111.5q-1 -11 -3 -30q10 1 139 11l-3 -106q-62 0 -140 -5q-2 -64 -2 -122v-71z" />
    <glyph glyph-name="uniF651" unicode="&#xf651;" horiz-adv-x="737" 
d="M607 128v-132q-6 0 -196 2t-257 2q23 70 54 227q-57 -5 -77 -6l-1 88q13 0 87 4q2 15 9 53q26 113 119.5 177.5t237.5 73.5l11 -140q-28 -1 -41 -2t-39 -7.5t-40 -18.5t-29 -36.5t-21 -59.5q-5 -29 -6 -35q14 1 46.5 4t57 5t31.5 2l-4 -93q-12 0 -60 -2t-85 -4
q-21 -85 -44 -110q132 0 247 8z" />
    <glyph glyph-name="uniF652" unicode="&#xf652;" horiz-adv-x="737" 
d="M455 0h-189q5 105 5 129v37q-92 1 -141 -1l-1 88q21 -1 131 -1q-37 47 -109.5 143t-83.5 110l164 105q118 -216 134 -241h2q26 38 141 241l160 -96q-190 -241 -208 -262q107 0 129 1l2 -88q-42 2 -142 2v-55q0 -58 6 -112z" />
    <glyph glyph-name="uniF653" unicode="&#xf653;" horiz-adv-x="737" 
d="M317 680h122l-3 -88q12 3 49 9t54 7l9 -140q-75 0 -125 -13.5t-50 -38.5q0 -14 16 -24.5t63 -31.5q119 -51 119 -137q0 -31 -14 -59.5t-37 -49.5t-42.5 -34t-40.5 -24l3 -127h-122l4 105q-33 -13 -140 -23l-14 137q72 1 134.5 19t62.5 39q0 20 -15.5 31.5t-60.5 31.5
q-123 55 -123 139q0 49 43 90.5t112 64.5z" />
    <glyph glyph-name="uniF654" unicode="&#xf654;" horiz-adv-x="737" 
d="M317 -14l2 124q-93 28 -134 75.5t-41 101.5q0 135 175 220l-2 142h121l-3 -108q49 14 125 22l10 -144q-110 -7 -162.5 -39t-52.5 -80q0 -67 132 -67q24 0 43 1t34 2.5t20 1.5l7 -133q-35 -7 -77 -7q-54 0 -79 1l3 -113h-121z" />
    <glyph glyph-name="uniF66D" unicode="&#xf66d;" horiz-adv-x="769" 
d="M180 -29l-180 92q2 3 54.5 88t103.5 167t112 177t93 140h19q59 -82 214.5 -311t172.5 -251l-184 -101q-15 23 -46 73.5t-34 54.5l-267 -13zM294 217l150 7q-12 24 -39 73t-36 67q-69 -134 -75 -147zM494 824l50 -69q-28 -30 -70.5 -50.5t-89.5 -20.5q-43 0 -89 21.5
t-69 47.5l53 71q48 -52 113 -52q57 0 102 52z" />
    <glyph glyph-name="uniF66E" unicode="&#xf66e;" horiz-adv-x="769" 
d="M180 -29l-180 92q2 3 54.5 88t103.5 167t112 177t93 140h19q59 -82 214.5 -311t172.5 -251l-184 -101q-15 23 -46 73.5t-34 54.5l-267 -13zM294 217l150 7q-12 24 -39 73t-36 67q-69 -134 -75 -147zM249 691l8 82l264 3l-4 -90z" />
    <glyph glyph-name="uniF66F" unicode="&#xf66f;" horiz-adv-x="769" 
d="M294 217l150 7q-12 24 -39 73t-36 67q-69 -134 -75 -147zM180 -29l-180 92q2 3 54.5 88t103.5 167t112 177t93 140h19q59 -82 214.5 -311t172.5 -251l-185 -100q-17 -9 -34 -36t-17 -46q0 -22 21.5 -38.5t64.5 -19.5l-19 -72q-78 13 -125 44t-47 74q0 64 131 134
q-11 18 -24 39t-20.5 33t-9.5 15l-267 -13z" />
    <glyph glyph-name="uniF671" unicode="&#xf671;" horiz-adv-x="591" 
d="M543 155l9 -162q-56 -7 -108 -7q-107 0 -189.5 23t-129 61t-70 81.5t-23.5 90.5q0 55 27.5 111t81 108t143.5 94t203 62l40 -168q-133 -22 -197.5 -72t-64.5 -113q0 -51 50.5 -82t139.5 -31q44 0 88 4zM331 741l162 112l54 -96l-179 -81z" />
    <glyph glyph-name="uniF672" unicode="&#xf672;" horiz-adv-x="591" 
d="M543 155l9 -162q-56 -7 -108 -7q-107 0 -189.5 23t-129 61t-70 81.5t-23.5 90.5q0 55 27.5 111t81 108t143.5 94t203 62l40 -168q-133 -22 -197.5 -72t-64.5 -113q0 -51 50.5 -82t139.5 -31q44 0 88 4zM390 679l-154 94l50 74l107 -73l93 73l48 -74z" />
    <glyph glyph-name="uniF675" unicode="&#xf675;" horiz-adv-x="762" 
d="M94 269v105q0 198 -4 230q244 0 351 -14q68 -9 120.5 -28t82.5 -41.5t48.5 -50.5t24.5 -51t6 -46q0 -99 -56.5 -175.5t-149.5 -120t-202.5 -64t-225.5 -17.5q5 65 5 273zM306 464v-310q73 10 132 59t59 130q0 38 -15.5 63t-45 37t-60 16.5t-70.5 4.5zM366 679l-154 94
l50 74l107 -73l93 73l48 -74z" />
    <glyph glyph-name="uniF676" unicode="&#xf676;" horiz-adv-x="762" 
d="M16 256l-3 100l81 2v16q0 198 -4 230q246 0 353 -14q68 -9 120.5 -28t82 -41.5t47.5 -50.5t24 -50.5t6 -46.5q0 -79 -37 -144.5t-98.5 -108.5t-143.5 -72.5t-171.5 -41.5t-183.5 -10q5 63 5 263zM410 369l-3 -97l-104 -5v-114q79 10 138.5 59t59.5 131q0 69 -53.5 95
t-144.5 27v-100z" />
    <glyph glyph-name="uniF678" unicode="&#xf678;" horiz-adv-x="569" 
d="M507 144l3 -153q-16 0 -202.5 4.5t-215.5 4.5q2 45 2 247v113q0 6 -1 118t-1 126q41 0 205.5 6.5t194.5 8.5l4 -146q-19 0 -103 -2.5t-90 -2.5v-103q83 0 163 8l2 -142q-12 0 -83.5 1.5t-81.5 1.5v-92q183 0 204 2zM299 679l-154 94l50 74l107 -73l93 73l48 -74z" />
    <glyph glyph-name="uniF679" unicode="&#xf679;" horiz-adv-x="569" 
d="M507 144l3 -153q-16 0 -202.5 4.5t-215.5 4.5q2 45 2 247v113q0 6 -1 118t-1 126q41 0 205.5 6.5t194.5 8.5l4 -146q-19 0 -103 -2.5t-90 -2.5v-103q83 0 163 8l2 -142q-12 0 -83.5 1.5t-81.5 1.5v-92q183 0 204 2zM294 690l-87 87l87 87l87 -87z" />
    <glyph glyph-name="uniF67A" unicode="&#xf67a;" horiz-adv-x="569" 
d="M507 144l3 -153q-16 0 -202.5 4.5t-215.5 4.5q2 45 2 247v113q0 6 -1 118t-1 126q41 0 205.5 6.5t194.5 8.5l4 -146q-19 0 -103 -2.5t-90 -2.5v-103q83 0 163 8l2 -142q-12 0 -83.5 1.5t-81.5 1.5v-92q183 0 204 2zM149 691l8 82l264 3l-4 -90z" />
    <glyph glyph-name="uniF67C" unicode="&#xf67c;" horiz-adv-x="569" 
d="M550 162l4 -172q-5 0 -24 1q-33 -23 -53.5 -52t-20.5 -48q0 -22 21.5 -38.5t64.5 -19.5l-19 -72q-78 13 -125 44t-47 74q0 29 27.5 60.5t67.5 52.5q-332 8 -341 8q3 53 3 290v134q0 199 -3 286q39 0 218.5 7.5t210.5 10.5l4 -165q-21 0 -113 -2.5t-99 -2.5v-132
q80 0 179 9l3 -160q-14 0 -93 2t-89 2v-119q200 0 224 2z" />
    <glyph glyph-name="uniF67D" unicode="&#xf67d;" horiz-adv-x="680" 
d="M617 194v-62q0 -18 1 -68.5t1 -57.5q-90 -20 -205 -20q-191 0 -286.5 72t-95.5 181q0 34 13 73t47.5 86t86.5 87.5t138.5 77t195.5 56.5l42 -176q-70 -8 -134 -30.5t-112 -66t-48 -98.5q0 -57 47.5 -85t105.5 -26v64q0 11 -1 36.5t-1 41.5h206q-1 -40 -1 -85zM509 824
l50 -69q-28 -30 -70.5 -50.5t-89.5 -20.5q-43 0 -89 21.5t-69 47.5l53 71q48 -52 113 -52q57 0 102 52z" />
    <glyph glyph-name="uniF67F" unicode="&#xf67f;" horiz-adv-x="680" 
d="M617 194v-62q0 -18 1 -68.5t1 -57.5q-90 -20 -205 -20q-191 0 -286.5 72t-95.5 181q0 34 13 73t47.5 86t86.5 87.5t138.5 77t195.5 56.5l42 -176q-70 -8 -134 -30.5t-112 -66t-48 -98.5q0 -57 47.5 -85t105.5 -26v64q0 11 -1 36.5t-1 41.5h206q-1 -40 -1 -85zM253 -273
l53 213l120 -54l-116 -185z" />
    <glyph glyph-name="uniF685" unicode="&#xf685;" horiz-adv-x="401" 
d="M308 349v-92q0 -177 4 -257h-222q2 74 2 258v92q0 7 -1 125t-1 129h222q-4 -64 -4 -255zM65 691l8 82l264 3l-4 -90z" />
    <glyph glyph-name="uniF686" unicode="&#xf686;" horiz-adv-x="401" 
d="M308 349v-92q0 -177 4 -257h-15q-40 -28 -62.5 -59t-22.5 -50q0 -22 21.5 -38.5t64.5 -19.5l-19 -72q-78 13 -125 44t-47 74q0 55 103 121h-120q2 74 2 258v92q0 7 -1 125t-1 129h222q-4 -64 -4 -255z" />
    <glyph glyph-name="uniF689" unicode="&#xf689;" horiz-adv-x="727" 
d="M315 -9h-224q3 75 3 266v90q0 44 -1.5 153t-1.5 112h224q-5 -70 -5 -242v-25h2q166 202 230 276l153 -135q-37 -35 -182 -177q22 -22 194 -190l-173 -144q-12 13 -99 127t-123 163h-2v-15q0 -216 5 -259zM277 -253l53 213l120 -54l-116 -185z" />
    <glyph glyph-name="uniF68A" unicode="&#xf68a;" horiz-adv-x="532" 
d="M91 604h224q-5 -100 -5 -302v-149q129 0 202 4l1 -166q-7 0 -191.5 4.5t-229.5 4.5q2 45 2 247v113q0 193 -3 244zM152 741l162 112l54 -96l-179 -81z" />
    <glyph glyph-name="uniF68B" unicode="&#xf68b;" horiz-adv-x="532" 
d="M91 604h224q-5 -100 -5 -302v-149q129 0 202 4l1 -166q-7 0 -191.5 4.5t-229.5 4.5q2 45 2 247v113q0 193 -3 244zM399 391l53 213l120 -54l-116 -185z" />
    <glyph glyph-name="uniF68C" unicode="&#xf68c;" horiz-adv-x="532" 
d="M91 604h224q-5 -100 -5 -302v-149q129 0 202 4l1 -166q-7 0 -191.5 4.5t-229.5 4.5q2 45 2 247v113q0 193 -3 244zM199 -273l53 213l120 -54l-116 -185z" />
    <glyph glyph-name="uniF68E" unicode="&#xf68e;" horiz-adv-x="797" 
d="M258 -6l-197 6q3 30 17.5 291t19.5 318l16 5q97 -63 254.5 -173t171.5 -125q0 15 -0.5 88t-0.5 122.5v81.5l196 -4q-11 -125 -22 -318q-14 -251 -16 -299l-16 -4q-61 37 -224 153t-200 146q0 -263 1 -288zM325 721l162 112l54 -96l-179 -81z" />
    <glyph glyph-name="uniF68F" unicode="&#xf68f;" horiz-adv-x="797" 
d="M258 -6l-197 6q3 30 17.5 291t19.5 318l16 5q97 -63 254.5 -173t171.5 -125q0 15 -0.5 88t-0.5 122.5v81.5l196 -4q-11 -125 -22 -318q-14 -251 -16 -299l-16 -4q-61 37 -224 153t-200 146q0 -263 1 -288zM404 659l-154 94l50 74l107 -73l93 73l48 -74z" />
    <glyph glyph-name="uniF690" unicode="&#xf690;" horiz-adv-x="797" 
d="M258 -6l-197 6q3 30 17.5 291t19.5 318l16 5q97 -63 254.5 -173t171.5 -125q0 15 -0.5 88t-0.5 122.5v81.5l196 -4q-11 -125 -22 -318q-14 -251 -16 -299l-16 -4q-61 37 -224 153t-200 146q0 -263 1 -288zM312 -253l53 213l120 -54l-116 -185z" />
    <glyph glyph-name="uniF692" unicode="&#xf692;" horiz-adv-x="825" 
d="M390 -14q-88 0 -157.5 26t-110.5 69t-62.5 93t-21.5 103q0 63 24.5 122.5t72 108.5t125 79t174.5 30q164 0 258 -79.5t94 -219.5q0 -41 -11.5 -83.5t-40.5 -88t-72 -80.5t-113.5 -57.5t-158.5 -22.5zM400 124q71 0 112 48t41 140q0 81 -34 124t-97 43q-71 0 -111 -54.5
t-40 -134.5t36.5 -123t92.5 -43zM445 722l116 149l74 -71l-138 -120zM302 720l91 143l78 -62l-116 -121z" />
    <glyph glyph-name="uniF693" unicode="&#xf693;" horiz-adv-x="825" 
d="M390 -14q-88 0 -157.5 26t-110.5 69t-62.5 93t-21.5 103q0 63 24.5 122.5t72 108.5t125 79t174.5 30q164 0 258 -79.5t94 -219.5q0 -41 -11.5 -83.5t-40.5 -88t-72 -80.5t-113.5 -57.5t-158.5 -22.5zM400 124q71 0 112 48t41 140q0 81 -34 124t-97 43q-71 0 -111 -54.5
t-40 -134.5t36.5 -123t92.5 -43zM277 691l8 82l264 3l-4 -90z" />
    <glyph glyph-name="uniF695" unicode="&#xf695;" horiz-adv-x="705" 
d="M304 481v-221q0 -234 4 -260h-215q3 15 3 239v138q0 193 -4 227q263 0 342 -10q101 -13 154 -50.5t53 -95.5q0 -100 -114 -170q13 -14 91.5 -89t91.5 -89l-178 -129q-5 7 -56 81t-98 142.5t-58 84.5q100 49 100 128q0 73 -116 74zM288 741l162 112l54 -96l-179 -81z" />
    <glyph glyph-name="uniF696" unicode="&#xf696;" horiz-adv-x="705" 
d="M304 481v-221q0 -234 4 -260h-215q3 15 3 239v138q0 193 -4 227q263 0 342 -10q101 -13 154 -50.5t53 -95.5q0 -100 -114 -170q13 -14 91.5 -89t91.5 -89l-178 -129q-5 7 -56 81t-98 142.5t-58 84.5q100 49 100 128q0 73 -116 74zM377 679l-154 94l50 74l107 -73l93 73
l48 -74z" />
    <glyph glyph-name="uniF697" unicode="&#xf697;" horiz-adv-x="705" 
d="M304 481v-221q0 -234 4 -260h-215q3 15 3 239v138q0 193 -4 227q263 0 342 -10q101 -13 154 -50.5t53 -95.5q0 -100 -114 -170q13 -14 91.5 -89t91.5 -89l-178 -129q-5 7 -56 81t-98 142.5t-58 84.5q100 49 100 128q0 73 -116 74zM266 -273l53 213l120 -54l-116 -185z
" />
    <glyph glyph-name="uniF698" unicode="&#xf698;" horiz-adv-x="510" 
d="M78 -17l-23 152q81 -2 141 12t60 43q0 14 -18 26.5t-75 37.5q-27 12 -46.5 23.5t-41.5 29.5t-34 42t-12 52q0 82 107 147t281 74l24 -154q-99 0 -143 -9t-44 -35q0 -21 86 -54l6 -3q26 -10 43.5 -18.5t42 -25.5t38 -41.5t13.5 -54.5q0 -40 -24 -79t-71 -73.5t-127 -59
t-183 -32.5zM241 741l162 112l54 -96l-179 -81z" />
    <glyph glyph-name="uniF699" unicode="&#xf699;" horiz-adv-x="510" 
d="M78 -17l-23 152q81 -2 141 12t60 43q0 14 -18 26.5t-75 37.5q-27 12 -46.5 23.5t-41.5 29.5t-34 42t-12 52q0 82 107 147t281 74l24 -154q-99 0 -143 -9t-44 -35q0 -21 86 -54l6 -3q26 -10 43.5 -18.5t42 -25.5t38 -41.5t13.5 -54.5q0 -60 -51.5 -115.5t-152.5 -89.5
l-46 -85q33 -8 54.5 -29.5t21.5 -52.5q0 -46 -51 -74.5t-139 -34.5l-10 64q41 2 68.5 15t28.5 37q1 18 -18.5 31t-52.5 21l40 81q-47 -8 -97 -12z" />
    <glyph glyph-name="uniF69B" unicode="&#xf69b;" horiz-adv-x="510" 
d="M78 -17l-23 152q81 -2 141 12t60 43q0 14 -18 26.5t-75 37.5q-27 12 -46.5 23.5t-41.5 29.5t-34 42t-12 52q0 82 107 147t281 74l24 -154q-99 0 -143 -9t-44 -35q0 -21 86 -54l6 -3q26 -10 43.5 -18.5t42 -25.5t38 -41.5t13.5 -54.5q0 -40 -24 -79t-71 -73.5t-127 -59
t-183 -32.5zM168 -273l53 213l120 -54l-116 -185z" />
    <glyph glyph-name="uniF69D" unicode="&#xf69d;" horiz-adv-x="601" 
d="M412 0h-222q2 44 2 235v215q-55 0 -195 -5v157q72 -7 267 -7h79q183 0 260 7v-157q-85 5 -194 5v-228q0 -196 3 -222zM306 679l-154 94l50 74l107 -73l93 73l48 -74z" />
    <glyph glyph-name="uniF69E" unicode="&#xf69e;" horiz-adv-x="601" 
d="M412 0h-222q2 44 2 235v215q-55 0 -195 -5v157q72 -7 267 -7h79q183 0 260 7v-157q-85 5 -194 5v-228q0 -196 3 -222zM214 -273l53 213l120 -54l-116 -185z" />
    <glyph glyph-name="uniF6A0" unicode="&#xf6a0;" horiz-adv-x="772" 
d="M282 451v-57q0 -107 8 -156t33 -76q27 -28 70 -28q48 0 74 37q18 25 22 67.5t4 192.5v32q0 26 -1 55t-2.5 57t-1.5 37h220q0 -4 0.5 -57t0.5 -93v-40q0 -134 -15.5 -209.5t-63.5 -130.5q-41 -46 -106.5 -71t-142.5 -25q-182 0 -258 107q-35 49 -48 115.5t-13 215.5v46
q0 22 0.5 72t0.5 57h224q-5 -37 -5 -148zM378 722l116 149l74 -71l-138 -120zM235 720l91 143l78 -62l-116 -121z" />
    <glyph glyph-name="uniF6A1" unicode="&#xf6a1;" horiz-adv-x="772" 
d="M282 451v-57q0 -107 8 -156t33 -76q27 -28 70 -28q48 0 74 37q18 25 22 67.5t4 192.5v32q0 26 -1 55t-2.5 57t-1.5 37h220q0 -4 0.5 -57t0.5 -93v-40q0 -134 -15.5 -209.5t-63.5 -130.5q-41 -46 -106.5 -71t-142.5 -25q-182 0 -258 107q-35 49 -48 115.5t-13 215.5v46
q0 22 0.5 72t0.5 57h224q-5 -37 -5 -148zM250 691l8 82l264 3l-4 -90z" />
    <glyph glyph-name="uniF6A2" unicode="&#xf6a2;" horiz-adv-x="772" 
d="M282 451v-57q0 -107 8 -156t33 -76q27 -28 70 -28q48 0 74 37q18 25 22 67.5t4 192.5v32q0 26 -1 55t-2.5 57t-1.5 37h220q0 -4 0.5 -57t0.5 -93v-40q0 -134 -15.5 -209.5t-63.5 -130.5q-32 -37 -84 -64q-46 -25 -78 -63t-32 -64q0 -22 21.5 -38.5t64.5 -19.5l-19 -72
q-78 13 -125 44t-47 74q0 28 25 57.5t63 51.5q-26 -2 -38 -2q-182 0 -258 107q-35 49 -48 115.5t-13 215.5v46q0 22 0.5 72t0.5 57h224q-5 -37 -5 -148z" />
    <glyph glyph-name="uniF6A3" unicode="&#xf6a3;" horiz-adv-x="772" 
d="M282 451v-57q0 -107 8 -156t33 -76q27 -28 70 -28q48 0 74 37q18 25 22 67.5t4 192.5v32q0 26 -1 55t-2.5 57t-1.5 37h220q0 -4 0.5 -57t0.5 -93v-40q0 -134 -15.5 -209.5t-63.5 -130.5q-41 -46 -106.5 -71t-142.5 -25q-182 0 -258 107q-35 49 -48 115.5t-13 215.5v46
q0 22 0.5 72t0.5 57h224q-5 -37 -5 -148zM380 662q-56 0 -87.5 22.5t-31.5 64.5q1 46 35 72t92 26q123 0 123 -85q0 -48 -35 -74t-96 -26zM385 709q20 0 33.5 12.5t13.5 35.5q0 19 -12.5 30.5t-32.5 11.5q-18 0 -32 -12t-14 -34q0 -20 12.5 -32t31.5 -12z" />
    <glyph glyph-name="uniF6AB" unicode="&#xf6ab;" horiz-adv-x="660" 
d="M66 466l3 154q23 -3 279 -12t270 -10l7 -11q-19 -32 -149.5 -233t-138.5 -209q221 0 273 6l-4 -160q-9 0 -279.5 4.5t-292.5 4.5l-7 12q20 28 151.5 230.5t142.5 215.5q-16 0 -129.5 4t-125.5 4zM256 741l162 112l54 -96l-179 -81z" />
    <glyph glyph-name="uniF6AC" unicode="&#xf6ac;" horiz-adv-x="660" 
d="M66 466l3 154q23 -3 279 -12t270 -10l7 -11q-19 -32 -149.5 -233t-138.5 -209q221 0 273 6l-4 -160q-9 0 -279.5 4.5t-292.5 4.5l-7 12q20 28 151.5 230.5t142.5 215.5q-16 0 -129.5 4t-125.5 4zM350 690l-87 87l87 87l87 -87z" />
    <glyph glyph-name="uniF6AD" unicode="&#xf6ad;" horiz-adv-x="401" 
d="M308 349v-92q0 -177 4 -257h-222q2 74 2 258v92q0 7 -1 125t-1 129h222q-4 -64 -4 -255zM210 690l-87 87l87 87l87 -87z" />
    <glyph glyph-name="commaaccent" unicode="&#xf6c3;" 
d="M365 -273l53 213l120 -54l-116 -185z" />
    <glyph glyph-name="uniF6DC" unicode="&#xf6dc;" horiz-adv-x="533" 
d="M424 0h-228q4 104 4 286v204q-24 -9 -111 -50l-51 129q11 5 71 32t147 66.5t151 69.5l20 -12q-5 -245 -5 -307v-153q0 -234 2 -265z" />
    <glyph glyph-name="Lslashsmall" unicode="&#xf6f9;" horiz-adv-x="532" 
d="M513 157l1 -166q-11 0 -195 4.5t-226 4.5q2 41 2 225l-61 -23l-31 102l92 30v26q0 193 -3 244h222q-3 -39 -3 -199l91 38l35 -104l-128 -45v-141q121 0 204 4z" />
    <glyph glyph-name="OEsmall" unicode="&#xf6fa;" horiz-adv-x="1020" 
d="M917 372l3 -139l-172 3v-98q160 0 210 3l4 -150q-54 0 -209 5q-186 4 -193 4q-12 0 -66 -7q-75 -7 -117 -7q-149 0 -245 79t-96 212q0 140 103 240t278 100q49 0 94 -7q52 -6 57 -6q26 0 188.5 6t186.5 9l4 -143l-198 -4l-1 -109q118 3 169 9zM555 298v41q0 73 -40.5 109
t-95.5 36q-74 0 -118.5 -56t-44.5 -142q0 -83 40 -124.5t103 -41.5q69 0 112.5 45.5t43.5 132.5z" />
    <glyph glyph-name="Scaronsmall" unicode="&#xf6fd;" horiz-adv-x="510" 
d="M78 -17l-23 152q81 -2 141 12t60 43q0 14 -18 26.5t-75 37.5q-27 12 -46.5 23.5t-41.5 29.5t-34 42t-12 52q0 82 107 147t281 74l24 -154q-99 0 -143 -9t-44 -35q0 -21 86 -54l6 -3q26 -10 43.5 -18.5t42 -25.5t38 -41.5t13.5 -54.5q0 -40 -24 -79t-71 -73.5t-127 -59
t-183 -32.5zM285 679l-154 94l50 74l107 -73l93 73l48 -74z" />
    <glyph glyph-name="Zcaronsmall" unicode="&#xf6ff;" horiz-adv-x="660" 
d="M66 466l3 154q23 -3 279 -12t270 -10l7 -11q-19 -32 -149.5 -233t-138.5 -209q221 0 273 6l-4 -160q-9 0 -279.5 4.5t-292.5 4.5l-7 12q20 28 151.5 230.5t142.5 215.5q-16 0 -129.5 4t-125.5 4zM355 679l-154 94l50 74l107 -73l93 73l48 -74z" />
    <glyph glyph-name="exclamsmall" unicode="&#xf721;" horiz-adv-x="300" 
d="M204 208l-130 -7q-1 16 -18.5 184.5t-21.5 236.5l233 -7q-5 -47 -31.5 -203.5t-31.5 -203.5zM58 0v133h160v-133h-160z" />
    <glyph glyph-name="dollaroldstyle" unicode="&#xf724;" horiz-adv-x="522" 
d="M210 680h122l-3 -88q12 3 49 9t54 7l9 -140q-75 0 -125 -13.5t-50 -38.5q0 -14 16 -24.5t63 -31.5q119 -51 119 -137q0 -31 -14 -59.5t-37 -49.5t-42.5 -34t-40.5 -24l3 -127h-122l4 105q-33 -13 -140 -23l-14 137q72 1 134.5 19t62.5 39q0 20 -15.5 31.5t-60.5 31.5
q-123 55 -123 139q0 49 43 90.5t112 64.5z" />
    <glyph glyph-name="ampersandsmall" unicode="&#xf726;" horiz-adv-x="691" 
d="M271 113q51 0 85 26q-40 25 -127 97q-26 -32 -26 -70q0 -21 19 -37t49 -16zM686 116l-110 -138q-41 24 -113 78q-90 -70 -232 -70q-104 0 -161.5 39.5t-57.5 107.5q0 55 39 106t86 78q-49 45 -49 98q0 69 97 127.5t274 71.5l16 -145q-188 -1 -188 -56q0 -17 15.5 -32.5
t58.5 -47.5q10 -7 15 -11q17 -13 100 -69q27 40 65 111l136 -88q-37 -50 -86 -99q16 -11 49.5 -32t45.5 -29z" />
    <glyph glyph-name="zerooldstyle" unicode="&#xf730;" horiz-adv-x="749" 
d="M372 14q-150 0 -243 72.5t-93 203.5t98.5 215.5t256.5 84.5q147 0 234.5 -78t87.5 -199q0 -126 -90 -212.5t-251 -86.5zM377 157q50 0 88.5 37.5t38.5 114.5q0 73 -37.5 105.5t-85.5 32.5q-53 0 -95 -36t-42 -114q0 -73 40 -106.5t93 -33.5z" />
    <glyph glyph-name="oneoldstyle" unicode="&#xf731;" horiz-adv-x="480" 
d="M385 0h-215q4 88 4 243v168q-4 -1 -98 -44l-50 119q66 25 343 142l18 -10q-4 -164 -4 -261v-132q-1 -180 2 -225z" />
    <glyph glyph-name="twooldstyle" unicode="&#xf732;" horiz-adv-x="572" 
d="M510 155v-164q-14 1 -196 5q-194 4 -258 4h-33l-14 35l25 19q25 20 34.5 28t36 30t40.5 36l37 37t36 41t26.5 39t20 41t6.5 38q0 32 -16 56.5t-37.5 37.5t-55 21t-57.5 10.5t-55 4.5l28 145q204 -13 305.5 -80t101.5 -156q0 -24 -6 -47t-15 -41t-23.5 -37t-26.5 -31
t-29.5 -26.5t-26.5 -21.5t-24 -17t-17 -11v-7z" />
    <glyph glyph-name="threeoldstyle" unicode="&#xf733;" horiz-adv-x="536" 
d="M67 486l11 138q107 -1 191 -17.5t138 -53.5t54 -91q0 -45 -39 -85t-86 -57v-5q64 -11 105.5 -44.5t41.5 -83.5q0 -92 -123 -152t-308 -61l-6 139q64 -5 134.5 15t70.5 65q0 22 -17 37t-45 20.5t-47 7.5t-39 2l-6 83q25 0 54 5.5t58 25t29 50.5q0 59 -171 62z" />
    <glyph glyph-name="fouroldstyle" unicode="&#xf734;" horiz-adv-x="612" 
d="M582 221l-6 -132l-93 3v-25q0 -7 0.5 -30t0.5 -37h-188q0 8 2.5 34t2.5 42v15h-284l-32 83l387 454l112 -24v-386zM306 216v152h-2q-4 -6 -118 -152h120z" />
    <glyph glyph-name="fiveoldstyle" unicode="&#xf735;" horiz-adv-x="537" 
d="M237 470l-11 -57q144 -12 199.5 -58t55.5 -116q0 -92 -116.5 -168.5t-304.5 -93.5l-25 146q37 2 71 7.5t69 15.5t56 28t21 41q0 37 -47 53.5t-148 17.5l41 322q125 0 374 11l-1 -159z" />
    <glyph glyph-name="sixoldstyle" unicode="&#xf736;" horiz-adv-x="614" 
d="M358 643l97 -136q-110 -59 -152 -119q124 0 201 -54t77 -136q0 -92 -79.5 -152t-203.5 -60q-119 0 -187 49q-78 56 -78 161q0 121 96.5 249t228.5 198zM309 107q29 0 47 20.5t18 54.5q0 46 -29 73.5t-84 28.5q-21 -42 -21 -102q0 -31 18.5 -53t50.5 -22z" />
    <glyph glyph-name="sevenoldstyle" unicode="&#xf737;" horiz-adv-x="531" 
d="M41 452l-4 162q402 -9 498 -8l15 -14q-15 -37 -78 -184.5t-117.5 -277.5t-65.5 -162l-194 79q16 32 110.5 209.5t106.5 197.5z" />
    <glyph glyph-name="eightoldstyle" unicode="&#xf738;" horiz-adv-x="649" 
d="M324 521q-36 0 -56 -21.5t-20 -58.5q0 -33 20.5 -55t48.5 -22q29 0 50.5 21t21.5 62q0 39 -19 56.5t-46 17.5zM313 -20q-142 0 -207 46.5t-65 121.5q0 51 31.5 94.5t82.5 67.5q-49 20 -78 57t-29 81q0 69 72 122t209 53q126 0 193.5 -43.5t67.5 -115.5q0 -41 -28 -81
t-83 -65q120 -43 120 -152q0 -32 -15 -63t-46.5 -59.5t-89.5 -46t-135 -17.5zM318 82q31 0 54.5 22.5t23.5 66.5q0 40 -22 63.5t-51 23.5q-38 0 -59.5 -25.5t-21.5 -66.5q0 -38 23 -61t53 -23z" />
    <glyph glyph-name="nineoldstyle" unicode="&#xf739;" horiz-adv-x="605" 
d="M254 -35l-98 136q105 57 143 109q-120 0 -193 55.5t-73 136.5q0 90 79.5 154t197.5 64q124 0 192 -54q71 -59 71 -159q0 -118 -96 -245t-223 -197zM307 499q-31 0 -50.5 -22.5t-19.5 -58.5q0 -47 28.5 -75.5t85.5 -29.5q21 42 21 105q0 35 -17.5 58t-47.5 23z" />
    <glyph glyph-name="questionsmall" unicode="&#xf73f;" horiz-adv-x="482" 
d="M35 497l21 136q176 -14 282 -68.5t106 -134.5q0 -62 -48.5 -116.5t-116.5 -88t-144 -49.5l-32 108q40 8 80 39t40 79q0 25 -17.5 43t-47.5 28.5t-59.5 16t-63.5 7.5zM112 0v132h160v-132h-160z" />
    <glyph glyph-name="Asmall" unicode="&#xf761;" horiz-adv-x="769" 
d="M180 -29l-180 92q2 3 54.5 88t103.5 167t112 177t93 140h19q59 -82 214.5 -311t172.5 -251l-184 -101q-15 23 -46 73.5t-34 54.5l-267 -13zM294 217l150 7q-12 24 -39 73t-36 67q-69 -134 -75 -147z" />
    <glyph glyph-name="Bsmall" unicode="&#xf762;" horiz-adv-x="668" 
d="M92 315v94q0 159 -4 195q215 0 296 -10q215 -26 215 -141q0 -31 -29.5 -68t-94.5 -58v-5q59 -4 105.5 -39.5t46.5 -92.5q0 -81 -109.5 -138t-328.5 -57h-101q4 47 4 320zM292 261v-158q44 0 82 24t38 58q0 41 -33 60t-87 16zM292 504v-152q34 0 65.5 23t31.5 69
q0 37 -31.5 50t-65.5 10z" />
    <glyph glyph-name="Csmall" unicode="&#xf763;" horiz-adv-x="591" 
d="M543 155l9 -162q-56 -7 -108 -7q-107 0 -189.5 23t-129 61t-70 81.5t-23.5 90.5q0 55 27.5 111t81 108t143.5 94t203 62l40 -168q-133 -22 -197.5 -72t-64.5 -113q0 -51 50.5 -82t139.5 -31q44 0 88 4z" />
    <glyph glyph-name="Dsmall" unicode="&#xf764;" horiz-adv-x="762" 
d="M94 269v105q0 198 -4 230q244 0 351 -14q68 -9 120.5 -28t82.5 -41.5t48.5 -50.5t24.5 -51t6 -46q0 -99 -56.5 -175.5t-149.5 -120t-202.5 -64t-225.5 -17.5q5 65 5 273zM306 464v-310q73 10 132 59t59 130q0 38 -15.5 63t-45 37t-60 16.5t-70.5 4.5z" />
    <glyph glyph-name="Esmall" unicode="&#xf765;" horiz-adv-x="569" 
d="M507 144l3 -153q-16 0 -202.5 4.5t-215.5 4.5q2 45 2 247v113q0 6 -1 118t-1 126q41 0 205.5 6.5t194.5 8.5l4 -146q-19 0 -103 -2.5t-90 -2.5v-103q83 0 163 8l2 -142q-12 0 -83.5 1.5t-81.5 1.5v-92q183 0 204 2z" />
    <glyph glyph-name="Fsmall" unicode="&#xf766;" horiz-adv-x="551" 
d="M307 0h-216q3 45 3 247v113q0 169 -3 244q3 0 411 12l4 -146l-200 -4v-123q8 0 31 1t66.5 3t85.5 4l2 -141l-185 2v-68q0 -7 0.5 -72.5t0.5 -71.5z" />
    <glyph glyph-name="Gsmall" unicode="&#xf767;" horiz-adv-x="680" 
d="M617 194v-62q0 -18 1 -68.5t1 -57.5q-90 -20 -205 -20q-191 0 -286.5 72t-95.5 181q0 34 13 73t47.5 86t86.5 87.5t138.5 77t195.5 56.5l42 -176q-70 -8 -134 -30.5t-112 -66t-48 -98.5q0 -57 47.5 -85t105.5 -26v64q0 11 -1 36.5t-1 41.5h206q-1 -40 -1 -85z" />
    <glyph glyph-name="Hsmall" unicode="&#xf768;" horiz-adv-x="843" 
d="M316 0h-222q2 74 2 258v92q0 212 -4 254h225q-5 -40 -5 -195v-30l219 16v32q0 139 -4 177h224q-4 -84 -4 -279v-85q0 -208 4 -240h-224q4 116 4 183v59l-219 -16v-25q0 -121 4 -201z" />
    <glyph glyph-name="Ismall" unicode="&#xf769;" horiz-adv-x="401" 
d="M308 349v-92q0 -177 4 -257h-222q2 74 2 258v92q0 7 -1 125t-1 129h222q-4 -64 -4 -255z" />
    <glyph glyph-name="Jsmall" unicode="&#xf76a;" horiz-adv-x="420" 
d="M335 391v-133q0 -132 -61 -217.5t-179 -143.5l-105 155q25 12 36 18.5t32.5 24.5t32 37t19.5 52.5t9 75.5v133q0 159 -5 211h226q-5 -40 -5 -213z" />
    <glyph glyph-name="Ksmall" unicode="&#xf76b;" horiz-adv-x="727" 
d="M315 -9h-224q3 75 3 266v90q0 44 -1.5 153t-1.5 112h224q-5 -70 -5 -242v-25h2q166 202 230 276l153 -135q-37 -35 -182 -177q22 -22 194 -190l-173 -144q-12 13 -99 127t-123 163h-2v-15q0 -216 5 -259z" />
    <glyph glyph-name="Lsmall" unicode="&#xf76c;" horiz-adv-x="532" 
d="M91 604h224q-5 -100 -5 -302v-149q129 0 202 4l1 -166q-7 0 -191.5 4.5t-229.5 4.5q2 45 2 247v113q0 193 -3 244z" />
    <glyph glyph-name="Msmall" unicode="&#xf76d;" horiz-adv-x="990" 
d="M191 -26l-182 62q1 3 109 262.5t140 323.5h14q25 -37 71.5 -108t92 -140.5t53.5 -81.5q19 28 104 156.5t106 160.5h14q35 -71 146.5 -306t120.5 -253l-188 -76q-23 55 -69.5 170t-51.5 131q-92 -134 -193 -266h-14q-147 206 -178 261q-70 -238 -95 -296z" />
    <glyph glyph-name="Nsmall" unicode="&#xf76e;" horiz-adv-x="797" 
d="M258 -6l-197 6q3 30 17.5 291t19.5 318l16 5q97 -63 254.5 -173t171.5 -125q0 15 -0.5 88t-0.5 122.5v81.5l196 -4q-11 -125 -22 -318q-14 -251 -16 -299l-16 -4q-61 37 -224 153t-200 146q0 -263 1 -288z" />
    <glyph glyph-name="Osmall" unicode="&#xf76f;" horiz-adv-x="825" 
d="M390 -14q-88 0 -157.5 26t-110.5 69t-62.5 93t-21.5 103q0 63 24.5 122.5t72 108.5t125 79t174.5 30q164 0 258 -79.5t94 -219.5q0 -41 -11.5 -83.5t-40.5 -88t-72 -80.5t-113.5 -57.5t-158.5 -22.5zM400 124q71 0 112 48t41 140q0 81 -34 124t-97 43q-71 0 -111 -54.5
t-40 -134.5t36.5 -123t92.5 -43z" />
    <glyph glyph-name="Psmall" unicode="&#xf770;" horiz-adv-x="669" 
d="M305 0h-214q0 16 1 142t1 160v93q0 11 -1 107t-1 102q283 0 376 -22q76 -17 123.5 -58.5t47.5 -108.5q0 -93 -89 -169.5t-245 -99.5v-22q0 -106 1 -124zM304 480v-208q43 2 80 33.5t37 85.5q0 39 -26 61.5t-91 27.5z" />
    <glyph glyph-name="Qsmall" unicode="&#xf771;" horiz-adv-x="825" 
d="M817 55l-20 -154q-38 8 -151 33.5t-171 37.5q-70 15 -93 15q-151 0 -246 81q-98 83 -98 211q0 142 108.5 240t285.5 98q164 0 259 -79.5t95 -213.5q0 -91 -45.5 -160t-110.5 -100v-6q28 -1 89.5 -1.5t97.5 -1.5zM270 286q0 -84 40.5 -124.5t91.5 -40.5q63 0 107 46
t44 148q0 86 -37.5 125t-91.5 39q-72 0 -113 -54.5t-41 -138.5z" />
    <glyph glyph-name="Rsmall" unicode="&#xf772;" horiz-adv-x="705" 
d="M304 481v-221q0 -234 4 -260h-215q3 15 3 239v138q0 193 -4 227q263 0 342 -10q101 -13 154 -50.5t53 -95.5q0 -100 -114 -170q13 -14 91.5 -89t91.5 -89l-178 -129q-5 7 -56 81t-98 142.5t-58 84.5q100 49 100 128q0 73 -116 74z" />
    <glyph glyph-name="Ssmall" unicode="&#xf773;" horiz-adv-x="510" 
d="M78 -17l-23 152q81 -2 141 12t60 43q0 14 -18 26.5t-75 37.5q-27 12 -46.5 23.5t-41.5 29.5t-34 42t-12 52q0 82 107 147t281 74l24 -154q-99 0 -143 -9t-44 -35q0 -21 86 -54l6 -3q26 -10 43.5 -18.5t42 -25.5t38 -41.5t13.5 -54.5q0 -40 -24 -79t-71 -73.5t-127 -59
t-183 -32.5z" />
    <glyph glyph-name="Tsmall" unicode="&#xf774;" horiz-adv-x="601" 
d="M412 0h-222q2 44 2 235v215q-55 0 -195 -5v157q72 -7 267 -7h79q183 0 260 7v-157q-85 5 -194 5v-228q0 -196 3 -222z" />
    <glyph glyph-name="Usmall" unicode="&#xf775;" horiz-adv-x="772" 
d="M282 451v-57q0 -107 8 -156t33 -76q27 -28 70 -28q48 0 74 37q18 25 22 67.5t4 192.5v32q0 26 -1 55t-2.5 57t-1.5 37h220q0 -4 0.5 -57t0.5 -93v-40q0 -134 -15.5 -209.5t-63.5 -130.5q-41 -46 -106.5 -71t-142.5 -25q-182 0 -258 107q-35 49 -48 115.5t-13 215.5v46
q0 22 0.5 72t0.5 57h224q-5 -37 -5 -148z" />
    <glyph glyph-name="Vsmall" unicode="&#xf776;" horiz-adv-x="734" 
d="M551 623l197 -94q-12 -17 -175 -263t-202 -302h-19q-33 47 -92 140t-107.5 172t-99 160.5t-52.5 85.5l200 101q33 -66 173 -351q16 34 95 190t82 161z" />
    <glyph glyph-name="Wsmall" unicode="&#xf777;" horiz-adv-x="969" 
d="M794 607l190 -71q-4 -7 -132 -265t-149 -293h-13q-32 38 -200 260q-27 -36 -107 -144t-102 -137h-13q-16 28 -70.5 151t-115.5 265t-75 173l197 69q87 -274 111 -340q6 11 29.5 46.5t67.5 101.5l76 114h13q94 -134 180 -246h2q9 22 55.5 158t55.5 158z" />
    <glyph glyph-name="Xsmall" unicode="&#xf778;" horiz-adv-x="728" 
d="M168 -38l-146 138q8 9 100.5 100.5t105.5 105.5q-167 170 -186 191l161 139q18 -21 86 -104t81 -98q12 13 84 95.5t93 106.5l151 -135q-11 -11 -101 -92.5t-102 -93.5q18 -18 109 -108.5t99 -98.5l-161 -145q-15 17 -94 110t-95 111q-11 -11 -93 -111t-92 -111z" />
    <glyph glyph-name="Ysmall" unicode="&#xf779;" horiz-adv-x="714" 
d="M460 0h-225q5 100 5 121v35q0 80 -30.5 139t-83.5 93q-10 7 -21 12t-23 9l-19.5 6.5t-21 6t-17.5 4.5l70 194q107 -30 172 -89q57 -55 87 -145h7q28 80 99 144q74 65 173 92l57 -195q-84 -17 -138 -57q-43 -32 -69 -87t-26 -125v-53q0 -71 4 -105z" />
    <glyph glyph-name="Zsmall" unicode="&#xf77a;" horiz-adv-x="660" 
d="M66 466l3 154q23 -3 279 -12t270 -10l7 -11q-19 -32 -149.5 -233t-138.5 -209q221 0 273 6l-4 -160q-9 0 -279.5 4.5t-292.5 4.5l-7 12q20 28 151.5 230.5t142.5 215.5q-16 0 -129.5 4t-125.5 4z" />
    <glyph glyph-name="exclamdownsmall" unicode="&#xf7a1;" horiz-adv-x="300" 
d="M96 396l130 7q1 -16 18.5 -184.5t21.5 -236.5l-233 7q5 47 31.5 203.5t31.5 203.5zM242 604v-133h-160v133h160z" />
    <glyph glyph-name="centoldstyle" unicode="&#xf7a2;" horiz-adv-x="511" 
d="M206 -14l2 124q-93 28 -134 75.5t-41 101.5q0 135 175 220l-2 142h121l-3 -108q49 14 125 22l10 -144q-110 -7 -162.5 -39t-52.5 -80q0 -67 132 -67q24 0 43 1t34 2.5t20 1.5l7 -133q-35 -7 -77 -7q-54 0 -79 1l3 -113h-121z" />
    <glyph glyph-name="questiondownsmall" unicode="&#xf7bf;" horiz-adv-x="482" 
d="M447 107l-21 -136q-176 14 -282 68.5t-106 134.5q0 62 48.5 116.5t116.5 88t144 49.5l32 -108q-40 -8 -80 -39t-40 -79q0 -25 17.5 -43t47.5 -28.5t59.5 -16t63.5 -7.5zM370 604v-132h-160v132h160z" />
    <glyph glyph-name="Agravesmall" unicode="&#xf7e0;" horiz-adv-x="769" 
d="M180 -29l-180 92q2 3 54.5 88t103.5 167t112 177t93 140h19q59 -82 214.5 -311t172.5 -251l-184 -101q-15 23 -46 73.5t-34 54.5l-267 -13zM294 217l150 7q-12 24 -39 73t-36 67q-69 -134 -75 -147zM293 852l156 -112l-40 -65l-175 81z" />
    <glyph glyph-name="Aacutesmall" unicode="&#xf7e1;" horiz-adv-x="769" 
d="M180 -29l-180 92q2 3 54.5 88t103.5 167t112 177t93 140h19q59 -82 214.5 -311t172.5 -251l-184 -101q-15 23 -46 73.5t-34 54.5l-267 -13zM294 217l150 7q-12 24 -39 73t-36 67q-69 -134 -75 -147zM330 741l162 112l54 -96l-179 -81z" />
    <glyph glyph-name="Acircumflexsmall" unicode="&#xf7e2;" horiz-adv-x="769" 
d="M180 -29l-180 92q2 3 54.5 88t103.5 167t112 177t93 140h19q59 -82 214.5 -311t172.5 -251l-184 -101q-15 23 -46 73.5t-34 54.5l-267 -13zM294 217l150 7q-12 24 -39 73t-36 67q-69 -134 -75 -147zM237 754l153 95l144 -95l-50 -75l-99 75l-103 -75z" />
    <glyph glyph-name="Atildesmall" unicode="&#xf7e3;" horiz-adv-x="769" 
d="M180 -29l-180 92q2 3 54.5 88t103.5 167t112 177t93 140h19q59 -82 214.5 -311t172.5 -251l-184 -101q-15 23 -46 73.5t-34 54.5l-267 -13zM294 217l150 7q-12 24 -39 73t-36 67q-69 -134 -75 -147zM279 685l-65 26q12 44 40.5 73.5t59.5 29.5q29 0 80 -21q34 -12 51 -12
q28 1 47 42l66 -27q-16 -52 -42 -77t-54 -25q-12 -1 -24 1t-18.5 4t-20 7.5t-16.5 6.5q-35 14 -57 14q-32 0 -47 -42z" />
    <glyph glyph-name="Adieresissmall" unicode="&#xf7e4;" horiz-adv-x="769" 
d="M180 -29l-180 92q2 3 54.5 88t103.5 167t112 177t93 140h19q59 -82 214.5 -311t172.5 -251l-184 -101q-15 23 -46 73.5t-34 54.5l-267 -13zM294 217l150 7q-12 24 -39 73t-36 67q-69 -134 -75 -147zM266 689l-81 81l81 81l81 -81zM504 689l-81 81l81 81l81 -81z" />
    <glyph glyph-name="Aringsmall" unicode="&#xf7e5;" horiz-adv-x="769" 
d="M180 -29l-180 92q2 3 54.5 88t103.5 167t112 177t93 140h19q59 -82 214.5 -311t172.5 -251l-184 -101q-15 23 -46 73.5t-34 54.5l-267 -13zM294 217l150 7q-12 24 -39 73t-36 67q-69 -134 -75 -147zM379 682q-56 0 -87.5 22.5t-31.5 64.5q1 46 35 72t92 26q123 0 123 -85
q0 -48 -35 -74t-96 -26zM384 729q20 0 33.5 12.5t13.5 35.5q0 19 -12.5 30.5t-32.5 11.5q-18 0 -32 -12t-14 -34q0 -20 12.5 -32t31.5 -12z" />
    <glyph glyph-name="AEsmall" unicode="&#xf7e6;" horiz-adv-x="920" 
d="M857 141l4 -150q-19 0 -208.5 4.5t-194.5 4.5q2 40 2 136v15l-190 -4q-11 -15 -103 -161l-160 103q23 35 168 235.5t207 279.5q47 0 243.5 6t216.5 9l4 -143q-11 0 -98.5 -2t-96.5 -2v-110q52 0 166 9l2 -138q-11 0 -84 1.5t-84 1.5v-98q156 0 206 3zM329 265l131 5v189
h-6q-68 -103 -125 -194z" />
    <glyph glyph-name="Ccedillasmall" unicode="&#xf7e7;" horiz-adv-x="591" 
d="M375 -11l-27 -52q33 -8 54.5 -29.5t21.5 -52.5q0 -46 -51 -74.5t-139 -34.5l-10 64q41 2 68.5 15t28.5 37q0 34 -71 52l45 86q-128 25 -195.5 92.5t-67.5 149.5q0 55 27.5 111t81 108t143.5 94t203 62l40 -168q-133 -22 -197.5 -72t-64.5 -113q0 -51 50.5 -82t139.5 -31
q44 0 88 4l9 -162q-56 -7 -108 -7q-40 0 -69 3z" />
    <glyph glyph-name="Egravesmall" unicode="&#xf7e8;" horiz-adv-x="569" 
d="M507 144l3 -153q-16 0 -202.5 4.5t-215.5 4.5q2 45 2 247v113q0 6 -1 118t-1 126q41 0 205.5 6.5t194.5 8.5l4 -146q-19 0 -103 -2.5t-90 -2.5v-103q83 0 163 8l2 -142q-12 0 -83.5 1.5t-81.5 1.5v-92q183 0 204 2zM217 852l156 -112l-40 -65l-175 81z" />
    <glyph glyph-name="Eacutesmall" unicode="&#xf7e9;" horiz-adv-x="569" 
d="M507 144l3 -153q-16 0 -202.5 4.5t-215.5 4.5q2 45 2 247v113q0 6 -1 118t-1 126q41 0 205.5 6.5t194.5 8.5l4 -146q-19 0 -103 -2.5t-90 -2.5v-103q83 0 163 8l2 -142q-12 0 -83.5 1.5t-81.5 1.5v-92q183 0 204 2zM250 741l162 112l54 -96l-179 -81z" />
    <glyph glyph-name="Ecircumflexsmall" unicode="&#xf7ea;" horiz-adv-x="569" 
d="M507 144l3 -153q-16 0 -202.5 4.5t-215.5 4.5q2 45 2 247v113q0 6 -1 118t-1 126q41 0 205.5 6.5t194.5 8.5l4 -146q-19 0 -103 -2.5t-90 -2.5v-103q83 0 163 8l2 -142q-12 0 -83.5 1.5t-81.5 1.5v-92q183 0 204 2zM156 754l153 95l144 -95l-50 -75l-99 75l-103 -75z" />
    <glyph glyph-name="Edieresissmall" unicode="&#xf7eb;" horiz-adv-x="569" 
d="M507 144l3 -153q-16 0 -202.5 4.5t-215.5 4.5q2 45 2 247v113q0 6 -1 118t-1 126q41 0 205.5 6.5t194.5 8.5l4 -146q-19 0 -103 -2.5t-90 -2.5v-103q83 0 163 8l2 -142q-12 0 -83.5 1.5t-81.5 1.5v-92q183 0 204 2zM175 689l-81 81l81 81l81 -81zM413 689l-81 81l81 81
l81 -81z" />
    <glyph glyph-name="Igravesmall" unicode="&#xf7ec;" horiz-adv-x="401" 
d="M308 349v-92q0 -177 4 -257h-222q2 74 2 258v92q0 7 -1 125t-1 129h222q-4 -64 -4 -255zM113 852l156 -112l-40 -65l-175 81z" />
    <glyph glyph-name="Iacutesmall" unicode="&#xf7ed;" horiz-adv-x="401" 
d="M308 349v-92q0 -177 4 -257h-222q2 74 2 258v92q0 7 -1 125t-1 129h222q-4 -64 -4 -255zM156 741l162 112l54 -96l-179 -81z" />
    <glyph glyph-name="Icircumflexsmall" unicode="&#xf7ee;" horiz-adv-x="401" 
d="M308 349v-92q0 -177 4 -257h-222q2 74 2 258v92q0 7 -1 125t-1 129h222q-4 -64 -4 -255zM62 754l153 95l144 -95l-50 -75l-99 75l-103 -75z" />
    <glyph glyph-name="Idieresissmall" unicode="&#xf7ef;" horiz-adv-x="401" 
d="M308 349v-92q0 -177 4 -257h-222q2 74 2 258v92q0 7 -1 125t-1 129h222q-4 -64 -4 -255zM82 689l-81 81l81 81l81 -81zM320 689l-81 81l81 81l81 -81z" />
    <glyph glyph-name="Ethsmall" unicode="&#xf7f0;" horiz-adv-x="762" 
d="M16 256l-3 100l81 2v16q0 198 -4 230q246 0 353 -14q68 -9 120.5 -28t82 -41.5t47.5 -50.5t24 -50.5t6 -46.5q0 -79 -37 -144.5t-98.5 -108.5t-143.5 -72.5t-171.5 -41.5t-183.5 -10q5 63 5 263zM410 369l-3 -97l-104 -5v-114q79 10 138.5 59t59.5 131q0 69 -53.5 95
t-144.5 27v-100z" />
    <glyph glyph-name="Ntildesmall" unicode="&#xf7f1;" horiz-adv-x="797" 
d="M258 -6l-197 6q3 30 17.5 291t19.5 318l16 5q97 -63 254.5 -173t171.5 -125q0 15 -0.5 88t-0.5 122.5v81.5l196 -4q-11 -125 -22 -318q-14 -251 -16 -299l-16 -4q-61 37 -224 153t-200 146q0 -263 1 -288zM307 685l-65 26q12 44 40.5 73.5t59.5 29.5q29 0 80 -21
q34 -12 51 -12q28 1 47 42l66 -27q-16 -52 -42 -77t-54 -25q-12 -1 -24 1t-18.5 4t-20 7.5t-16.5 6.5q-35 14 -57 14q-32 0 -47 -42z" />
    <glyph glyph-name="Ogravesmall" unicode="&#xf7f2;" horiz-adv-x="825" 
d="M390 -14q-88 0 -157.5 26t-110.5 69t-62.5 93t-21.5 103q0 63 24.5 122.5t72 108.5t125 79t174.5 30q164 0 258 -79.5t94 -219.5q0 -41 -11.5 -83.5t-40.5 -88t-72 -80.5t-113.5 -57.5t-158.5 -22.5zM400 124q71 0 112 48t41 140q0 81 -34 124t-97 43q-71 0 -111 -54.5
t-40 -134.5t36.5 -123t92.5 -43zM321 852l156 -112l-40 -65l-175 81z" />
    <glyph glyph-name="Oacutesmall" unicode="&#xf7f3;" horiz-adv-x="825" 
d="M390 -14q-88 0 -157.5 26t-110.5 69t-62.5 93t-21.5 103q0 63 24.5 122.5t72 108.5t125 79t174.5 30q164 0 258 -79.5t94 -219.5q0 -41 -11.5 -83.5t-40.5 -88t-72 -80.5t-113.5 -57.5t-158.5 -22.5zM400 124q71 0 112 48t41 140q0 81 -34 124t-97 43q-71 0 -111 -54.5
t-40 -134.5t36.5 -123t92.5 -43zM379 741l162 112l54 -96l-179 -81z" />
    <glyph glyph-name="Ocircumflexsmall" unicode="&#xf7f4;" horiz-adv-x="825" 
d="M390 -14q-88 0 -157.5 26t-110.5 69t-62.5 93t-21.5 103q0 63 24.5 122.5t72 108.5t125 79t174.5 30q164 0 258 -79.5t94 -219.5q0 -41 -11.5 -83.5t-40.5 -88t-72 -80.5t-113.5 -57.5t-158.5 -22.5zM400 124q71 0 112 48t41 140q0 81 -34 124t-97 43q-71 0 -111 -54.5
t-40 -134.5t36.5 -123t92.5 -43zM274 754l153 95l144 -95l-50 -75l-99 75l-103 -75z" />
    <glyph glyph-name="Otildesmall" unicode="&#xf7f5;" horiz-adv-x="825" 
d="M390 -14q-88 0 -157.5 26t-110.5 69t-62.5 93t-21.5 103q0 63 24.5 122.5t72 108.5t125 79t174.5 30q164 0 258 -79.5t94 -219.5q0 -41 -11.5 -83.5t-40.5 -88t-72 -80.5t-113.5 -57.5t-158.5 -22.5zM400 124q71 0 112 48t41 140q0 81 -34 124t-97 43q-71 0 -111 -54.5
t-40 -134.5t36.5 -123t92.5 -43zM321 685l-65 26q12 44 40.5 73.5t59.5 29.5q29 0 80 -21q34 -12 51 -12q28 1 47 42l66 -27q-16 -52 -42 -77t-54 -25q-12 -1 -24 1t-18.5 4t-20 7.5t-16.5 6.5q-35 14 -57 14q-32 0 -47 -42z" />
    <glyph glyph-name="Odieresissmall" unicode="&#xf7f6;" horiz-adv-x="825" 
d="M390 -14q-88 0 -157.5 26t-110.5 69t-62.5 93t-21.5 103q0 63 24.5 122.5t72 108.5t125 79t174.5 30q164 0 258 -79.5t94 -219.5q0 -41 -11.5 -83.5t-40.5 -88t-72 -80.5t-113.5 -57.5t-158.5 -22.5zM400 124q71 0 112 48t41 140q0 81 -34 124t-97 43q-71 0 -111 -54.5
t-40 -134.5t36.5 -123t92.5 -43zM303 689l-81 81l81 81l81 -81zM541 689l-81 81l81 81l81 -81z" />
    <glyph glyph-name="Oslashsmall" unicode="&#xf7f8;" horiz-adv-x="821" 
d="M559 376l-246 -225q31 -30 88 -30q25 0 50 8.5t51 28.5t42.5 61.5t16.5 99.5q0 31 -2 57zM263 237l244 220q-26 25 -87 25q-75 0 -117.5 -57t-42.5 -140q0 -28 3 -48zM110 -36l-73 78l67 57q-68 75 -68 176q0 64 24 123.5t71 109t126 79.5t180 30q118 0 199 -44l69 67
l79 -74l-66 -55q66 -73 66 -189q0 -42 -11 -85.5t-40.5 -89.5t-73 -81t-115.5 -57.5t-162 -22.5q-112 0 -197 48z" />
    <glyph glyph-name="Ugravesmall" unicode="&#xf7f9;" horiz-adv-x="772" 
d="M282 451v-57q0 -107 8 -156t33 -76q27 -28 70 -28q48 0 74 37q18 25 22 67.5t4 192.5v32q0 26 -1 55t-2.5 57t-1.5 37h220q0 -4 0.5 -57t0.5 -93v-40q0 -134 -15.5 -209.5t-63.5 -130.5q-41 -46 -106.5 -71t-142.5 -25q-182 0 -258 107q-35 49 -48 115.5t-13 215.5v46
q0 22 0.5 72t0.5 57h224q-5 -37 -5 -148zM304 852l156 -112l-40 -65l-175 81z" />
    <glyph glyph-name="Uacutesmall" unicode="&#xf7fa;" horiz-adv-x="772" 
d="M282 451v-57q0 -107 8 -156t33 -76q27 -28 70 -28q48 0 74 37q18 25 22 67.5t4 192.5v32q0 26 -1 55t-2.5 57t-1.5 37h220q0 -4 0.5 -57t0.5 -93v-40q0 -134 -15.5 -209.5t-63.5 -130.5q-41 -46 -106.5 -71t-142.5 -25q-182 0 -258 107q-35 49 -48 115.5t-13 215.5v46
q0 22 0.5 72t0.5 57h224q-5 -37 -5 -148zM352 741l162 112l54 -96l-179 -81z" />
    <glyph glyph-name="Ucircumflexsmall" unicode="&#xf7fb;" horiz-adv-x="772" 
d="M282 451v-57q0 -107 8 -156t33 -76q27 -28 70 -28q48 0 74 37q18 25 22 67.5t4 192.5v32q0 26 -1 55t-2.5 57t-1.5 37h220q0 -4 0.5 -57t0.5 -93v-40q0 -134 -15.5 -209.5t-63.5 -130.5q-41 -46 -106.5 -71t-142.5 -25q-182 0 -258 107q-35 49 -48 115.5t-13 215.5v46
q0 22 0.5 72t0.5 57h224q-5 -37 -5 -148zM248 754l153 95l144 -95l-50 -75l-99 75l-103 -75z" />
    <glyph glyph-name="Udieresissmall" unicode="&#xf7fc;" horiz-adv-x="772" 
d="M282 451v-57q0 -107 8 -156t33 -76q27 -28 70 -28q48 0 74 37q18 25 22 67.5t4 192.5v32q0 26 -1 55t-2.5 57t-1.5 37h220q0 -4 0.5 -57t0.5 -93v-40q0 -134 -15.5 -209.5t-63.5 -130.5q-41 -46 -106.5 -71t-142.5 -25q-182 0 -258 107q-35 49 -48 115.5t-13 215.5v46
q0 22 0.5 72t0.5 57h224q-5 -37 -5 -148zM277 689l-81 81l81 81l81 -81zM515 689l-81 81l81 81l81 -81z" />
    <glyph glyph-name="Yacutesmall" unicode="&#xf7fd;" horiz-adv-x="714" 
d="M460 0h-225q5 100 5 121v35q0 80 -30.5 139t-83.5 93q-10 7 -21 12t-23 9l-19.5 6.5t-21 6t-17.5 4.5l70 194q107 -30 172 -89q57 -55 87 -145h7q28 80 99 144q74 65 173 92l57 -195q-84 -17 -138 -57q-43 -32 -69 -87t-26 -125v-53q0 -71 4 -105zM323 741l162 112
l54 -96l-179 -81z" />
    <glyph glyph-name="Thornsmall" unicode="&#xf7fe;" horiz-adv-x="664" 
d="M303 -31h-214q4 136 4 333v93q0 7 -1 111t-1 129h213q0 -22 -0.5 -43.5t-1 -34t-0.5 -23.5v-14q76 0 161 -16q72 -14 121.5 -58.5t49.5 -113.5q0 -87 -89 -157t-243 -84v-14q0 -59 1 -108zM302 399v-185q44 4 78.5 29.5t34.5 76.5q0 76 -113 79z" />
    <glyph glyph-name="Ydieresissmall" unicode="&#xf7ff;" horiz-adv-x="714" 
d="M460 0h-225q5 100 5 121v35q0 80 -30.5 139t-83.5 93q-10 7 -21 12t-23 9l-19.5 6.5t-21 6t-17.5 4.5l70 194q107 -30 172 -89q57 -55 87 -145h7q28 80 99 144q74 65 173 92l57 -195q-84 -17 -138 -57q-43 -32 -69 -87t-26 -125v-53q0 -71 4 -105zM248 689l-81 81l81 81
l81 -81zM486 689l-81 81l81 81l81 -81z" />
    <glyph glyph-name="fi" unicode="&#xfb01;" horiz-adv-x="954" 
d="M307 0h-216q3 45 3 247v113q0 169 -3 244q3 0 411 12l4 -146l-200 -4v-123q8 0 31 1t66.5 3t85.5 4l2 -141l-185 2v-68q0 -7 0.5 -72.5t0.5 -71.5zM860 349v-92q0 -177 4 -257h-222q2 74 2 258v92q0 7 -1 125t-1 129h222q-4 -64 -4 -255z" />
    <glyph glyph-name="fl" unicode="&#xfb02;" horiz-adv-x="1082" 
d="M307 0h-216q3 45 3 247v113q0 169 -3 244q3 0 411 12l4 -146l-200 -4v-123q8 0 31 1t66.5 3t85.5 4l2 -141l-185 2v-68q0 -7 0.5 -72.5t0.5 -71.5zM642 604h224q-5 -100 -5 -302v-149q129 0 202 4l1 -166q-7 0 -191.5 4.5t-229.5 4.5q2 45 2 247v113q0 193 -3 244z" />
    </font>
</defs>
</svg>
