<?xml version="1.0" encoding="utf-8"?>
<!-- Generator: Adobe Illustrator 16.0.0, SVG Export Plug-In . SVG Version: 6.00 Build 0)  -->
<!DOCTYPE svg PUBLIC "-//W3C//DTD SVG 1.1//EN" "http://www.w3.org/Graphics/SVG/1.1/DTD/svg11.dtd">
<svg version="1.1" id="Layer_1" xmlns="http://www.w3.org/2000/svg" xmlns:xlink="http://www.w3.org/1999/xlink" x="0px" y="0px"
	 width="270px" height="63.3px" viewBox="0 0 270 63.3" enable-background="new 0 0 270 63.3" xml:space="preserve">
<g>
	<rect x="121.434" y="1.898" fill="#FFFFFE" width="30.801" height="59.501"/>
	<path fill="#86754D" d="M120.776,63.3h32.112V0h-32.112V63.3z M150.301,60.356h-26.998V2.672h26.998V60.356z"/>
	<polygon fill="#8E9090" points="139.374,27.208 139.374,29.872 141.475,28.981 141.475,55.567 145.68,55.567 145.68,24.397 	"/>
	<polygon fill="#8E9090" points="125.826,11.428 125.826,14.092 127.926,13.202 127.926,39.789 132.133,39.789 132.133,8.617 	"/>
	<polygon fill="#86754D" points="132.597,17.786 132.597,20.447 134.702,19.558 134.702,46.146 138.906,46.146 138.906,14.974 	"/>
</g>
<g>
	<path fill="#86754D" d="M196.236,22.758c0.249,0.311,0.291,0.489,0.291,1.229h0.003v12.261h2.343V23.976
		c0-0.729,0.058-0.908,0.292-1.218H196.236z M264.777,36.232c2.688,0,5.223-1.962,5.223-5.09c0-3.096-2.535-5.056-5.223-5.056
		c-2.679,0-5.212,1.96-5.212,5.056c0,0.658,0.119,1.259,0.316,1.805c-0.17,0.433-0.562,0.955-1.211,0.955h-47.96
		c-0.74,0-1.141-0.443-1.271-0.955l-0.003-4.565c0-0.74,0.06-0.916,0.293-1.226h-2.929c0.255,0.31,0.293,0.486,0.293,1.226v7.485
		c0,1.141-0.878,1.928-2.177,1.928h-1.524v2.382h1.187c2.685,0,4.86-1.442,4.86-3.929v-0.161c0.32,0.113,0.678,0.173,1.078,0.173
		h48.344c1.206,0,2.036-0.563,2.484-1.252C262.298,35.793,263.516,36.232,264.777,36.232 M264.773,28.114
		c1.479,0,2.877,1.2,2.877,3.028c0,1.845-1.397,3.042-2.877,3.042c-1.475,0-2.855-1.198-2.855-3.042
		C261.918,29.313,263.299,28.114,264.773,28.114 M188.791,28.381L188.791,28.381v3.495c0,1.141-0.878,1.931-2.176,1.931
		c-1.297,0-2.34-0.79-2.34-1.931v-3.495c0-0.74,0.058-0.915,0.294-1.226h-2.932c0.249,0.308,0.292,0.486,0.292,1.198
		c0,0,0.003,3.797,0.002,3.812c-0.07,0.981-1.158,1.632-2.329,1.641c-1.3,0-2.261-0.79-2.261-1.931v-3.495h0.001
		c0-0.74,0.059-0.915,0.291-1.226h-2.928c0.235,0.312,0.292,0.486,0.292,1.226v7.484c0,1.138-1.152,1.953-2.449,1.953l-0.068-0.001
		l-5.748,0.001h-0.072c-1.296,0-2.32-0.815-2.32-1.953V28.35c0.001-0.709,0.06-0.888,0.291-1.195h-2.929
		c0.251,0.308,0.292,0.486,0.292,1.198v7.755c0,2.491,2.021,4.069,4.703,4.069h5.818c2.682,0,4.856-1.578,4.856-4.069v-0.322
		c0.089,0.036,0.933,0.404,2.178,0.404c0.003,0,0.01-0.001,0.013-0.001c0.002,0,0.002,0.001,0.005,0.001v-0.001
		c1.379-0.002,2.632-0.426,3.512-1.174c0.888,0.75,2.127,1.175,3.503,1.175c2.682,0,4.553-1.579,4.553-4.067v-3.742
		c0-0.74,0.058-0.915,0.293-1.226h-2.931C188.75,27.466,188.791,27.641,188.791,28.381 M261.289,39.553l0.247,0.989l7.7-1.925
		l-0.248-0.988L261.289,39.553z"/>
</g>
<g>
	<path fill="#86754D" d="M7.474,33.289l3.942-8.9l2.658,11.944c0.191,0.84,0.371,1.232,0.779,1.818h-3.358
		c0.293-0.254,0.369-0.432,0.369-0.663c0-0.099,0-0.235-0.036-0.39l-0.097-0.472l-1.056-5.209l-3.201,7.493l-3.221-7.493
		l-1.114,5.035l-0.075,0.488c-0.062,0.232-0.079,0.449-0.079,0.567c0,0.233,0.057,0.39,0.254,0.644H0
		c0.251-0.331,0.351-0.489,0.45-0.724c0.134-0.255,0.311-0.781,0.407-1.212l2.694-11.827L7.474,33.289z"/>
	<path fill="#86754D" d="M30.876,27.707c-0.232-0.173-0.33-0.213-0.505-0.273c-0.236-0.077-0.294-0.077-0.86-0.077h-3.28v3.104
		h1.912c0.742,0,0.918-0.041,1.232-0.293v2.792c-0.314-0.234-0.49-0.293-1.232-0.293h-1.912v3.278h3.338
		c0.527,0,0.625-0.02,0.86-0.079c0.172-0.055,0.291-0.113,0.504-0.293v2.58H23.48c0.192-0.232,0.255-0.331,0.331-0.549
		c0.08-0.254,0.08-0.367,0.08-0.878V26.556c0-0.507,0-0.604-0.08-0.858c-0.076-0.217-0.139-0.332-0.331-0.568h7.396V27.707z"/>
	<path fill="#86754D" d="M41.359,25.11c0.138,0,0.292-0.017,0.488-0.055c0.84-0.138,1.131-0.178,1.656-0.178
		c2.62,0,4.453,1.66,4.453,4.043c0,1.287-0.508,2.205-1.58,2.967c1.739,0.741,2.946,2.261,3.432,4.292l0.238,0.994
		c0.136,0.528,0.236,0.725,0.548,0.979h-3.32c0.138-0.372,0.156-0.511,0.156-0.837c0-2.189-2.089-4.259-4.393-4.373v3.783
		c0,0.803,0.079,1.017,0.43,1.427h-3.18c0.194-0.232,0.251-0.331,0.33-0.549c0.076-0.253,0.076-0.367,0.076-0.878V24.917
		C41.008,25.074,41.144,25.11,41.359,25.11 M43.623,30.811c1.153,0,1.991-0.781,1.991-1.833c0-1.053-0.821-1.876-1.896-1.876
		c-0.215,0-0.347,0.019-0.681,0.119v3.533C43.332,30.792,43.451,30.811,43.623,30.811"/>
	<path fill="#86754D" d="M63.032,35.397L62.39,36.92l-0.139,0.315c-0.059,0.135-0.078,0.291-0.078,0.405
		c0,0.18,0.04,0.294,0.217,0.511h-3.496c0.292-0.294,0.412-0.41,0.564-0.625c0.177-0.253,0.47-0.781,0.607-1.093l4.392-9.896
		l0.487-1.092l0.354-0.823l0.35,0.823l0.487,1.092l4.392,9.896c0.137,0.312,0.43,0.84,0.607,1.093
		c0.155,0.215,0.271,0.331,0.564,0.625h-3.493c0.174-0.217,0.215-0.331,0.215-0.528c0-0.097-0.019-0.253-0.078-0.388l-0.137-0.315
		l-0.646-1.523H63.032z M63.89,33.308h2.812l-1.404-3.414L63.89,33.308z"/>
	<path fill="#86754D" d="M84.114,35.397l-0.646,1.523l-0.134,0.315c-0.062,0.135-0.078,0.291-0.078,0.405
		c0,0.18,0.041,0.294,0.212,0.511h-3.492c0.29-0.294,0.408-0.41,0.564-0.625c0.18-0.253,0.469-0.781,0.607-1.093l4.391-9.896
		l0.488-1.092l0.353-0.823l0.35,0.823l0.488,1.092l4.393,9.896c0.137,0.312,0.431,0.84,0.604,1.093
		c0.155,0.215,0.272,0.331,0.568,0.625H89.29c0.171-0.217,0.211-0.331,0.211-0.528c0-0.097-0.02-0.253-0.077-0.388L89.29,36.92
		l-0.649-1.523H84.114z M84.972,33.308h2.81l-1.403-3.414L84.972,33.308z"/>
	<path fill="#86754D" d="M101.096,34.852c0.623,0.839,1.542,1.347,2.439,1.347c1.169,0,2.05-0.9,2.05-2.068
		c0-0.566-0.174-0.979-0.605-1.422c-0.313-0.317-0.587-0.512-1.734-1.272c-1.623-1.093-2.19-1.952-2.19-3.319
		c0-1.891,1.327-3.257,3.164-3.257c0.391,0,0.78,0.058,1.248,0.214c0.235,0.078,0.41,0.116,0.508,0.116
		c0.192,0,0.313-0.06,0.527-0.213v3.14c-0.703-0.741-1.268-1.073-1.874-1.073c-0.665,0-1.173,0.469-1.173,1.115
		c0,0.175,0.04,0.332,0.097,0.466c0.158,0.313,0.411,0.528,1.25,1.054c1.016,0.646,1.411,0.937,1.893,1.426
		c0.822,0.82,1.309,1.952,1.309,3.125c0,2.398-1.791,4.194-4.176,4.194c-0.429,0-1.073-0.079-1.501-0.192
		c-0.276-0.062-0.47-0.099-0.588-0.099c-0.215,0-0.368,0.055-0.642,0.271V34.852z"/>
</g>
</svg>
